<?xml version="1.0" encoding="utf-8" standalone="no"?>
<!DOCTYPE svg PUBLIC "-//W3C//DTD SVG 1.1//EN"
  "http://www.w3.org/Graphics/SVG/1.1/DTD/svg11.dtd">
<svg xmlns:xlink="http://www.w3.org/1999/xlink" width="1440pt" height="1440pt" viewBox="0 0 1440 1440" xmlns="http://www.w3.org/2000/svg" version="1.1">
 <metadata>
  <rdf:RDF xmlns:dc="http://purl.org/dc/elements/1.1/" xmlns:cc="http://creativecommons.org/ns#" xmlns:rdf="http://www.w3.org/1999/02/22-rdf-syntax-ns#">
   <cc:Work>
    <dc:type rdf:resource="http://purl.org/dc/dcmitype/StillImage"/>
    <dc:date>2025-03-08T01:46:16.319880</dc:date>
    <dc:format>image/svg+xml</dc:format>
    <dc:creator>
     <cc:Agent>
      <dc:title>Matplotlib v3.10.1, https://matplotlib.org/</dc:title>
     </cc:Agent>
    </dc:creator>
   </cc:Work>
  </rdf:RDF>
 </metadata>
 <defs>
  <style type="text/css">*{stroke-linejoin: round; stroke-linecap: butt}</style>
 </defs>
 <g id="figure_1">
  <g id="patch_1">
   <path d="M 0 1440 
L 1440 1440 
L 1440 0 
L 0 0 
z
" style="fill: #ffffff"/>
  </g>
  <g id="axes_1">
   <g id="patch_2">
    <path d="M 906.718451 1124.272089 
Q 961.029481 1037.935069 1015.935828 950.65169 
" style="fill: none; stroke: #000000; stroke-linecap: round"/>
    <path d="M 913.176927 1120.351037 
L 906.718451 1124.272089 
L 907.456695 1116.752677 
" style="fill: none; stroke: #000000; stroke-linecap: round"/>
   </g>
   <g id="text_1">
    <g id="patch_3">
     <path d="M 812.509306 1214.031027 
L 942.490694 1214.031027 
L 942.490694 1127.408973 
L 812.509306 1127.408973 
z
" style="fill: #efb083; stroke: #000000; stroke-linejoin: miter"/>
    </g>
    <!-- gini = 0.397 -->
    <g transform="translate(825.458872 1147.00425) scale(0.168948 -0.168948)">
     <defs>
      <path id="DejaVuSans-67" d="M 2906 1791 
Q 2906 2416 2648 2759 
Q 2391 3103 1925 3103 
Q 1463 3103 1205 2759 
Q 947 2416 947 1791 
Q 947 1169 1205 825 
Q 1463 481 1925 481 
Q 2391 481 2648 825 
Q 2906 1169 2906 1791 
z
M 3481 434 
Q 3481 -459 3084 -895 
Q 2688 -1331 1869 -1331 
Q 1566 -1331 1297 -1286 
Q 1028 -1241 775 -1147 
L 775 -588 
Q 1028 -725 1275 -790 
Q 1522 -856 1778 -856 
Q 2344 -856 2625 -561 
Q 2906 -266 2906 331 
L 2906 616 
Q 2728 306 2450 153 
Q 2172 0 1784 0 
Q 1141 0 747 490 
Q 353 981 353 1791 
Q 353 2603 747 3093 
Q 1141 3584 1784 3584 
Q 2172 3584 2450 3431 
Q 2728 3278 2906 2969 
L 2906 3500 
L 3481 3500 
L 3481 434 
z
" transform="scale(0.015625)"/>
      <path id="DejaVuSans-69" d="M 603 3500 
L 1178 3500 
L 1178 0 
L 603 0 
L 603 3500 
z
M 603 4863 
L 1178 4863 
L 1178 4134 
L 603 4134 
L 603 4863 
z
" transform="scale(0.015625)"/>
      <path id="DejaVuSans-6e" d="M 3513 2113 
L 3513 0 
L 2938 0 
L 2938 2094 
Q 2938 2591 2744 2837 
Q 2550 3084 2163 3084 
Q 1697 3084 1428 2787 
Q 1159 2491 1159 1978 
L 1159 0 
L 581 0 
L 581 3500 
L 1159 3500 
L 1159 2956 
Q 1366 3272 1645 3428 
Q 1925 3584 2291 3584 
Q 2894 3584 3203 3211 
Q 3513 2838 3513 2113 
z
" transform="scale(0.015625)"/>
      <path id="DejaVuSans-20" transform="scale(0.015625)"/>
      <path id="DejaVuSans-3d" d="M 678 2906 
L 4684 2906 
L 4684 2381 
L 678 2381 
L 678 2906 
z
M 678 1631 
L 4684 1631 
L 4684 1100 
L 678 1100 
L 678 1631 
z
" transform="scale(0.015625)"/>
      <path id="DejaVuSans-30" d="M 2034 4250 
Q 1547 4250 1301 3770 
Q 1056 3291 1056 2328 
Q 1056 1369 1301 889 
Q 1547 409 2034 409 
Q 2525 409 2770 889 
Q 3016 1369 3016 2328 
Q 3016 3291 2770 3770 
Q 2525 4250 2034 4250 
z
M 2034 4750 
Q 2819 4750 3233 4129 
Q 3647 3509 3647 2328 
Q 3647 1150 3233 529 
Q 2819 -91 2034 -91 
Q 1250 -91 836 529 
Q 422 1150 422 2328 
Q 422 3509 836 4129 
Q 1250 4750 2034 4750 
z
" transform="scale(0.015625)"/>
      <path id="DejaVuSans-2e" d="M 684 794 
L 1344 794 
L 1344 0 
L 684 0 
L 684 794 
z
" transform="scale(0.015625)"/>
      <path id="DejaVuSans-33" d="M 2597 2516 
Q 3050 2419 3304 2112 
Q 3559 1806 3559 1356 
Q 3559 666 3084 287 
Q 2609 -91 1734 -91 
Q 1441 -91 1130 -33 
Q 819 25 488 141 
L 488 750 
Q 750 597 1062 519 
Q 1375 441 1716 441 
Q 2309 441 2620 675 
Q 2931 909 2931 1356 
Q 2931 1769 2642 2001 
Q 2353 2234 1838 2234 
L 1294 2234 
L 1294 2753 
L 1863 2753 
Q 2328 2753 2575 2939 
Q 2822 3125 2822 3475 
Q 2822 3834 2567 4026 
Q 2313 4219 1838 4219 
Q 1578 4219 1281 4162 
Q 984 4106 628 3988 
L 628 4550 
Q 988 4650 1302 4700 
Q 1616 4750 1894 4750 
Q 2613 4750 3031 4423 
Q 3450 4097 3450 3541 
Q 3450 3153 3228 2886 
Q 3006 2619 2597 2516 
z
" transform="scale(0.015625)"/>
      <path id="DejaVuSans-39" d="M 703 97 
L 703 672 
Q 941 559 1184 500 
Q 1428 441 1663 441 
Q 2288 441 2617 861 
Q 2947 1281 2994 2138 
Q 2813 1869 2534 1725 
Q 2256 1581 1919 1581 
Q 1219 1581 811 2004 
Q 403 2428 403 3163 
Q 403 3881 828 4315 
Q 1253 4750 1959 4750 
Q 2769 4750 3195 4129 
Q 3622 3509 3622 2328 
Q 3622 1225 3098 567 
Q 2575 -91 1691 -91 
Q 1453 -91 1209 -44 
Q 966 3 703 97 
z
M 1959 2075 
Q 2384 2075 2632 2365 
Q 2881 2656 2881 3163 
Q 2881 3666 2632 3958 
Q 2384 4250 1959 4250 
Q 1534 4250 1286 3958 
Q 1038 3666 1038 3163 
Q 1038 2656 1286 2365 
Q 1534 2075 1959 2075 
z
" transform="scale(0.015625)"/>
      <path id="DejaVuSans-37" d="M 525 4666 
L 3525 4666 
L 3525 4397 
L 1831 0 
L 1172 0 
L 2766 4134 
L 525 4134 
L 525 4666 
z
" transform="scale(0.015625)"/>
     </defs>
     <use xlink:href="#DejaVuSans-67"/>
     <use xlink:href="#DejaVuSans-69" transform="translate(63.476562 0)"/>
     <use xlink:href="#DejaVuSans-6e" transform="translate(91.259766 0)"/>
     <use xlink:href="#DejaVuSans-69" transform="translate(154.638672 0)"/>
     <use xlink:href="#DejaVuSans-20" transform="translate(182.421875 0)"/>
     <use xlink:href="#DejaVuSans-3d" transform="translate(214.208984 0)"/>
     <use xlink:href="#DejaVuSans-20" transform="translate(297.998047 0)"/>
     <use xlink:href="#DejaVuSans-30" transform="translate(329.785156 0)"/>
     <use xlink:href="#DejaVuSans-2e" transform="translate(393.408203 0)"/>
     <use xlink:href="#DejaVuSans-33" transform="translate(425.195312 0)"/>
     <use xlink:href="#DejaVuSans-39" transform="translate(488.818359 0)"/>
     <use xlink:href="#DejaVuSans-37" transform="translate(552.441406 0)"/>
    </g>
    <!-- samples = 7 -->
    <g transform="translate(824.563978 1165.922681) scale(0.168948 -0.168948)">
     <defs>
      <path id="DejaVuSans-73" d="M 2834 3397 
L 2834 2853 
Q 2591 2978 2328 3040 
Q 2066 3103 1784 3103 
Q 1356 3103 1142 2972 
Q 928 2841 928 2578 
Q 928 2378 1081 2264 
Q 1234 2150 1697 2047 
L 1894 2003 
Q 2506 1872 2764 1633 
Q 3022 1394 3022 966 
Q 3022 478 2636 193 
Q 2250 -91 1575 -91 
Q 1294 -91 989 -36 
Q 684 19 347 128 
L 347 722 
Q 666 556 975 473 
Q 1284 391 1588 391 
Q 1994 391 2212 530 
Q 2431 669 2431 922 
Q 2431 1156 2273 1281 
Q 2116 1406 1581 1522 
L 1381 1569 
Q 847 1681 609 1914 
Q 372 2147 372 2553 
Q 372 3047 722 3315 
Q 1072 3584 1716 3584 
Q 2034 3584 2315 3537 
Q 2597 3491 2834 3397 
z
" transform="scale(0.015625)"/>
      <path id="DejaVuSans-61" d="M 2194 1759 
Q 1497 1759 1228 1600 
Q 959 1441 959 1056 
Q 959 750 1161 570 
Q 1363 391 1709 391 
Q 2188 391 2477 730 
Q 2766 1069 2766 1631 
L 2766 1759 
L 2194 1759 
z
M 3341 1997 
L 3341 0 
L 2766 0 
L 2766 531 
Q 2569 213 2275 61 
Q 1981 -91 1556 -91 
Q 1019 -91 701 211 
Q 384 513 384 1019 
Q 384 1609 779 1909 
Q 1175 2209 1959 2209 
L 2766 2209 
L 2766 2266 
Q 2766 2663 2505 2880 
Q 2244 3097 1772 3097 
Q 1472 3097 1187 3025 
Q 903 2953 641 2809 
L 641 3341 
Q 956 3463 1253 3523 
Q 1550 3584 1831 3584 
Q 2591 3584 2966 3190 
Q 3341 2797 3341 1997 
z
" transform="scale(0.015625)"/>
      <path id="DejaVuSans-6d" d="M 3328 2828 
Q 3544 3216 3844 3400 
Q 4144 3584 4550 3584 
Q 5097 3584 5394 3201 
Q 5691 2819 5691 2113 
L 5691 0 
L 5113 0 
L 5113 2094 
Q 5113 2597 4934 2840 
Q 4756 3084 4391 3084 
Q 3944 3084 3684 2787 
Q 3425 2491 3425 1978 
L 3425 0 
L 2847 0 
L 2847 2094 
Q 2847 2600 2669 2842 
Q 2491 3084 2119 3084 
Q 1678 3084 1418 2786 
Q 1159 2488 1159 1978 
L 1159 0 
L 581 0 
L 581 3500 
L 1159 3500 
L 1159 2956 
Q 1356 3278 1631 3431 
Q 1906 3584 2284 3584 
Q 2666 3584 2933 3390 
Q 3200 3197 3328 2828 
z
" transform="scale(0.015625)"/>
      <path id="DejaVuSans-70" d="M 1159 525 
L 1159 -1331 
L 581 -1331 
L 581 3500 
L 1159 3500 
L 1159 2969 
Q 1341 3281 1617 3432 
Q 1894 3584 2278 3584 
Q 2916 3584 3314 3078 
Q 3713 2572 3713 1747 
Q 3713 922 3314 415 
Q 2916 -91 2278 -91 
Q 1894 -91 1617 61 
Q 1341 213 1159 525 
z
M 3116 1747 
Q 3116 2381 2855 2742 
Q 2594 3103 2138 3103 
Q 1681 3103 1420 2742 
Q 1159 2381 1159 1747 
Q 1159 1113 1420 752 
Q 1681 391 2138 391 
Q 2594 391 2855 752 
Q 3116 1113 3116 1747 
z
" transform="scale(0.015625)"/>
      <path id="DejaVuSans-6c" d="M 603 4863 
L 1178 4863 
L 1178 0 
L 603 0 
L 603 4863 
z
" transform="scale(0.015625)"/>
      <path id="DejaVuSans-65" d="M 3597 1894 
L 3597 1613 
L 953 1613 
Q 991 1019 1311 708 
Q 1631 397 2203 397 
Q 2534 397 2845 478 
Q 3156 559 3463 722 
L 3463 178 
Q 3153 47 2828 -22 
Q 2503 -91 2169 -91 
Q 1331 -91 842 396 
Q 353 884 353 1716 
Q 353 2575 817 3079 
Q 1281 3584 2069 3584 
Q 2775 3584 3186 3129 
Q 3597 2675 3597 1894 
z
M 3022 2063 
Q 3016 2534 2758 2815 
Q 2500 3097 2075 3097 
Q 1594 3097 1305 2825 
Q 1016 2553 972 2059 
L 3022 2063 
z
" transform="scale(0.015625)"/>
     </defs>
     <use xlink:href="#DejaVuSans-73"/>
     <use xlink:href="#DejaVuSans-61" transform="translate(52.099609 0)"/>
     <use xlink:href="#DejaVuSans-6d" transform="translate(113.378906 0)"/>
     <use xlink:href="#DejaVuSans-70" transform="translate(210.791016 0)"/>
     <use xlink:href="#DejaVuSans-6c" transform="translate(274.267578 0)"/>
     <use xlink:href="#DejaVuSans-65" transform="translate(302.050781 0)"/>
     <use xlink:href="#DejaVuSans-73" transform="translate(363.574219 0)"/>
     <use xlink:href="#DejaVuSans-20" transform="translate(415.673828 0)"/>
     <use xlink:href="#DejaVuSans-3d" transform="translate(447.460938 0)"/>
     <use xlink:href="#DejaVuSans-20" transform="translate(531.25 0)"/>
     <use xlink:href="#DejaVuSans-37" transform="translate(563.037109 0)"/>
    </g>
    <!-- value = [8, 3] -->
    <g transform="translate(819.267208 1184.841112) scale(0.168948 -0.168948)">
     <defs>
      <path id="DejaVuSans-76" d="M 191 3500 
L 800 3500 
L 1894 563 
L 2988 3500 
L 3597 3500 
L 2284 0 
L 1503 0 
L 191 3500 
z
" transform="scale(0.015625)"/>
      <path id="DejaVuSans-75" d="M 544 1381 
L 544 3500 
L 1119 3500 
L 1119 1403 
Q 1119 906 1312 657 
Q 1506 409 1894 409 
Q 2359 409 2629 706 
Q 2900 1003 2900 1516 
L 2900 3500 
L 3475 3500 
L 3475 0 
L 2900 0 
L 2900 538 
Q 2691 219 2414 64 
Q 2138 -91 1772 -91 
Q 1169 -91 856 284 
Q 544 659 544 1381 
z
M 1991 3584 
L 1991 3584 
z
" transform="scale(0.015625)"/>
      <path id="DejaVuSans-5b" d="M 550 4863 
L 1875 4863 
L 1875 4416 
L 1125 4416 
L 1125 -397 
L 1875 -397 
L 1875 -844 
L 550 -844 
L 550 4863 
z
" transform="scale(0.015625)"/>
      <path id="DejaVuSans-38" d="M 2034 2216 
Q 1584 2216 1326 1975 
Q 1069 1734 1069 1313 
Q 1069 891 1326 650 
Q 1584 409 2034 409 
Q 2484 409 2743 651 
Q 3003 894 3003 1313 
Q 3003 1734 2745 1975 
Q 2488 2216 2034 2216 
z
M 1403 2484 
Q 997 2584 770 2862 
Q 544 3141 544 3541 
Q 544 4100 942 4425 
Q 1341 4750 2034 4750 
Q 2731 4750 3128 4425 
Q 3525 4100 3525 3541 
Q 3525 3141 3298 2862 
Q 3072 2584 2669 2484 
Q 3125 2378 3379 2068 
Q 3634 1759 3634 1313 
Q 3634 634 3220 271 
Q 2806 -91 2034 -91 
Q 1263 -91 848 271 
Q 434 634 434 1313 
Q 434 1759 690 2068 
Q 947 2378 1403 2484 
z
M 1172 3481 
Q 1172 3119 1398 2916 
Q 1625 2713 2034 2713 
Q 2441 2713 2670 2916 
Q 2900 3119 2900 3481 
Q 2900 3844 2670 4047 
Q 2441 4250 2034 4250 
Q 1625 4250 1398 4047 
Q 1172 3844 1172 3481 
z
" transform="scale(0.015625)"/>
      <path id="DejaVuSans-2c" d="M 750 794 
L 1409 794 
L 1409 256 
L 897 -744 
L 494 -744 
L 750 256 
L 750 794 
z
" transform="scale(0.015625)"/>
      <path id="DejaVuSans-5d" d="M 1947 4863 
L 1947 -844 
L 622 -844 
L 622 -397 
L 1369 -397 
L 1369 4416 
L 622 4416 
L 622 4863 
L 1947 4863 
z
" transform="scale(0.015625)"/>
     </defs>
     <use xlink:href="#DejaVuSans-76"/>
     <use xlink:href="#DejaVuSans-61" transform="translate(59.179688 0)"/>
     <use xlink:href="#DejaVuSans-6c" transform="translate(120.458984 0)"/>
     <use xlink:href="#DejaVuSans-75" transform="translate(148.242188 0)"/>
     <use xlink:href="#DejaVuSans-65" transform="translate(211.621094 0)"/>
     <use xlink:href="#DejaVuSans-20" transform="translate(273.144531 0)"/>
     <use xlink:href="#DejaVuSans-3d" transform="translate(304.931641 0)"/>
     <use xlink:href="#DejaVuSans-20" transform="translate(388.720703 0)"/>
     <use xlink:href="#DejaVuSans-5b" transform="translate(420.507812 0)"/>
     <use xlink:href="#DejaVuSans-38" transform="translate(459.521484 0)"/>
     <use xlink:href="#DejaVuSans-2c" transform="translate(523.144531 0)"/>
     <use xlink:href="#DejaVuSans-20" transform="translate(554.931641 0)"/>
     <use xlink:href="#DejaVuSans-33" transform="translate(586.71875 0)"/>
     <use xlink:href="#DejaVuSans-5d" transform="translate(650.341797 0)"/>
    </g>
    <!-- class = B -->
    <g transform="translate(838.287007 1203.759543) scale(0.168948 -0.168948)">
     <defs>
      <path id="DejaVuSans-63" d="M 3122 3366 
L 3122 2828 
Q 2878 2963 2633 3030 
Q 2388 3097 2138 3097 
Q 1578 3097 1268 2742 
Q 959 2388 959 1747 
Q 959 1106 1268 751 
Q 1578 397 2138 397 
Q 2388 397 2633 464 
Q 2878 531 3122 666 
L 3122 134 
Q 2881 22 2623 -34 
Q 2366 -91 2075 -91 
Q 1284 -91 818 406 
Q 353 903 353 1747 
Q 353 2603 823 3093 
Q 1294 3584 2113 3584 
Q 2378 3584 2631 3529 
Q 2884 3475 3122 3366 
z
" transform="scale(0.015625)"/>
      <path id="DejaVuSans-42" d="M 1259 2228 
L 1259 519 
L 2272 519 
Q 2781 519 3026 730 
Q 3272 941 3272 1375 
Q 3272 1813 3026 2020 
Q 2781 2228 2272 2228 
L 1259 2228 
z
M 1259 4147 
L 1259 2741 
L 2194 2741 
Q 2656 2741 2882 2914 
Q 3109 3088 3109 3444 
Q 3109 3797 2882 3972 
Q 2656 4147 2194 4147 
L 1259 4147 
z
M 628 4666 
L 2241 4666 
Q 2963 4666 3353 4366 
Q 3744 4066 3744 3513 
Q 3744 3084 3544 2831 
Q 3344 2578 2956 2516 
Q 3422 2416 3680 2098 
Q 3938 1781 3938 1306 
Q 3938 681 3513 340 
Q 3088 0 2303 0 
L 628 0 
L 628 4666 
z
" transform="scale(0.015625)"/>
     </defs>
     <use xlink:href="#DejaVuSans-63"/>
     <use xlink:href="#DejaVuSans-6c" transform="translate(54.980469 0)"/>
     <use xlink:href="#DejaVuSans-61" transform="translate(82.763672 0)"/>
     <use xlink:href="#DejaVuSans-73" transform="translate(144.042969 0)"/>
     <use xlink:href="#DejaVuSans-73" transform="translate(196.142578 0)"/>
     <use xlink:href="#DejaVuSans-20" transform="translate(248.242188 0)"/>
     <use xlink:href="#DejaVuSans-3d" transform="translate(280.029297 0)"/>
     <use xlink:href="#DejaVuSans-20" transform="translate(363.818359 0)"/>
     <use xlink:href="#DejaVuSans-42" transform="translate(395.605469 0)"/>
    </g>
   </g>
   <g id="patch_4">
    <path d="M 1127.281549 1124.272089 
Q 1072.970519 1037.935069 1018.064172 950.65169 
" style="fill: none; stroke: #000000; stroke-linecap: round"/>
    <path d="M 1126.543305 1116.752677 
L 1127.281549 1124.272089 
L 1120.823073 1120.351037 
" style="fill: none; stroke: #000000; stroke-linecap: round"/>
   </g>
   <g id="text_2">
    <g id="patch_5">
     <path d="M 1091.509306 1214.031027 
L 1221.490694 1214.031027 
L 1221.490694 1127.408973 
L 1091.509306 1127.408973 
z
" style="fill: #399de5; stroke: #000000; stroke-linejoin: miter"/>
    </g>
    <!-- gini = 0.0 -->
    <g transform="translate(1115.208161 1147.00425) scale(0.168948 -0.168948)">
     <use xlink:href="#DejaVuSans-67"/>
     <use xlink:href="#DejaVuSans-69" transform="translate(63.476562 0)"/>
     <use xlink:href="#DejaVuSans-6e" transform="translate(91.259766 0)"/>
     <use xlink:href="#DejaVuSans-69" transform="translate(154.638672 0)"/>
     <use xlink:href="#DejaVuSans-20" transform="translate(182.421875 0)"/>
     <use xlink:href="#DejaVuSans-3d" transform="translate(214.208984 0)"/>
     <use xlink:href="#DejaVuSans-20" transform="translate(297.998047 0)"/>
     <use xlink:href="#DejaVuSans-30" transform="translate(329.785156 0)"/>
     <use xlink:href="#DejaVuSans-2e" transform="translate(393.408203 0)"/>
     <use xlink:href="#DejaVuSans-30" transform="translate(425.195312 0)"/>
    </g>
    <!-- samples = 3 -->
    <g transform="translate(1103.563978 1165.922681) scale(0.168948 -0.168948)">
     <use xlink:href="#DejaVuSans-73"/>
     <use xlink:href="#DejaVuSans-61" transform="translate(52.099609 0)"/>
     <use xlink:href="#DejaVuSans-6d" transform="translate(113.378906 0)"/>
     <use xlink:href="#DejaVuSans-70" transform="translate(210.791016 0)"/>
     <use xlink:href="#DejaVuSans-6c" transform="translate(274.267578 0)"/>
     <use xlink:href="#DejaVuSans-65" transform="translate(302.050781 0)"/>
     <use xlink:href="#DejaVuSans-73" transform="translate(363.574219 0)"/>
     <use xlink:href="#DejaVuSans-20" transform="translate(415.673828 0)"/>
     <use xlink:href="#DejaVuSans-3d" transform="translate(447.460938 0)"/>
     <use xlink:href="#DejaVuSans-20" transform="translate(531.25 0)"/>
     <use xlink:href="#DejaVuSans-33" transform="translate(563.037109 0)"/>
    </g>
    <!-- value = [0, 6] -->
    <g transform="translate(1098.267208 1184.841112) scale(0.168948 -0.168948)">
     <defs>
      <path id="DejaVuSans-36" d="M 2113 2584 
Q 1688 2584 1439 2293 
Q 1191 2003 1191 1497 
Q 1191 994 1439 701 
Q 1688 409 2113 409 
Q 2538 409 2786 701 
Q 3034 994 3034 1497 
Q 3034 2003 2786 2293 
Q 2538 2584 2113 2584 
z
M 3366 4563 
L 3366 3988 
Q 3128 4100 2886 4159 
Q 2644 4219 2406 4219 
Q 1781 4219 1451 3797 
Q 1122 3375 1075 2522 
Q 1259 2794 1537 2939 
Q 1816 3084 2150 3084 
Q 2853 3084 3261 2657 
Q 3669 2231 3669 1497 
Q 3669 778 3244 343 
Q 2819 -91 2113 -91 
Q 1303 -91 875 529 
Q 447 1150 447 2328 
Q 447 3434 972 4092 
Q 1497 4750 2381 4750 
Q 2619 4750 2861 4703 
Q 3103 4656 3366 4563 
z
" transform="scale(0.015625)"/>
     </defs>
     <use xlink:href="#DejaVuSans-76"/>
     <use xlink:href="#DejaVuSans-61" transform="translate(59.179688 0)"/>
     <use xlink:href="#DejaVuSans-6c" transform="translate(120.458984 0)"/>
     <use xlink:href="#DejaVuSans-75" transform="translate(148.242188 0)"/>
     <use xlink:href="#DejaVuSans-65" transform="translate(211.621094 0)"/>
     <use xlink:href="#DejaVuSans-20" transform="translate(273.144531 0)"/>
     <use xlink:href="#DejaVuSans-3d" transform="translate(304.931641 0)"/>
     <use xlink:href="#DejaVuSans-20" transform="translate(388.720703 0)"/>
     <use xlink:href="#DejaVuSans-5b" transform="translate(420.507812 0)"/>
     <use xlink:href="#DejaVuSans-30" transform="translate(459.521484 0)"/>
     <use xlink:href="#DejaVuSans-2c" transform="translate(523.144531 0)"/>
     <use xlink:href="#DejaVuSans-20" transform="translate(554.931641 0)"/>
     <use xlink:href="#DejaVuSans-36" transform="translate(586.71875 0)"/>
     <use xlink:href="#DejaVuSans-5d" transform="translate(650.341797 0)"/>
    </g>
    <!-- class = M -->
    <g transform="translate(1115.794197 1203.759543) scale(0.168948 -0.168948)">
     <defs>
      <path id="DejaVuSans-4d" d="M 628 4666 
L 1569 4666 
L 2759 1491 
L 3956 4666 
L 4897 4666 
L 4897 0 
L 4281 0 
L 4281 4097 
L 3078 897 
L 2444 897 
L 1241 4097 
L 1241 0 
L 628 0 
L 628 4666 
z
" transform="scale(0.015625)"/>
     </defs>
     <use xlink:href="#DejaVuSans-63"/>
     <use xlink:href="#DejaVuSans-6c" transform="translate(54.980469 0)"/>
     <use xlink:href="#DejaVuSans-61" transform="translate(82.763672 0)"/>
     <use xlink:href="#DejaVuSans-73" transform="translate(144.042969 0)"/>
     <use xlink:href="#DejaVuSans-73" transform="translate(196.142578 0)"/>
     <use xlink:href="#DejaVuSans-20" transform="translate(248.242188 0)"/>
     <use xlink:href="#DejaVuSans-3d" transform="translate(280.029297 0)"/>
     <use xlink:href="#DejaVuSans-20" transform="translate(363.818359 0)"/>
     <use xlink:href="#DejaVuSans-4d" transform="translate(395.605469 0)"/>
    </g>
   </g>
   <g id="patch_6">
    <path d="M 767.218451 902.512089 
Q 821.529481 816.175069 876.435828 728.89169 
" style="fill: none; stroke: #000000; stroke-linecap: round"/>
    <path d="M 773.676927 898.591037 
L 767.218451 902.512089 
L 767.956695 894.992677 
" style="fill: none; stroke: #000000; stroke-linecap: round"/>
   </g>
   <g id="text_3">
    <g id="patch_7">
     <path d="M 667.634661 992.271027 
L 808.365339 992.271027 
L 808.365339 905.648973 
L 667.634661 905.648973 
z
" style="fill: #e58139; stroke: #000000; stroke-linejoin: miter"/>
    </g>
    <!-- gini = 0.0 -->
    <g transform="translate(696.708161 925.24425) scale(0.168948 -0.168948)">
     <use xlink:href="#DejaVuSans-67"/>
     <use xlink:href="#DejaVuSans-69" transform="translate(63.476562 0)"/>
     <use xlink:href="#DejaVuSans-6e" transform="translate(91.259766 0)"/>
     <use xlink:href="#DejaVuSans-69" transform="translate(154.638672 0)"/>
     <use xlink:href="#DejaVuSans-20" transform="translate(182.421875 0)"/>
     <use xlink:href="#DejaVuSans-3d" transform="translate(214.208984 0)"/>
     <use xlink:href="#DejaVuSans-20" transform="translate(297.998047 0)"/>
     <use xlink:href="#DejaVuSans-30" transform="translate(329.785156 0)"/>
     <use xlink:href="#DejaVuSans-2e" transform="translate(393.408203 0)"/>
     <use xlink:href="#DejaVuSans-30" transform="translate(425.195312 0)"/>
    </g>
    <!-- samples = 10 -->
    <g transform="translate(679.689334 944.162681) scale(0.168948 -0.168948)">
     <defs>
      <path id="DejaVuSans-31" d="M 794 531 
L 1825 531 
L 1825 4091 
L 703 3866 
L 703 4441 
L 1819 4666 
L 2450 4666 
L 2450 531 
L 3481 531 
L 3481 0 
L 794 0 
L 794 531 
z
" transform="scale(0.015625)"/>
     </defs>
     <use xlink:href="#DejaVuSans-73"/>
     <use xlink:href="#DejaVuSans-61" transform="translate(52.099609 0)"/>
     <use xlink:href="#DejaVuSans-6d" transform="translate(113.378906 0)"/>
     <use xlink:href="#DejaVuSans-70" transform="translate(210.791016 0)"/>
     <use xlink:href="#DejaVuSans-6c" transform="translate(274.267578 0)"/>
     <use xlink:href="#DejaVuSans-65" transform="translate(302.050781 0)"/>
     <use xlink:href="#DejaVuSans-73" transform="translate(363.574219 0)"/>
     <use xlink:href="#DejaVuSans-20" transform="translate(415.673828 0)"/>
     <use xlink:href="#DejaVuSans-3d" transform="translate(447.460938 0)"/>
     <use xlink:href="#DejaVuSans-20" transform="translate(531.25 0)"/>
     <use xlink:href="#DejaVuSans-31" transform="translate(563.037109 0)"/>
     <use xlink:href="#DejaVuSans-30" transform="translate(626.660156 0)"/>
    </g>
    <!-- value = [13, 0] -->
    <g transform="translate(674.392564 963.081112) scale(0.168948 -0.168948)">
     <use xlink:href="#DejaVuSans-76"/>
     <use xlink:href="#DejaVuSans-61" transform="translate(59.179688 0)"/>
     <use xlink:href="#DejaVuSans-6c" transform="translate(120.458984 0)"/>
     <use xlink:href="#DejaVuSans-75" transform="translate(148.242188 0)"/>
     <use xlink:href="#DejaVuSans-65" transform="translate(211.621094 0)"/>
     <use xlink:href="#DejaVuSans-20" transform="translate(273.144531 0)"/>
     <use xlink:href="#DejaVuSans-3d" transform="translate(304.931641 0)"/>
     <use xlink:href="#DejaVuSans-20" transform="translate(388.720703 0)"/>
     <use xlink:href="#DejaVuSans-5b" transform="translate(420.507812 0)"/>
     <use xlink:href="#DejaVuSans-31" transform="translate(459.521484 0)"/>
     <use xlink:href="#DejaVuSans-33" transform="translate(523.144531 0)"/>
     <use xlink:href="#DejaVuSans-2c" transform="translate(586.767578 0)"/>
     <use xlink:href="#DejaVuSans-20" transform="translate(618.554688 0)"/>
     <use xlink:href="#DejaVuSans-30" transform="translate(650.341797 0)"/>
     <use xlink:href="#DejaVuSans-5d" transform="translate(713.964844 0)"/>
    </g>
    <!-- class = B -->
    <g transform="translate(698.787007 981.999543) scale(0.168948 -0.168948)">
     <use xlink:href="#DejaVuSans-63"/>
     <use xlink:href="#DejaVuSans-6c" transform="translate(54.980469 0)"/>
     <use xlink:href="#DejaVuSans-61" transform="translate(82.763672 0)"/>
     <use xlink:href="#DejaVuSans-73" transform="translate(144.042969 0)"/>
     <use xlink:href="#DejaVuSans-73" transform="translate(196.142578 0)"/>
     <use xlink:href="#DejaVuSans-20" transform="translate(248.242188 0)"/>
     <use xlink:href="#DejaVuSans-3d" transform="translate(280.029297 0)"/>
     <use xlink:href="#DejaVuSans-20" transform="translate(363.818359 0)"/>
     <use xlink:href="#DejaVuSans-42" transform="translate(395.605469 0)"/>
    </g>
   </g>
   <g id="patch_8">
    <path d="M 981.386818 892.346529 
Q 930.272756 811.091659 878.563379 728.890429 
" style="fill: none; stroke: #000000; stroke-linecap: round"/>
    <path d="M 980.648574 884.827117 
L 981.386818 892.346529 
L 974.928342 888.425477 
" style="fill: none; stroke: #000000; stroke-linecap: round"/>
   </g>
   <g id="text_4">
    <g id="patch_9">
     <path d="M 877.624863 1001.965185 
L 1156.375137 1001.965185 
L 1156.375137 895.48493 
L 877.624863 895.48493 
z
" style="fill: #e9f4fc; stroke: #000000; stroke-linejoin: miter"/>
    </g>
    <!-- fractal_dimension_se &lt;= 16.16 -->
    <g transform="translate(884.382765 915.550092) scale(0.168948 -0.168948)">
     <defs>
      <path id="DejaVuSans-66" d="M 2375 4863 
L 2375 4384 
L 1825 4384 
Q 1516 4384 1395 4259 
Q 1275 4134 1275 3809 
L 1275 3500 
L 2222 3500 
L 2222 3053 
L 1275 3053 
L 1275 0 
L 697 0 
L 697 3053 
L 147 3053 
L 147 3500 
L 697 3500 
L 697 3744 
Q 697 4328 969 4595 
Q 1241 4863 1831 4863 
L 2375 4863 
z
" transform="scale(0.015625)"/>
      <path id="DejaVuSans-72" d="M 2631 2963 
Q 2534 3019 2420 3045 
Q 2306 3072 2169 3072 
Q 1681 3072 1420 2755 
Q 1159 2438 1159 1844 
L 1159 0 
L 581 0 
L 581 3500 
L 1159 3500 
L 1159 2956 
Q 1341 3275 1631 3429 
Q 1922 3584 2338 3584 
Q 2397 3584 2469 3576 
Q 2541 3569 2628 3553 
L 2631 2963 
z
" transform="scale(0.015625)"/>
      <path id="DejaVuSans-74" d="M 1172 4494 
L 1172 3500 
L 2356 3500 
L 2356 3053 
L 1172 3053 
L 1172 1153 
Q 1172 725 1289 603 
Q 1406 481 1766 481 
L 2356 481 
L 2356 0 
L 1766 0 
Q 1100 0 847 248 
Q 594 497 594 1153 
L 594 3053 
L 172 3053 
L 172 3500 
L 594 3500 
L 594 4494 
L 1172 4494 
z
" transform="scale(0.015625)"/>
      <path id="DejaVuSans-5f" d="M 3263 -1063 
L 3263 -1509 
L -63 -1509 
L -63 -1063 
L 3263 -1063 
z
" transform="scale(0.015625)"/>
      <path id="DejaVuSans-64" d="M 2906 2969 
L 2906 4863 
L 3481 4863 
L 3481 0 
L 2906 0 
L 2906 525 
Q 2725 213 2448 61 
Q 2172 -91 1784 -91 
Q 1150 -91 751 415 
Q 353 922 353 1747 
Q 353 2572 751 3078 
Q 1150 3584 1784 3584 
Q 2172 3584 2448 3432 
Q 2725 3281 2906 2969 
z
M 947 1747 
Q 947 1113 1208 752 
Q 1469 391 1925 391 
Q 2381 391 2643 752 
Q 2906 1113 2906 1747 
Q 2906 2381 2643 2742 
Q 2381 3103 1925 3103 
Q 1469 3103 1208 2742 
Q 947 2381 947 1747 
z
" transform="scale(0.015625)"/>
      <path id="DejaVuSans-6f" d="M 1959 3097 
Q 1497 3097 1228 2736 
Q 959 2375 959 1747 
Q 959 1119 1226 758 
Q 1494 397 1959 397 
Q 2419 397 2687 759 
Q 2956 1122 2956 1747 
Q 2956 2369 2687 2733 
Q 2419 3097 1959 3097 
z
M 1959 3584 
Q 2709 3584 3137 3096 
Q 3566 2609 3566 1747 
Q 3566 888 3137 398 
Q 2709 -91 1959 -91 
Q 1206 -91 779 398 
Q 353 888 353 1747 
Q 353 2609 779 3096 
Q 1206 3584 1959 3584 
z
" transform="scale(0.015625)"/>
      <path id="DejaVuSans-3c" d="M 4684 3150 
L 1459 2003 
L 4684 863 
L 4684 294 
L 678 1747 
L 678 2266 
L 4684 3719 
L 4684 3150 
z
" transform="scale(0.015625)"/>
     </defs>
     <use xlink:href="#DejaVuSans-66"/>
     <use xlink:href="#DejaVuSans-72" transform="translate(35.205078 0)"/>
     <use xlink:href="#DejaVuSans-61" transform="translate(76.318359 0)"/>
     <use xlink:href="#DejaVuSans-63" transform="translate(137.597656 0)"/>
     <use xlink:href="#DejaVuSans-74" transform="translate(192.578125 0)"/>
     <use xlink:href="#DejaVuSans-61" transform="translate(231.787109 0)"/>
     <use xlink:href="#DejaVuSans-6c" transform="translate(293.066406 0)"/>
     <use xlink:href="#DejaVuSans-5f" transform="translate(320.849609 0)"/>
     <use xlink:href="#DejaVuSans-64" transform="translate(370.849609 0)"/>
     <use xlink:href="#DejaVuSans-69" transform="translate(434.326172 0)"/>
     <use xlink:href="#DejaVuSans-6d" transform="translate(462.109375 0)"/>
     <use xlink:href="#DejaVuSans-65" transform="translate(559.521484 0)"/>
     <use xlink:href="#DejaVuSans-6e" transform="translate(621.044922 0)"/>
     <use xlink:href="#DejaVuSans-73" transform="translate(684.423828 0)"/>
     <use xlink:href="#DejaVuSans-69" transform="translate(736.523438 0)"/>
     <use xlink:href="#DejaVuSans-6f" transform="translate(764.306641 0)"/>
     <use xlink:href="#DejaVuSans-6e" transform="translate(825.488281 0)"/>
     <use xlink:href="#DejaVuSans-5f" transform="translate(888.867188 0)"/>
     <use xlink:href="#DejaVuSans-73" transform="translate(938.867188 0)"/>
     <use xlink:href="#DejaVuSans-65" transform="translate(990.966797 0)"/>
     <use xlink:href="#DejaVuSans-20" transform="translate(1052.490234 0)"/>
     <use xlink:href="#DejaVuSans-3c" transform="translate(1084.277344 0)"/>
     <use xlink:href="#DejaVuSans-3d" transform="translate(1168.066406 0)"/>
     <use xlink:href="#DejaVuSans-20" transform="translate(1251.855469 0)"/>
     <use xlink:href="#DejaVuSans-31" transform="translate(1283.642578 0)"/>
     <use xlink:href="#DejaVuSans-36" transform="translate(1347.265625 0)"/>
     <use xlink:href="#DejaVuSans-2e" transform="translate(1410.888672 0)"/>
     <use xlink:href="#DejaVuSans-31" transform="translate(1442.675781 0)"/>
     <use xlink:href="#DejaVuSans-36" transform="translate(1506.298828 0)"/>
    </g>
    <!-- gini = 0.498 -->
    <g transform="translate(964.958872 934.938408) scale(0.168948 -0.168948)">
     <defs>
      <path id="DejaVuSans-34" d="M 2419 4116 
L 825 1625 
L 2419 1625 
L 2419 4116 
z
M 2253 4666 
L 3047 4666 
L 3047 1625 
L 3713 1625 
L 3713 1100 
L 3047 1100 
L 3047 0 
L 2419 0 
L 2419 1100 
L 313 1100 
L 313 1709 
L 2253 4666 
z
" transform="scale(0.015625)"/>
     </defs>
     <use xlink:href="#DejaVuSans-67"/>
     <use xlink:href="#DejaVuSans-69" transform="translate(63.476562 0)"/>
     <use xlink:href="#DejaVuSans-6e" transform="translate(91.259766 0)"/>
     <use xlink:href="#DejaVuSans-69" transform="translate(154.638672 0)"/>
     <use xlink:href="#DejaVuSans-20" transform="translate(182.421875 0)"/>
     <use xlink:href="#DejaVuSans-3d" transform="translate(214.208984 0)"/>
     <use xlink:href="#DejaVuSans-20" transform="translate(297.998047 0)"/>
     <use xlink:href="#DejaVuSans-30" transform="translate(329.785156 0)"/>
     <use xlink:href="#DejaVuSans-2e" transform="translate(393.408203 0)"/>
     <use xlink:href="#DejaVuSans-34" transform="translate(425.195312 0)"/>
     <use xlink:href="#DejaVuSans-39" transform="translate(488.818359 0)"/>
     <use xlink:href="#DejaVuSans-38" transform="translate(552.441406 0)"/>
    </g>
    <!-- samples = 10 -->
    <g transform="translate(958.689334 953.856839) scale(0.168948 -0.168948)">
     <use xlink:href="#DejaVuSans-73"/>
     <use xlink:href="#DejaVuSans-61" transform="translate(52.099609 0)"/>
     <use xlink:href="#DejaVuSans-6d" transform="translate(113.378906 0)"/>
     <use xlink:href="#DejaVuSans-70" transform="translate(210.791016 0)"/>
     <use xlink:href="#DejaVuSans-6c" transform="translate(274.267578 0)"/>
     <use xlink:href="#DejaVuSans-65" transform="translate(302.050781 0)"/>
     <use xlink:href="#DejaVuSans-73" transform="translate(363.574219 0)"/>
     <use xlink:href="#DejaVuSans-20" transform="translate(415.673828 0)"/>
     <use xlink:href="#DejaVuSans-3d" transform="translate(447.460938 0)"/>
     <use xlink:href="#DejaVuSans-20" transform="translate(531.25 0)"/>
     <use xlink:href="#DejaVuSans-31" transform="translate(563.037109 0)"/>
     <use xlink:href="#DejaVuSans-30" transform="translate(626.660156 0)"/>
    </g>
    <!-- value = [8, 9] -->
    <g transform="translate(958.767208 972.77527) scale(0.168948 -0.168948)">
     <use xlink:href="#DejaVuSans-76"/>
     <use xlink:href="#DejaVuSans-61" transform="translate(59.179688 0)"/>
     <use xlink:href="#DejaVuSans-6c" transform="translate(120.458984 0)"/>
     <use xlink:href="#DejaVuSans-75" transform="translate(148.242188 0)"/>
     <use xlink:href="#DejaVuSans-65" transform="translate(211.621094 0)"/>
     <use xlink:href="#DejaVuSans-20" transform="translate(273.144531 0)"/>
     <use xlink:href="#DejaVuSans-3d" transform="translate(304.931641 0)"/>
     <use xlink:href="#DejaVuSans-20" transform="translate(388.720703 0)"/>
     <use xlink:href="#DejaVuSans-5b" transform="translate(420.507812 0)"/>
     <use xlink:href="#DejaVuSans-38" transform="translate(459.521484 0)"/>
     <use xlink:href="#DejaVuSans-2c" transform="translate(523.144531 0)"/>
     <use xlink:href="#DejaVuSans-20" transform="translate(554.931641 0)"/>
     <use xlink:href="#DejaVuSans-39" transform="translate(586.71875 0)"/>
     <use xlink:href="#DejaVuSans-5d" transform="translate(650.341797 0)"/>
    </g>
    <!-- class = M -->
    <g transform="translate(976.294197 991.693701) scale(0.168948 -0.168948)">
     <use xlink:href="#DejaVuSans-63"/>
     <use xlink:href="#DejaVuSans-6c" transform="translate(54.980469 0)"/>
     <use xlink:href="#DejaVuSans-61" transform="translate(82.763672 0)"/>
     <use xlink:href="#DejaVuSans-73" transform="translate(144.042969 0)"/>
     <use xlink:href="#DejaVuSans-73" transform="translate(196.142578 0)"/>
     <use xlink:href="#DejaVuSans-20" transform="translate(248.242188 0)"/>
     <use xlink:href="#DejaVuSans-3d" transform="translate(280.029297 0)"/>
     <use xlink:href="#DejaVuSans-20" transform="translate(363.818359 0)"/>
     <use xlink:href="#DejaVuSans-4d" transform="translate(395.605469 0)"/>
    </g>
   </g>
   <g id="patch_10">
    <path d="M 348.718451 680.752089 
Q 403.029481 594.415069 457.935828 507.13169 
" style="fill: none; stroke: #000000; stroke-linecap: round"/>
    <path d="M 355.176927 676.831037 
L 348.718451 680.752089 
L 349.456695 673.232677 
" style="fill: none; stroke: #000000; stroke-linecap: round"/>
   </g>
   <g id="text_5">
    <g id="patch_11">
     <path d="M 249.134661 770.511027 
L 389.865339 770.511027 
L 389.865339 683.888973 
L 249.134661 683.888973 
z
" style="fill: #e58139; stroke: #000000; stroke-linejoin: miter"/>
    </g>
    <!-- gini = 0.0 -->
    <g transform="translate(278.208161 703.48425) scale(0.168948 -0.168948)">
     <use xlink:href="#DejaVuSans-67"/>
     <use xlink:href="#DejaVuSans-69" transform="translate(63.476562 0)"/>
     <use xlink:href="#DejaVuSans-6e" transform="translate(91.259766 0)"/>
     <use xlink:href="#DejaVuSans-69" transform="translate(154.638672 0)"/>
     <use xlink:href="#DejaVuSans-20" transform="translate(182.421875 0)"/>
     <use xlink:href="#DejaVuSans-3d" transform="translate(214.208984 0)"/>
     <use xlink:href="#DejaVuSans-20" transform="translate(297.998047 0)"/>
     <use xlink:href="#DejaVuSans-30" transform="translate(329.785156 0)"/>
     <use xlink:href="#DejaVuSans-2e" transform="translate(393.408203 0)"/>
     <use xlink:href="#DejaVuSans-30" transform="translate(425.195312 0)"/>
    </g>
    <!-- samples = 25 -->
    <g transform="translate(261.189334 722.402681) scale(0.168948 -0.168948)">
     <defs>
      <path id="DejaVuSans-32" d="M 1228 531 
L 3431 531 
L 3431 0 
L 469 0 
L 469 531 
Q 828 903 1448 1529 
Q 2069 2156 2228 2338 
Q 2531 2678 2651 2914 
Q 2772 3150 2772 3378 
Q 2772 3750 2511 3984 
Q 2250 4219 1831 4219 
Q 1534 4219 1204 4116 
Q 875 4013 500 3803 
L 500 4441 
Q 881 4594 1212 4672 
Q 1544 4750 1819 4750 
Q 2544 4750 2975 4387 
Q 3406 4025 3406 3419 
Q 3406 3131 3298 2873 
Q 3191 2616 2906 2266 
Q 2828 2175 2409 1742 
Q 1991 1309 1228 531 
z
" transform="scale(0.015625)"/>
      <path id="DejaVuSans-35" d="M 691 4666 
L 3169 4666 
L 3169 4134 
L 1269 4134 
L 1269 2991 
Q 1406 3038 1543 3061 
Q 1681 3084 1819 3084 
Q 2600 3084 3056 2656 
Q 3513 2228 3513 1497 
Q 3513 744 3044 326 
Q 2575 -91 1722 -91 
Q 1428 -91 1123 -41 
Q 819 9 494 109 
L 494 744 
Q 775 591 1075 516 
Q 1375 441 1709 441 
Q 2250 441 2565 725 
Q 2881 1009 2881 1497 
Q 2881 1984 2565 2268 
Q 2250 2553 1709 2553 
Q 1456 2553 1204 2497 
Q 953 2441 691 2322 
L 691 4666 
z
" transform="scale(0.015625)"/>
     </defs>
     <use xlink:href="#DejaVuSans-73"/>
     <use xlink:href="#DejaVuSans-61" transform="translate(52.099609 0)"/>
     <use xlink:href="#DejaVuSans-6d" transform="translate(113.378906 0)"/>
     <use xlink:href="#DejaVuSans-70" transform="translate(210.791016 0)"/>
     <use xlink:href="#DejaVuSans-6c" transform="translate(274.267578 0)"/>
     <use xlink:href="#DejaVuSans-65" transform="translate(302.050781 0)"/>
     <use xlink:href="#DejaVuSans-73" transform="translate(363.574219 0)"/>
     <use xlink:href="#DejaVuSans-20" transform="translate(415.673828 0)"/>
     <use xlink:href="#DejaVuSans-3d" transform="translate(447.460938 0)"/>
     <use xlink:href="#DejaVuSans-20" transform="translate(531.25 0)"/>
     <use xlink:href="#DejaVuSans-32" transform="translate(563.037109 0)"/>
     <use xlink:href="#DejaVuSans-35" transform="translate(626.660156 0)"/>
    </g>
    <!-- value = [42, 0] -->
    <g transform="translate(255.892564 741.321112) scale(0.168948 -0.168948)">
     <use xlink:href="#DejaVuSans-76"/>
     <use xlink:href="#DejaVuSans-61" transform="translate(59.179688 0)"/>
     <use xlink:href="#DejaVuSans-6c" transform="translate(120.458984 0)"/>
     <use xlink:href="#DejaVuSans-75" transform="translate(148.242188 0)"/>
     <use xlink:href="#DejaVuSans-65" transform="translate(211.621094 0)"/>
     <use xlink:href="#DejaVuSans-20" transform="translate(273.144531 0)"/>
     <use xlink:href="#DejaVuSans-3d" transform="translate(304.931641 0)"/>
     <use xlink:href="#DejaVuSans-20" transform="translate(388.720703 0)"/>
     <use xlink:href="#DejaVuSans-5b" transform="translate(420.507812 0)"/>
     <use xlink:href="#DejaVuSans-34" transform="translate(459.521484 0)"/>
     <use xlink:href="#DejaVuSans-32" transform="translate(523.144531 0)"/>
     <use xlink:href="#DejaVuSans-2c" transform="translate(586.767578 0)"/>
     <use xlink:href="#DejaVuSans-20" transform="translate(618.554688 0)"/>
     <use xlink:href="#DejaVuSans-30" transform="translate(650.341797 0)"/>
     <use xlink:href="#DejaVuSans-5d" transform="translate(713.964844 0)"/>
    </g>
    <!-- class = B -->
    <g transform="translate(280.287007 760.239543) scale(0.168948 -0.168948)">
     <use xlink:href="#DejaVuSans-63"/>
     <use xlink:href="#DejaVuSans-6c" transform="translate(54.980469 0)"/>
     <use xlink:href="#DejaVuSans-61" transform="translate(82.763672 0)"/>
     <use xlink:href="#DejaVuSans-73" transform="translate(144.042969 0)"/>
     <use xlink:href="#DejaVuSans-73" transform="translate(196.142578 0)"/>
     <use xlink:href="#DejaVuSans-20" transform="translate(248.242188 0)"/>
     <use xlink:href="#DejaVuSans-3d" transform="translate(280.029297 0)"/>
     <use xlink:href="#DejaVuSans-20" transform="translate(363.818359 0)"/>
     <use xlink:href="#DejaVuSans-42" transform="translate(395.605469 0)"/>
    </g>
   </g>
   <g id="patch_12">
    <path d="M 569.281549 680.752089 
Q 514.970519 594.415069 460.064172 507.13169 
" style="fill: none; stroke: #000000; stroke-linecap: round"/>
    <path d="M 568.543305 673.232677 
L 569.281549 680.752089 
L 562.823073 676.831037 
" style="fill: none; stroke: #000000; stroke-linecap: round"/>
   </g>
   <g id="text_6">
    <g id="patch_13">
     <path d="M 533.509306 770.511027 
L 663.490694 770.511027 
L 663.490694 683.888973 
L 533.509306 683.888973 
z
" style="fill: #399de5; stroke: #000000; stroke-linejoin: miter"/>
    </g>
    <!-- gini = 0.0 -->
    <g transform="translate(557.208161 703.48425) scale(0.168948 -0.168948)">
     <use xlink:href="#DejaVuSans-67"/>
     <use xlink:href="#DejaVuSans-69" transform="translate(63.476562 0)"/>
     <use xlink:href="#DejaVuSans-6e" transform="translate(91.259766 0)"/>
     <use xlink:href="#DejaVuSans-69" transform="translate(154.638672 0)"/>
     <use xlink:href="#DejaVuSans-20" transform="translate(182.421875 0)"/>
     <use xlink:href="#DejaVuSans-3d" transform="translate(214.208984 0)"/>
     <use xlink:href="#DejaVuSans-20" transform="translate(297.998047 0)"/>
     <use xlink:href="#DejaVuSans-30" transform="translate(329.785156 0)"/>
     <use xlink:href="#DejaVuSans-2e" transform="translate(393.408203 0)"/>
     <use xlink:href="#DejaVuSans-30" transform="translate(425.195312 0)"/>
    </g>
    <!-- samples = 3 -->
    <g transform="translate(545.563978 722.402681) scale(0.168948 -0.168948)">
     <use xlink:href="#DejaVuSans-73"/>
     <use xlink:href="#DejaVuSans-61" transform="translate(52.099609 0)"/>
     <use xlink:href="#DejaVuSans-6d" transform="translate(113.378906 0)"/>
     <use xlink:href="#DejaVuSans-70" transform="translate(210.791016 0)"/>
     <use xlink:href="#DejaVuSans-6c" transform="translate(274.267578 0)"/>
     <use xlink:href="#DejaVuSans-65" transform="translate(302.050781 0)"/>
     <use xlink:href="#DejaVuSans-73" transform="translate(363.574219 0)"/>
     <use xlink:href="#DejaVuSans-20" transform="translate(415.673828 0)"/>
     <use xlink:href="#DejaVuSans-3d" transform="translate(447.460938 0)"/>
     <use xlink:href="#DejaVuSans-20" transform="translate(531.25 0)"/>
     <use xlink:href="#DejaVuSans-33" transform="translate(563.037109 0)"/>
    </g>
    <!-- value = [0, 3] -->
    <g transform="translate(540.267208 741.321112) scale(0.168948 -0.168948)">
     <use xlink:href="#DejaVuSans-76"/>
     <use xlink:href="#DejaVuSans-61" transform="translate(59.179688 0)"/>
     <use xlink:href="#DejaVuSans-6c" transform="translate(120.458984 0)"/>
     <use xlink:href="#DejaVuSans-75" transform="translate(148.242188 0)"/>
     <use xlink:href="#DejaVuSans-65" transform="translate(211.621094 0)"/>
     <use xlink:href="#DejaVuSans-20" transform="translate(273.144531 0)"/>
     <use xlink:href="#DejaVuSans-3d" transform="translate(304.931641 0)"/>
     <use xlink:href="#DejaVuSans-20" transform="translate(388.720703 0)"/>
     <use xlink:href="#DejaVuSans-5b" transform="translate(420.507812 0)"/>
     <use xlink:href="#DejaVuSans-30" transform="translate(459.521484 0)"/>
     <use xlink:href="#DejaVuSans-2c" transform="translate(523.144531 0)"/>
     <use xlink:href="#DejaVuSans-20" transform="translate(554.931641 0)"/>
     <use xlink:href="#DejaVuSans-33" transform="translate(586.71875 0)"/>
     <use xlink:href="#DejaVuSans-5d" transform="translate(650.341797 0)"/>
    </g>
    <!-- class = M -->
    <g transform="translate(557.794197 760.239543) scale(0.168948 -0.168948)">
     <use xlink:href="#DejaVuSans-63"/>
     <use xlink:href="#DejaVuSans-6c" transform="translate(54.980469 0)"/>
     <use xlink:href="#DejaVuSans-61" transform="translate(82.763672 0)"/>
     <use xlink:href="#DejaVuSans-73" transform="translate(144.042969 0)"/>
     <use xlink:href="#DejaVuSans-73" transform="translate(196.142578 0)"/>
     <use xlink:href="#DejaVuSans-20" transform="translate(248.242188 0)"/>
     <use xlink:href="#DejaVuSans-3d" transform="translate(280.029297 0)"/>
     <use xlink:href="#DejaVuSans-20" transform="translate(363.818359 0)"/>
     <use xlink:href="#DejaVuSans-4d" transform="translate(395.605469 0)"/>
    </g>
   </g>
   <g id="patch_14">
    <path d="M 913.113182 670.586529 
Q 964.227244 589.331659 1015.936621 507.130429 
" style="fill: none; stroke: #000000; stroke-linecap: round"/>
    <path d="M 919.571658 666.665477 
L 913.113182 670.586529 
L 913.851426 663.067117 
" style="fill: none; stroke: #000000; stroke-linecap: round"/>
   </g>
   <g id="text_7">
    <g id="patch_15">
     <path d="M 758.205864 780.205185 
L 996.794136 780.205185 
L 996.794136 673.72493 
L 758.205864 673.72493 
z
" style="fill: #f0b78e; stroke: #000000; stroke-linejoin: miter"/>
    </g>
    <!-- concavity_mean &lt;= 0.049 -->
    <g transform="translate(764.963767 693.790092) scale(0.168948 -0.168948)">
     <defs>
      <path id="DejaVuSans-79" d="M 2059 -325 
Q 1816 -950 1584 -1140 
Q 1353 -1331 966 -1331 
L 506 -1331 
L 506 -850 
L 844 -850 
Q 1081 -850 1212 -737 
Q 1344 -625 1503 -206 
L 1606 56 
L 191 3500 
L 800 3500 
L 1894 763 
L 2988 3500 
L 3597 3500 
L 2059 -325 
z
" transform="scale(0.015625)"/>
     </defs>
     <use xlink:href="#DejaVuSans-63"/>
     <use xlink:href="#DejaVuSans-6f" transform="translate(54.980469 0)"/>
     <use xlink:href="#DejaVuSans-6e" transform="translate(116.162109 0)"/>
     <use xlink:href="#DejaVuSans-63" transform="translate(179.541016 0)"/>
     <use xlink:href="#DejaVuSans-61" transform="translate(234.521484 0)"/>
     <use xlink:href="#DejaVuSans-76" transform="translate(295.800781 0)"/>
     <use xlink:href="#DejaVuSans-69" transform="translate(354.980469 0)"/>
     <use xlink:href="#DejaVuSans-74" transform="translate(382.763672 0)"/>
     <use xlink:href="#DejaVuSans-79" transform="translate(421.972656 0)"/>
     <use xlink:href="#DejaVuSans-5f" transform="translate(481.152344 0)"/>
     <use xlink:href="#DejaVuSans-6d" transform="translate(531.152344 0)"/>
     <use xlink:href="#DejaVuSans-65" transform="translate(628.564453 0)"/>
     <use xlink:href="#DejaVuSans-61" transform="translate(690.087891 0)"/>
     <use xlink:href="#DejaVuSans-6e" transform="translate(751.367188 0)"/>
     <use xlink:href="#DejaVuSans-20" transform="translate(814.746094 0)"/>
     <use xlink:href="#DejaVuSans-3c" transform="translate(846.533203 0)"/>
     <use xlink:href="#DejaVuSans-3d" transform="translate(930.322266 0)"/>
     <use xlink:href="#DejaVuSans-20" transform="translate(1014.111328 0)"/>
     <use xlink:href="#DejaVuSans-30" transform="translate(1045.898438 0)"/>
     <use xlink:href="#DejaVuSans-2e" transform="translate(1109.521484 0)"/>
     <use xlink:href="#DejaVuSans-30" transform="translate(1141.308594 0)"/>
     <use xlink:href="#DejaVuSans-34" transform="translate(1204.931641 0)"/>
     <use xlink:href="#DejaVuSans-39" transform="translate(1268.554688 0)"/>
    </g>
    <!-- gini = 0.42 -->
    <g transform="translate(830.833516 713.178408) scale(0.168948 -0.168948)">
     <use xlink:href="#DejaVuSans-67"/>
     <use xlink:href="#DejaVuSans-69" transform="translate(63.476562 0)"/>
     <use xlink:href="#DejaVuSans-6e" transform="translate(91.259766 0)"/>
     <use xlink:href="#DejaVuSans-69" transform="translate(154.638672 0)"/>
     <use xlink:href="#DejaVuSans-20" transform="translate(182.421875 0)"/>
     <use xlink:href="#DejaVuSans-3d" transform="translate(214.208984 0)"/>
     <use xlink:href="#DejaVuSans-20" transform="translate(297.998047 0)"/>
     <use xlink:href="#DejaVuSans-30" transform="translate(329.785156 0)"/>
     <use xlink:href="#DejaVuSans-2e" transform="translate(393.408203 0)"/>
     <use xlink:href="#DejaVuSans-34" transform="translate(425.195312 0)"/>
     <use xlink:href="#DejaVuSans-32" transform="translate(488.818359 0)"/>
    </g>
    <!-- samples = 20 -->
    <g transform="translate(819.189334 732.096839) scale(0.168948 -0.168948)">
     <use xlink:href="#DejaVuSans-73"/>
     <use xlink:href="#DejaVuSans-61" transform="translate(52.099609 0)"/>
     <use xlink:href="#DejaVuSans-6d" transform="translate(113.378906 0)"/>
     <use xlink:href="#DejaVuSans-70" transform="translate(210.791016 0)"/>
     <use xlink:href="#DejaVuSans-6c" transform="translate(274.267578 0)"/>
     <use xlink:href="#DejaVuSans-65" transform="translate(302.050781 0)"/>
     <use xlink:href="#DejaVuSans-73" transform="translate(363.574219 0)"/>
     <use xlink:href="#DejaVuSans-20" transform="translate(415.673828 0)"/>
     <use xlink:href="#DejaVuSans-3d" transform="translate(447.460938 0)"/>
     <use xlink:href="#DejaVuSans-20" transform="translate(531.25 0)"/>
     <use xlink:href="#DejaVuSans-32" transform="translate(563.037109 0)"/>
     <use xlink:href="#DejaVuSans-30" transform="translate(626.660156 0)"/>
    </g>
    <!-- value = [21, 9] -->
    <g transform="translate(813.892564 751.01527) scale(0.168948 -0.168948)">
     <use xlink:href="#DejaVuSans-76"/>
     <use xlink:href="#DejaVuSans-61" transform="translate(59.179688 0)"/>
     <use xlink:href="#DejaVuSans-6c" transform="translate(120.458984 0)"/>
     <use xlink:href="#DejaVuSans-75" transform="translate(148.242188 0)"/>
     <use xlink:href="#DejaVuSans-65" transform="translate(211.621094 0)"/>
     <use xlink:href="#DejaVuSans-20" transform="translate(273.144531 0)"/>
     <use xlink:href="#DejaVuSans-3d" transform="translate(304.931641 0)"/>
     <use xlink:href="#DejaVuSans-20" transform="translate(388.720703 0)"/>
     <use xlink:href="#DejaVuSans-5b" transform="translate(420.507812 0)"/>
     <use xlink:href="#DejaVuSans-32" transform="translate(459.521484 0)"/>
     <use xlink:href="#DejaVuSans-31" transform="translate(523.144531 0)"/>
     <use xlink:href="#DejaVuSans-2c" transform="translate(586.767578 0)"/>
     <use xlink:href="#DejaVuSans-20" transform="translate(618.554688 0)"/>
     <use xlink:href="#DejaVuSans-39" transform="translate(650.341797 0)"/>
     <use xlink:href="#DejaVuSans-5d" transform="translate(713.964844 0)"/>
    </g>
    <!-- class = B -->
    <g transform="translate(838.287007 769.933701) scale(0.168948 -0.168948)">
     <use xlink:href="#DejaVuSans-63"/>
     <use xlink:href="#DejaVuSans-6c" transform="translate(54.980469 0)"/>
     <use xlink:href="#DejaVuSans-61" transform="translate(82.763672 0)"/>
     <use xlink:href="#DejaVuSans-73" transform="translate(144.042969 0)"/>
     <use xlink:href="#DejaVuSans-73" transform="translate(196.142578 0)"/>
     <use xlink:href="#DejaVuSans-20" transform="translate(248.242188 0)"/>
     <use xlink:href="#DejaVuSans-3d" transform="translate(280.029297 0)"/>
     <use xlink:href="#DejaVuSans-20" transform="translate(363.818359 0)"/>
     <use xlink:href="#DejaVuSans-42" transform="translate(395.605469 0)"/>
    </g>
   </g>
   <g id="patch_16">
    <path d="M 1127.281549 680.752089 
Q 1072.970519 594.415069 1018.064172 507.13169 
" style="fill: none; stroke: #000000; stroke-linecap: round"/>
    <path d="M 1126.543305 673.232677 
L 1127.281549 680.752089 
L 1120.823073 676.831037 
" style="fill: none; stroke: #000000; stroke-linecap: round"/>
   </g>
   <g id="text_8">
    <g id="patch_17">
     <path d="M 1086.134661 770.511027 
L 1226.865339 770.511027 
L 1226.865339 683.888973 
L 1086.134661 683.888973 
z
" style="fill: #399de5; stroke: #000000; stroke-linejoin: miter"/>
    </g>
    <!-- gini = 0.0 -->
    <g transform="translate(1115.208161 703.48425) scale(0.168948 -0.168948)">
     <use xlink:href="#DejaVuSans-67"/>
     <use xlink:href="#DejaVuSans-69" transform="translate(63.476562 0)"/>
     <use xlink:href="#DejaVuSans-6e" transform="translate(91.259766 0)"/>
     <use xlink:href="#DejaVuSans-69" transform="translate(154.638672 0)"/>
     <use xlink:href="#DejaVuSans-20" transform="translate(182.421875 0)"/>
     <use xlink:href="#DejaVuSans-3d" transform="translate(214.208984 0)"/>
     <use xlink:href="#DejaVuSans-20" transform="translate(297.998047 0)"/>
     <use xlink:href="#DejaVuSans-30" transform="translate(329.785156 0)"/>
     <use xlink:href="#DejaVuSans-2e" transform="translate(393.408203 0)"/>
     <use xlink:href="#DejaVuSans-30" transform="translate(425.195312 0)"/>
    </g>
    <!-- samples = 11 -->
    <g transform="translate(1098.189334 722.402681) scale(0.168948 -0.168948)">
     <use xlink:href="#DejaVuSans-73"/>
     <use xlink:href="#DejaVuSans-61" transform="translate(52.099609 0)"/>
     <use xlink:href="#DejaVuSans-6d" transform="translate(113.378906 0)"/>
     <use xlink:href="#DejaVuSans-70" transform="translate(210.791016 0)"/>
     <use xlink:href="#DejaVuSans-6c" transform="translate(274.267578 0)"/>
     <use xlink:href="#DejaVuSans-65" transform="translate(302.050781 0)"/>
     <use xlink:href="#DejaVuSans-73" transform="translate(363.574219 0)"/>
     <use xlink:href="#DejaVuSans-20" transform="translate(415.673828 0)"/>
     <use xlink:href="#DejaVuSans-3d" transform="translate(447.460938 0)"/>
     <use xlink:href="#DejaVuSans-20" transform="translate(531.25 0)"/>
     <use xlink:href="#DejaVuSans-31" transform="translate(563.037109 0)"/>
     <use xlink:href="#DejaVuSans-31" transform="translate(626.660156 0)"/>
    </g>
    <!-- value = [0, 17] -->
    <g transform="translate(1092.892564 741.321112) scale(0.168948 -0.168948)">
     <use xlink:href="#DejaVuSans-76"/>
     <use xlink:href="#DejaVuSans-61" transform="translate(59.179688 0)"/>
     <use xlink:href="#DejaVuSans-6c" transform="translate(120.458984 0)"/>
     <use xlink:href="#DejaVuSans-75" transform="translate(148.242188 0)"/>
     <use xlink:href="#DejaVuSans-65" transform="translate(211.621094 0)"/>
     <use xlink:href="#DejaVuSans-20" transform="translate(273.144531 0)"/>
     <use xlink:href="#DejaVuSans-3d" transform="translate(304.931641 0)"/>
     <use xlink:href="#DejaVuSans-20" transform="translate(388.720703 0)"/>
     <use xlink:href="#DejaVuSans-5b" transform="translate(420.507812 0)"/>
     <use xlink:href="#DejaVuSans-30" transform="translate(459.521484 0)"/>
     <use xlink:href="#DejaVuSans-2c" transform="translate(523.144531 0)"/>
     <use xlink:href="#DejaVuSans-20" transform="translate(554.931641 0)"/>
     <use xlink:href="#DejaVuSans-31" transform="translate(586.71875 0)"/>
     <use xlink:href="#DejaVuSans-37" transform="translate(650.341797 0)"/>
     <use xlink:href="#DejaVuSans-5d" transform="translate(713.964844 0)"/>
    </g>
    <!-- class = M -->
    <g transform="translate(1115.794197 760.239543) scale(0.168948 -0.168948)">
     <use xlink:href="#DejaVuSans-63"/>
     <use xlink:href="#DejaVuSans-6c" transform="translate(54.980469 0)"/>
     <use xlink:href="#DejaVuSans-61" transform="translate(82.763672 0)"/>
     <use xlink:href="#DejaVuSans-73" transform="translate(144.042969 0)"/>
     <use xlink:href="#DejaVuSans-73" transform="translate(196.142578 0)"/>
     <use xlink:href="#DejaVuSans-20" transform="translate(248.242188 0)"/>
     <use xlink:href="#DejaVuSans-3d" transform="translate(280.029297 0)"/>
     <use xlink:href="#DejaVuSans-20" transform="translate(363.818359 0)"/>
     <use xlink:href="#DejaVuSans-4d" transform="translate(395.605469 0)"/>
    </g>
   </g>
   <g id="patch_18">
    <path d="M 529.352623 449.521012 
Q 632.457011 367.569653 736.436637 284.922621 
" style="fill: none; stroke: #000000; stroke-linecap: round"/>
    <path d="M 536.74543 447.961219 
L 529.352623 449.521012 
L 532.540472 442.67089 
" style="fill: none; stroke: #000000; stroke-linecap: round"/>
   </g>
   <g id="text_9">
    <g id="patch_19">
     <path d="M 339.705864 558.445185 
L 578.294136 558.445185 
L 578.294136 451.96493 
L 339.705864 451.96493 
z
" style="fill: #e78a47; stroke: #000000; stroke-linejoin: miter"/>
    </g>
    <!-- concavity_mean &lt;= 0.044 -->
    <g transform="translate(346.463767 472.030092) scale(0.168948 -0.168948)">
     <use xlink:href="#DejaVuSans-63"/>
     <use xlink:href="#DejaVuSans-6f" transform="translate(54.980469 0)"/>
     <use xlink:href="#DejaVuSans-6e" transform="translate(116.162109 0)"/>
     <use xlink:href="#DejaVuSans-63" transform="translate(179.541016 0)"/>
     <use xlink:href="#DejaVuSans-61" transform="translate(234.521484 0)"/>
     <use xlink:href="#DejaVuSans-76" transform="translate(295.800781 0)"/>
     <use xlink:href="#DejaVuSans-69" transform="translate(354.980469 0)"/>
     <use xlink:href="#DejaVuSans-74" transform="translate(382.763672 0)"/>
     <use xlink:href="#DejaVuSans-79" transform="translate(421.972656 0)"/>
     <use xlink:href="#DejaVuSans-5f" transform="translate(481.152344 0)"/>
     <use xlink:href="#DejaVuSans-6d" transform="translate(531.152344 0)"/>
     <use xlink:href="#DejaVuSans-65" transform="translate(628.564453 0)"/>
     <use xlink:href="#DejaVuSans-61" transform="translate(690.087891 0)"/>
     <use xlink:href="#DejaVuSans-6e" transform="translate(751.367188 0)"/>
     <use xlink:href="#DejaVuSans-20" transform="translate(814.746094 0)"/>
     <use xlink:href="#DejaVuSans-3c" transform="translate(846.533203 0)"/>
     <use xlink:href="#DejaVuSans-3d" transform="translate(930.322266 0)"/>
     <use xlink:href="#DejaVuSans-20" transform="translate(1014.111328 0)"/>
     <use xlink:href="#DejaVuSans-30" transform="translate(1045.898438 0)"/>
     <use xlink:href="#DejaVuSans-2e" transform="translate(1109.521484 0)"/>
     <use xlink:href="#DejaVuSans-30" transform="translate(1141.308594 0)"/>
     <use xlink:href="#DejaVuSans-34" transform="translate(1204.931641 0)"/>
     <use xlink:href="#DejaVuSans-34" transform="translate(1268.554688 0)"/>
    </g>
    <!-- gini = 0.124 -->
    <g transform="translate(406.958872 491.418408) scale(0.168948 -0.168948)">
     <use xlink:href="#DejaVuSans-67"/>
     <use xlink:href="#DejaVuSans-69" transform="translate(63.476562 0)"/>
     <use xlink:href="#DejaVuSans-6e" transform="translate(91.259766 0)"/>
     <use xlink:href="#DejaVuSans-69" transform="translate(154.638672 0)"/>
     <use xlink:href="#DejaVuSans-20" transform="translate(182.421875 0)"/>
     <use xlink:href="#DejaVuSans-3d" transform="translate(214.208984 0)"/>
     <use xlink:href="#DejaVuSans-20" transform="translate(297.998047 0)"/>
     <use xlink:href="#DejaVuSans-30" transform="translate(329.785156 0)"/>
     <use xlink:href="#DejaVuSans-2e" transform="translate(393.408203 0)"/>
     <use xlink:href="#DejaVuSans-31" transform="translate(425.195312 0)"/>
     <use xlink:href="#DejaVuSans-32" transform="translate(488.818359 0)"/>
     <use xlink:href="#DejaVuSans-34" transform="translate(552.441406 0)"/>
    </g>
    <!-- samples = 28 -->
    <g transform="translate(400.689334 510.336839) scale(0.168948 -0.168948)">
     <use xlink:href="#DejaVuSans-73"/>
     <use xlink:href="#DejaVuSans-61" transform="translate(52.099609 0)"/>
     <use xlink:href="#DejaVuSans-6d" transform="translate(113.378906 0)"/>
     <use xlink:href="#DejaVuSans-70" transform="translate(210.791016 0)"/>
     <use xlink:href="#DejaVuSans-6c" transform="translate(274.267578 0)"/>
     <use xlink:href="#DejaVuSans-65" transform="translate(302.050781 0)"/>
     <use xlink:href="#DejaVuSans-73" transform="translate(363.574219 0)"/>
     <use xlink:href="#DejaVuSans-20" transform="translate(415.673828 0)"/>
     <use xlink:href="#DejaVuSans-3d" transform="translate(447.460938 0)"/>
     <use xlink:href="#DejaVuSans-20" transform="translate(531.25 0)"/>
     <use xlink:href="#DejaVuSans-32" transform="translate(563.037109 0)"/>
     <use xlink:href="#DejaVuSans-38" transform="translate(626.660156 0)"/>
    </g>
    <!-- value = [42, 3] -->
    <g transform="translate(395.392564 529.25527) scale(0.168948 -0.168948)">
     <use xlink:href="#DejaVuSans-76"/>
     <use xlink:href="#DejaVuSans-61" transform="translate(59.179688 0)"/>
     <use xlink:href="#DejaVuSans-6c" transform="translate(120.458984 0)"/>
     <use xlink:href="#DejaVuSans-75" transform="translate(148.242188 0)"/>
     <use xlink:href="#DejaVuSans-65" transform="translate(211.621094 0)"/>
     <use xlink:href="#DejaVuSans-20" transform="translate(273.144531 0)"/>
     <use xlink:href="#DejaVuSans-3d" transform="translate(304.931641 0)"/>
     <use xlink:href="#DejaVuSans-20" transform="translate(388.720703 0)"/>
     <use xlink:href="#DejaVuSans-5b" transform="translate(420.507812 0)"/>
     <use xlink:href="#DejaVuSans-34" transform="translate(459.521484 0)"/>
     <use xlink:href="#DejaVuSans-32" transform="translate(523.144531 0)"/>
     <use xlink:href="#DejaVuSans-2c" transform="translate(586.767578 0)"/>
     <use xlink:href="#DejaVuSans-20" transform="translate(618.554688 0)"/>
     <use xlink:href="#DejaVuSans-33" transform="translate(650.341797 0)"/>
     <use xlink:href="#DejaVuSans-5d" transform="translate(713.964844 0)"/>
    </g>
    <!-- class = B -->
    <g transform="translate(419.787007 548.173701) scale(0.168948 -0.168948)">
     <use xlink:href="#DejaVuSans-63"/>
     <use xlink:href="#DejaVuSans-6c" transform="translate(54.980469 0)"/>
     <use xlink:href="#DejaVuSans-61" transform="translate(82.763672 0)"/>
     <use xlink:href="#DejaVuSans-73" transform="translate(144.042969 0)"/>
     <use xlink:href="#DejaVuSans-73" transform="translate(196.142578 0)"/>
     <use xlink:href="#DejaVuSans-20" transform="translate(248.242188 0)"/>
     <use xlink:href="#DejaVuSans-3d" transform="translate(280.029297 0)"/>
     <use xlink:href="#DejaVuSans-20" transform="translate(363.818359 0)"/>
     <use xlink:href="#DejaVuSans-42" transform="translate(395.605469 0)"/>
    </g>
   </g>
   <g id="text_10">
    <!-- True   -->
    <g transform="translate(551.886312 394.56) scale(0.168948 -0.168948)">
     <defs>
      <path id="DejaVuSans-54" d="M -19 4666 
L 3928 4666 
L 3928 4134 
L 2272 4134 
L 2272 0 
L 1638 0 
L 1638 4134 
L -19 4134 
L -19 4666 
z
" transform="scale(0.015625)"/>
     </defs>
     <use xlink:href="#DejaVuSans-54"/>
     <use xlink:href="#DejaVuSans-72" transform="translate(46.333984 0)"/>
     <use xlink:href="#DejaVuSans-75" transform="translate(87.447266 0)"/>
     <use xlink:href="#DejaVuSans-65" transform="translate(150.826172 0)"/>
     <use xlink:href="#DejaVuSans-20" transform="translate(212.349609 0)"/>
     <use xlink:href="#DejaVuSans-20" transform="translate(244.136719 0)"/>
    </g>
   </g>
   <g id="patch_20">
    <path d="M 947.53699 450.228111 
Q 843.987903 367.923288 739.56358 284.922794 
" style="fill: none; stroke: #000000; stroke-linecap: round"/>
    <path d="M 944.349141 443.377989 
L 947.53699 450.228111 
L 940.144183 448.668317 
" style="fill: none; stroke: #000000; stroke-linecap: round"/>
   </g>
   <g id="text_11">
    <g id="patch_21">
     <path d="M 926.613056 558.210242 
L 1107.386944 558.210242 
L 1107.386944 452.669758 
L 926.613056 452.669758 
z
" style="fill: #d9ecfa; stroke: #000000; stroke-linejoin: miter"/>
    </g>
    <!-- diagnosis &lt;= 15.11 -->
    <g transform="translate(933.370958 472.265035) scale(0.168948 -0.168948)">
     <use xlink:href="#DejaVuSans-64"/>
     <use xlink:href="#DejaVuSans-69" transform="translate(63.476562 0)"/>
     <use xlink:href="#DejaVuSans-61" transform="translate(91.259766 0)"/>
     <use xlink:href="#DejaVuSans-67" transform="translate(152.539062 0)"/>
     <use xlink:href="#DejaVuSans-6e" transform="translate(216.015625 0)"/>
     <use xlink:href="#DejaVuSans-6f" transform="translate(279.394531 0)"/>
     <use xlink:href="#DejaVuSans-73" transform="translate(340.576172 0)"/>
     <use xlink:href="#DejaVuSans-69" transform="translate(392.675781 0)"/>
     <use xlink:href="#DejaVuSans-73" transform="translate(420.458984 0)"/>
     <use xlink:href="#DejaVuSans-20" transform="translate(472.558594 0)"/>
     <use xlink:href="#DejaVuSans-3c" transform="translate(504.345703 0)"/>
     <use xlink:href="#DejaVuSans-3d" transform="translate(588.134766 0)"/>
     <use xlink:href="#DejaVuSans-20" transform="translate(671.923828 0)"/>
     <use xlink:href="#DejaVuSans-31" transform="translate(703.710938 0)"/>
     <use xlink:href="#DejaVuSans-35" transform="translate(767.333984 0)"/>
     <use xlink:href="#DejaVuSans-2e" transform="translate(830.957031 0)"/>
     <use xlink:href="#DejaVuSans-31" transform="translate(862.744141 0)"/>
     <use xlink:href="#DejaVuSans-31" transform="translate(926.367188 0)"/>
    </g>
    <!-- gini = 0.494 -->
    <g transform="translate(964.958872 491.183466) scale(0.168948 -0.168948)">
     <use xlink:href="#DejaVuSans-67"/>
     <use xlink:href="#DejaVuSans-69" transform="translate(63.476562 0)"/>
     <use xlink:href="#DejaVuSans-6e" transform="translate(91.259766 0)"/>
     <use xlink:href="#DejaVuSans-69" transform="translate(154.638672 0)"/>
     <use xlink:href="#DejaVuSans-20" transform="translate(182.421875 0)"/>
     <use xlink:href="#DejaVuSans-3d" transform="translate(214.208984 0)"/>
     <use xlink:href="#DejaVuSans-20" transform="translate(297.998047 0)"/>
     <use xlink:href="#DejaVuSans-30" transform="translate(329.785156 0)"/>
     <use xlink:href="#DejaVuSans-2e" transform="translate(393.408203 0)"/>
     <use xlink:href="#DejaVuSans-34" transform="translate(425.195312 0)"/>
     <use xlink:href="#DejaVuSans-39" transform="translate(488.818359 0)"/>
     <use xlink:href="#DejaVuSans-34" transform="translate(552.441406 0)"/>
    </g>
    <!-- samples = 31 -->
    <g transform="translate(958.689334 510.101897) scale(0.168948 -0.168948)">
     <use xlink:href="#DejaVuSans-73"/>
     <use xlink:href="#DejaVuSans-61" transform="translate(52.099609 0)"/>
     <use xlink:href="#DejaVuSans-6d" transform="translate(113.378906 0)"/>
     <use xlink:href="#DejaVuSans-70" transform="translate(210.791016 0)"/>
     <use xlink:href="#DejaVuSans-6c" transform="translate(274.267578 0)"/>
     <use xlink:href="#DejaVuSans-65" transform="translate(302.050781 0)"/>
     <use xlink:href="#DejaVuSans-73" transform="translate(363.574219 0)"/>
     <use xlink:href="#DejaVuSans-20" transform="translate(415.673828 0)"/>
     <use xlink:href="#DejaVuSans-3d" transform="translate(447.460938 0)"/>
     <use xlink:href="#DejaVuSans-20" transform="translate(531.25 0)"/>
     <use xlink:href="#DejaVuSans-33" transform="translate(563.037109 0)"/>
     <use xlink:href="#DejaVuSans-31" transform="translate(626.660156 0)"/>
    </g>
    <!-- value = [21, 26] -->
    <g transform="translate(948.017919 529.020328) scale(0.168948 -0.168948)">
     <use xlink:href="#DejaVuSans-76"/>
     <use xlink:href="#DejaVuSans-61" transform="translate(59.179688 0)"/>
     <use xlink:href="#DejaVuSans-6c" transform="translate(120.458984 0)"/>
     <use xlink:href="#DejaVuSans-75" transform="translate(148.242188 0)"/>
     <use xlink:href="#DejaVuSans-65" transform="translate(211.621094 0)"/>
     <use xlink:href="#DejaVuSans-20" transform="translate(273.144531 0)"/>
     <use xlink:href="#DejaVuSans-3d" transform="translate(304.931641 0)"/>
     <use xlink:href="#DejaVuSans-20" transform="translate(388.720703 0)"/>
     <use xlink:href="#DejaVuSans-5b" transform="translate(420.507812 0)"/>
     <use xlink:href="#DejaVuSans-32" transform="translate(459.521484 0)"/>
     <use xlink:href="#DejaVuSans-31" transform="translate(523.144531 0)"/>
     <use xlink:href="#DejaVuSans-2c" transform="translate(586.767578 0)"/>
     <use xlink:href="#DejaVuSans-20" transform="translate(618.554688 0)"/>
     <use xlink:href="#DejaVuSans-32" transform="translate(650.341797 0)"/>
     <use xlink:href="#DejaVuSans-36" transform="translate(713.964844 0)"/>
     <use xlink:href="#DejaVuSans-5d" transform="translate(777.587891 0)"/>
    </g>
    <!-- class = M -->
    <g transform="translate(976.294197 547.938759) scale(0.168948 -0.168948)">
     <use xlink:href="#DejaVuSans-63"/>
     <use xlink:href="#DejaVuSans-6c" transform="translate(54.980469 0)"/>
     <use xlink:href="#DejaVuSans-61" transform="translate(82.763672 0)"/>
     <use xlink:href="#DejaVuSans-73" transform="translate(144.042969 0)"/>
     <use xlink:href="#DejaVuSans-73" transform="translate(196.142578 0)"/>
     <use xlink:href="#DejaVuSans-20" transform="translate(248.242188 0)"/>
     <use xlink:href="#DejaVuSans-3d" transform="translate(280.029297 0)"/>
     <use xlink:href="#DejaVuSans-20" transform="translate(363.818359 0)"/>
     <use xlink:href="#DejaVuSans-4d" transform="translate(395.605469 0)"/>
    </g>
   </g>
   <g id="text_12">
    <!--   False -->
    <g transform="translate(877.5 394.56) scale(0.168948 -0.168948)">
     <defs>
      <path id="DejaVuSans-46" d="M 628 4666 
L 3309 4666 
L 3309 4134 
L 1259 4134 
L 1259 2759 
L 3109 2759 
L 3109 2228 
L 1259 2228 
L 1259 0 
L 628 0 
L 628 4666 
z
" transform="scale(0.015625)"/>
     </defs>
     <use xlink:href="#DejaVuSans-20"/>
     <use xlink:href="#DejaVuSans-20" transform="translate(31.787109 0)"/>
     <use xlink:href="#DejaVuSans-46" transform="translate(63.574219 0)"/>
     <use xlink:href="#DejaVuSans-61" transform="translate(111.96875 0)"/>
     <use xlink:href="#DejaVuSans-6c" transform="translate(173.248047 0)"/>
     <use xlink:href="#DejaVuSans-73" transform="translate(201.03125 0)"/>
     <use xlink:href="#DejaVuSans-65" transform="translate(253.130859 0)"/>
    </g>
   </g>
   <g id="patch_22">
    <path d="M 738 283.68 
Q 738 283.68 738 283.68 
" style="fill: none; stroke: #000000; stroke-linecap: round"/>
   </g>
   <g id="text_13">
    <g id="patch_23">
     <path d="M 608.368385 336.685185 
L 867.631615 336.685185 
L 867.631615 230.20493 
L 608.368385 230.20493 
z
" style="fill: #f1bb94; stroke: #000000; stroke-linejoin: miter"/>
    </g>
    <!-- smoothness_mean &lt;= 0.084 -->
    <g transform="translate(615.126288 250.270092) scale(0.168948 -0.168948)">
     <defs>
      <path id="DejaVuSans-68" d="M 3513 2113 
L 3513 0 
L 2938 0 
L 2938 2094 
Q 2938 2591 2744 2837 
Q 2550 3084 2163 3084 
Q 1697 3084 1428 2787 
Q 1159 2491 1159 1978 
L 1159 0 
L 581 0 
L 581 4863 
L 1159 4863 
L 1159 2956 
Q 1366 3272 1645 3428 
Q 1925 3584 2291 3584 
Q 2894 3584 3203 3211 
Q 3513 2838 3513 2113 
z
" transform="scale(0.015625)"/>
     </defs>
     <use xlink:href="#DejaVuSans-73"/>
     <use xlink:href="#DejaVuSans-6d" transform="translate(52.099609 0)"/>
     <use xlink:href="#DejaVuSans-6f" transform="translate(149.511719 0)"/>
     <use xlink:href="#DejaVuSans-6f" transform="translate(210.693359 0)"/>
     <use xlink:href="#DejaVuSans-74" transform="translate(271.875 0)"/>
     <use xlink:href="#DejaVuSans-68" transform="translate(311.083984 0)"/>
     <use xlink:href="#DejaVuSans-6e" transform="translate(374.462891 0)"/>
     <use xlink:href="#DejaVuSans-65" transform="translate(437.841797 0)"/>
     <use xlink:href="#DejaVuSans-73" transform="translate(499.365234 0)"/>
     <use xlink:href="#DejaVuSans-73" transform="translate(551.464844 0)"/>
     <use xlink:href="#DejaVuSans-5f" transform="translate(603.564453 0)"/>
     <use xlink:href="#DejaVuSans-6d" transform="translate(653.564453 0)"/>
     <use xlink:href="#DejaVuSans-65" transform="translate(750.976562 0)"/>
     <use xlink:href="#DejaVuSans-61" transform="translate(812.5 0)"/>
     <use xlink:href="#DejaVuSans-6e" transform="translate(873.779297 0)"/>
     <use xlink:href="#DejaVuSans-20" transform="translate(937.158203 0)"/>
     <use xlink:href="#DejaVuSans-3c" transform="translate(968.945312 0)"/>
     <use xlink:href="#DejaVuSans-3d" transform="translate(1052.734375 0)"/>
     <use xlink:href="#DejaVuSans-20" transform="translate(1136.523438 0)"/>
     <use xlink:href="#DejaVuSans-30" transform="translate(1168.310547 0)"/>
     <use xlink:href="#DejaVuSans-2e" transform="translate(1231.933594 0)"/>
     <use xlink:href="#DejaVuSans-30" transform="translate(1263.720703 0)"/>
     <use xlink:href="#DejaVuSans-38" transform="translate(1327.34375 0)"/>
     <use xlink:href="#DejaVuSans-34" transform="translate(1390.966797 0)"/>
    </g>
    <!-- gini = 0.432 -->
    <g transform="translate(685.958872 269.658408) scale(0.168948 -0.168948)">
     <use xlink:href="#DejaVuSans-67"/>
     <use xlink:href="#DejaVuSans-69" transform="translate(63.476562 0)"/>
     <use xlink:href="#DejaVuSans-6e" transform="translate(91.259766 0)"/>
     <use xlink:href="#DejaVuSans-69" transform="translate(154.638672 0)"/>
     <use xlink:href="#DejaVuSans-20" transform="translate(182.421875 0)"/>
     <use xlink:href="#DejaVuSans-3d" transform="translate(214.208984 0)"/>
     <use xlink:href="#DejaVuSans-20" transform="translate(297.998047 0)"/>
     <use xlink:href="#DejaVuSans-30" transform="translate(329.785156 0)"/>
     <use xlink:href="#DejaVuSans-2e" transform="translate(393.408203 0)"/>
     <use xlink:href="#DejaVuSans-34" transform="translate(425.195312 0)"/>
     <use xlink:href="#DejaVuSans-33" transform="translate(488.818359 0)"/>
     <use xlink:href="#DejaVuSans-32" transform="translate(552.441406 0)"/>
    </g>
    <!-- samples = 59 -->
    <g transform="translate(679.689334 288.576839) scale(0.168948 -0.168948)">
     <use xlink:href="#DejaVuSans-73"/>
     <use xlink:href="#DejaVuSans-61" transform="translate(52.099609 0)"/>
     <use xlink:href="#DejaVuSans-6d" transform="translate(113.378906 0)"/>
     <use xlink:href="#DejaVuSans-70" transform="translate(210.791016 0)"/>
     <use xlink:href="#DejaVuSans-6c" transform="translate(274.267578 0)"/>
     <use xlink:href="#DejaVuSans-65" transform="translate(302.050781 0)"/>
     <use xlink:href="#DejaVuSans-73" transform="translate(363.574219 0)"/>
     <use xlink:href="#DejaVuSans-20" transform="translate(415.673828 0)"/>
     <use xlink:href="#DejaVuSans-3d" transform="translate(447.460938 0)"/>
     <use xlink:href="#DejaVuSans-20" transform="translate(531.25 0)"/>
     <use xlink:href="#DejaVuSans-35" transform="translate(563.037109 0)"/>
     <use xlink:href="#DejaVuSans-39" transform="translate(626.660156 0)"/>
    </g>
    <!-- value = [63.0, 29.0] -->
    <g transform="translate(652.899266 307.49527) scale(0.168948 -0.168948)">
     <use xlink:href="#DejaVuSans-76"/>
     <use xlink:href="#DejaVuSans-61" transform="translate(59.179688 0)"/>
     <use xlink:href="#DejaVuSans-6c" transform="translate(120.458984 0)"/>
     <use xlink:href="#DejaVuSans-75" transform="translate(148.242188 0)"/>
     <use xlink:href="#DejaVuSans-65" transform="translate(211.621094 0)"/>
     <use xlink:href="#DejaVuSans-20" transform="translate(273.144531 0)"/>
     <use xlink:href="#DejaVuSans-3d" transform="translate(304.931641 0)"/>
     <use xlink:href="#DejaVuSans-20" transform="translate(388.720703 0)"/>
     <use xlink:href="#DejaVuSans-5b" transform="translate(420.507812 0)"/>
     <use xlink:href="#DejaVuSans-36" transform="translate(459.521484 0)"/>
     <use xlink:href="#DejaVuSans-33" transform="translate(523.144531 0)"/>
     <use xlink:href="#DejaVuSans-2e" transform="translate(586.767578 0)"/>
     <use xlink:href="#DejaVuSans-30" transform="translate(618.554688 0)"/>
     <use xlink:href="#DejaVuSans-2c" transform="translate(682.177734 0)"/>
     <use xlink:href="#DejaVuSans-20" transform="translate(713.964844 0)"/>
     <use xlink:href="#DejaVuSans-32" transform="translate(745.751953 0)"/>
     <use xlink:href="#DejaVuSans-39" transform="translate(809.375 0)"/>
     <use xlink:href="#DejaVuSans-2e" transform="translate(872.998047 0)"/>
     <use xlink:href="#DejaVuSans-30" transform="translate(904.785156 0)"/>
     <use xlink:href="#DejaVuSans-5d" transform="translate(968.408203 0)"/>
    </g>
    <!-- class = B -->
    <g transform="translate(698.787007 326.413701) scale(0.168948 -0.168948)">
     <use xlink:href="#DejaVuSans-63"/>
     <use xlink:href="#DejaVuSans-6c" transform="translate(54.980469 0)"/>
     <use xlink:href="#DejaVuSans-61" transform="translate(82.763672 0)"/>
     <use xlink:href="#DejaVuSans-73" transform="translate(144.042969 0)"/>
     <use xlink:href="#DejaVuSans-73" transform="translate(196.142578 0)"/>
     <use xlink:href="#DejaVuSans-20" transform="translate(248.242188 0)"/>
     <use xlink:href="#DejaVuSans-3d" transform="translate(280.029297 0)"/>
     <use xlink:href="#DejaVuSans-20" transform="translate(363.818359 0)"/>
     <use xlink:href="#DejaVuSans-42" transform="translate(395.605469 0)"/>
    </g>
   </g>
  </g>
 </g>
</svg>
