<?xml version="1.0" encoding="utf-8" standalone="no"?>
<!DOCTYPE svg PUBLIC "-//W3C//DTD SVG 1.1//EN"
  "http://www.w3.org/Graphics/SVG/1.1/DTD/svg11.dtd">
<svg xmlns:xlink="http://www.w3.org/1999/xlink" width="1440pt" height="1440pt" viewBox="0 0 1440 1440" xmlns="http://www.w3.org/2000/svg" version="1.1">
 <metadata>
  <rdf:RDF xmlns:dc="http://purl.org/dc/elements/1.1/" xmlns:cc="http://creativecommons.org/ns#" xmlns:rdf="http://www.w3.org/1999/02/22-rdf-syntax-ns#">
   <cc:Work>
    <dc:type rdf:resource="http://purl.org/dc/dcmitype/StillImage"/>
    <dc:date>2025-03-08T01:46:16.859432</dc:date>
    <dc:format>image/svg+xml</dc:format>
    <dc:creator>
     <cc:Agent>
      <dc:title>Matplotlib v3.10.1, https://matplotlib.org/</dc:title>
     </cc:Agent>
    </dc:creator>
   </cc:Work>
  </rdf:RDF>
 </metadata>
 <defs>
  <style type="text/css">*{stroke-linejoin: round; stroke-linecap: butt}</style>
 </defs>
 <g id="figure_1">
  <g id="patch_1">
   <path d="M 0 1440 
L 1440 1440 
L 1440 0 
L 0 0 
z
" style="fill: #ffffff"/>
  </g>
  <g id="axes_1">
   <g id="patch_2">
    <path d="M 489.265919 1122.606951 
Q 543.053215 1037.102502 597.435827 950.651692 
" style="fill: none; stroke: #000000; stroke-linecap: round"/>
    <path d="M 495.972954 1118.534995 
L 489.265919 1122.606951 
L 490.032576 1114.79815 
" style="fill: none; stroke: #000000; stroke-linecap: round"/>
   </g>
   <g id="text_1">
    <g id="patch_3">
     <path d="M 391.508092 1215.697883 
L 526.491908 1215.697883 
L 526.491908 1125.742117 
L 391.508092 1125.742117 
z
" style="fill: #e58139; stroke: #000000; stroke-linejoin: miter"/>
    </g>
    <!-- gini = 0.0 -->
    <g transform="translate(416.119014 1146.091532) scale(0.17545 -0.17545)">
     <defs>
      <path id="DejaVuSans-67" d="M 2906 1791 
Q 2906 2416 2648 2759 
Q 2391 3103 1925 3103 
Q 1463 3103 1205 2759 
Q 947 2416 947 1791 
Q 947 1169 1205 825 
Q 1463 481 1925 481 
Q 2391 481 2648 825 
Q 2906 1169 2906 1791 
z
M 3481 434 
Q 3481 -459 3084 -895 
Q 2688 -1331 1869 -1331 
Q 1566 -1331 1297 -1286 
Q 1028 -1241 775 -1147 
L 775 -588 
Q 1028 -725 1275 -790 
Q 1522 -856 1778 -856 
Q 2344 -856 2625 -561 
Q 2906 -266 2906 331 
L 2906 616 
Q 2728 306 2450 153 
Q 2172 0 1784 0 
Q 1141 0 747 490 
Q 353 981 353 1791 
Q 353 2603 747 3093 
Q 1141 3584 1784 3584 
Q 2172 3584 2450 3431 
Q 2728 3278 2906 2969 
L 2906 3500 
L 3481 3500 
L 3481 434 
z
" transform="scale(0.015625)"/>
      <path id="DejaVuSans-69" d="M 603 3500 
L 1178 3500 
L 1178 0 
L 603 0 
L 603 3500 
z
M 603 4863 
L 1178 4863 
L 1178 4134 
L 603 4134 
L 603 4863 
z
" transform="scale(0.015625)"/>
      <path id="DejaVuSans-6e" d="M 3513 2113 
L 3513 0 
L 2938 0 
L 2938 2094 
Q 2938 2591 2744 2837 
Q 2550 3084 2163 3084 
Q 1697 3084 1428 2787 
Q 1159 2491 1159 1978 
L 1159 0 
L 581 0 
L 581 3500 
L 1159 3500 
L 1159 2956 
Q 1366 3272 1645 3428 
Q 1925 3584 2291 3584 
Q 2894 3584 3203 3211 
Q 3513 2838 3513 2113 
z
" transform="scale(0.015625)"/>
      <path id="DejaVuSans-20" transform="scale(0.015625)"/>
      <path id="DejaVuSans-3d" d="M 678 2906 
L 4684 2906 
L 4684 2381 
L 678 2381 
L 678 2906 
z
M 678 1631 
L 4684 1631 
L 4684 1100 
L 678 1100 
L 678 1631 
z
" transform="scale(0.015625)"/>
      <path id="DejaVuSans-30" d="M 2034 4250 
Q 1547 4250 1301 3770 
Q 1056 3291 1056 2328 
Q 1056 1369 1301 889 
Q 1547 409 2034 409 
Q 2525 409 2770 889 
Q 3016 1369 3016 2328 
Q 3016 3291 2770 3770 
Q 2525 4250 2034 4250 
z
M 2034 4750 
Q 2819 4750 3233 4129 
Q 3647 3509 3647 2328 
Q 3647 1150 3233 529 
Q 2819 -91 2034 -91 
Q 1250 -91 836 529 
Q 422 1150 422 2328 
Q 422 3509 836 4129 
Q 1250 4750 2034 4750 
z
" transform="scale(0.015625)"/>
      <path id="DejaVuSans-2e" d="M 684 794 
L 1344 794 
L 1344 0 
L 684 0 
L 684 794 
z
" transform="scale(0.015625)"/>
     </defs>
     <use xlink:href="#DejaVuSans-67"/>
     <use xlink:href="#DejaVuSans-69" transform="translate(63.476562 0)"/>
     <use xlink:href="#DejaVuSans-6e" transform="translate(91.259766 0)"/>
     <use xlink:href="#DejaVuSans-69" transform="translate(154.638672 0)"/>
     <use xlink:href="#DejaVuSans-20" transform="translate(182.421875 0)"/>
     <use xlink:href="#DejaVuSans-3d" transform="translate(214.208984 0)"/>
     <use xlink:href="#DejaVuSans-20" transform="translate(297.998047 0)"/>
     <use xlink:href="#DejaVuSans-30" transform="translate(329.785156 0)"/>
     <use xlink:href="#DejaVuSans-2e" transform="translate(393.408203 0)"/>
     <use xlink:href="#DejaVuSans-30" transform="translate(425.195312 0)"/>
    </g>
    <!-- samples = 1 -->
    <g transform="translate(404.026697 1165.738053) scale(0.17545 -0.17545)">
     <defs>
      <path id="DejaVuSans-73" d="M 2834 3397 
L 2834 2853 
Q 2591 2978 2328 3040 
Q 2066 3103 1784 3103 
Q 1356 3103 1142 2972 
Q 928 2841 928 2578 
Q 928 2378 1081 2264 
Q 1234 2150 1697 2047 
L 1894 2003 
Q 2506 1872 2764 1633 
Q 3022 1394 3022 966 
Q 3022 478 2636 193 
Q 2250 -91 1575 -91 
Q 1294 -91 989 -36 
Q 684 19 347 128 
L 347 722 
Q 666 556 975 473 
Q 1284 391 1588 391 
Q 1994 391 2212 530 
Q 2431 669 2431 922 
Q 2431 1156 2273 1281 
Q 2116 1406 1581 1522 
L 1381 1569 
Q 847 1681 609 1914 
Q 372 2147 372 2553 
Q 372 3047 722 3315 
Q 1072 3584 1716 3584 
Q 2034 3584 2315 3537 
Q 2597 3491 2834 3397 
z
" transform="scale(0.015625)"/>
      <path id="DejaVuSans-61" d="M 2194 1759 
Q 1497 1759 1228 1600 
Q 959 1441 959 1056 
Q 959 750 1161 570 
Q 1363 391 1709 391 
Q 2188 391 2477 730 
Q 2766 1069 2766 1631 
L 2766 1759 
L 2194 1759 
z
M 3341 1997 
L 3341 0 
L 2766 0 
L 2766 531 
Q 2569 213 2275 61 
Q 1981 -91 1556 -91 
Q 1019 -91 701 211 
Q 384 513 384 1019 
Q 384 1609 779 1909 
Q 1175 2209 1959 2209 
L 2766 2209 
L 2766 2266 
Q 2766 2663 2505 2880 
Q 2244 3097 1772 3097 
Q 1472 3097 1187 3025 
Q 903 2953 641 2809 
L 641 3341 
Q 956 3463 1253 3523 
Q 1550 3584 1831 3584 
Q 2591 3584 2966 3190 
Q 3341 2797 3341 1997 
z
" transform="scale(0.015625)"/>
      <path id="DejaVuSans-6d" d="M 3328 2828 
Q 3544 3216 3844 3400 
Q 4144 3584 4550 3584 
Q 5097 3584 5394 3201 
Q 5691 2819 5691 2113 
L 5691 0 
L 5113 0 
L 5113 2094 
Q 5113 2597 4934 2840 
Q 4756 3084 4391 3084 
Q 3944 3084 3684 2787 
Q 3425 2491 3425 1978 
L 3425 0 
L 2847 0 
L 2847 2094 
Q 2847 2600 2669 2842 
Q 2491 3084 2119 3084 
Q 1678 3084 1418 2786 
Q 1159 2488 1159 1978 
L 1159 0 
L 581 0 
L 581 3500 
L 1159 3500 
L 1159 2956 
Q 1356 3278 1631 3431 
Q 1906 3584 2284 3584 
Q 2666 3584 2933 3390 
Q 3200 3197 3328 2828 
z
" transform="scale(0.015625)"/>
      <path id="DejaVuSans-70" d="M 1159 525 
L 1159 -1331 
L 581 -1331 
L 581 3500 
L 1159 3500 
L 1159 2969 
Q 1341 3281 1617 3432 
Q 1894 3584 2278 3584 
Q 2916 3584 3314 3078 
Q 3713 2572 3713 1747 
Q 3713 922 3314 415 
Q 2916 -91 2278 -91 
Q 1894 -91 1617 61 
Q 1341 213 1159 525 
z
M 3116 1747 
Q 3116 2381 2855 2742 
Q 2594 3103 2138 3103 
Q 1681 3103 1420 2742 
Q 1159 2381 1159 1747 
Q 1159 1113 1420 752 
Q 1681 391 2138 391 
Q 2594 391 2855 752 
Q 3116 1113 3116 1747 
z
" transform="scale(0.015625)"/>
      <path id="DejaVuSans-6c" d="M 603 4863 
L 1178 4863 
L 1178 0 
L 603 0 
L 603 4863 
z
" transform="scale(0.015625)"/>
      <path id="DejaVuSans-65" d="M 3597 1894 
L 3597 1613 
L 953 1613 
Q 991 1019 1311 708 
Q 1631 397 2203 397 
Q 2534 397 2845 478 
Q 3156 559 3463 722 
L 3463 178 
Q 3153 47 2828 -22 
Q 2503 -91 2169 -91 
Q 1331 -91 842 396 
Q 353 884 353 1716 
Q 353 2575 817 3079 
Q 1281 3584 2069 3584 
Q 2775 3584 3186 3129 
Q 3597 2675 3597 1894 
z
M 3022 2063 
Q 3016 2534 2758 2815 
Q 2500 3097 2075 3097 
Q 1594 3097 1305 2825 
Q 1016 2553 972 2059 
L 3022 2063 
z
" transform="scale(0.015625)"/>
      <path id="DejaVuSans-31" d="M 794 531 
L 1825 531 
L 1825 4091 
L 703 3866 
L 703 4441 
L 1819 4666 
L 2450 4666 
L 2450 531 
L 3481 531 
L 3481 0 
L 794 0 
L 794 531 
z
" transform="scale(0.015625)"/>
     </defs>
     <use xlink:href="#DejaVuSans-73"/>
     <use xlink:href="#DejaVuSans-61" transform="translate(52.099609 0)"/>
     <use xlink:href="#DejaVuSans-6d" transform="translate(113.378906 0)"/>
     <use xlink:href="#DejaVuSans-70" transform="translate(210.791016 0)"/>
     <use xlink:href="#DejaVuSans-6c" transform="translate(274.267578 0)"/>
     <use xlink:href="#DejaVuSans-65" transform="translate(302.050781 0)"/>
     <use xlink:href="#DejaVuSans-73" transform="translate(363.574219 0)"/>
     <use xlink:href="#DejaVuSans-20" transform="translate(415.673828 0)"/>
     <use xlink:href="#DejaVuSans-3d" transform="translate(447.460938 0)"/>
     <use xlink:href="#DejaVuSans-20" transform="translate(531.25 0)"/>
     <use xlink:href="#DejaVuSans-31" transform="translate(563.037109 0)"/>
    </g>
    <!-- value = [1, 0] -->
    <g transform="translate(398.526077 1185.384573) scale(0.17545 -0.17545)">
     <defs>
      <path id="DejaVuSans-76" d="M 191 3500 
L 800 3500 
L 1894 563 
L 2988 3500 
L 3597 3500 
L 2284 0 
L 1503 0 
L 191 3500 
z
" transform="scale(0.015625)"/>
      <path id="DejaVuSans-75" d="M 544 1381 
L 544 3500 
L 1119 3500 
L 1119 1403 
Q 1119 906 1312 657 
Q 1506 409 1894 409 
Q 2359 409 2629 706 
Q 2900 1003 2900 1516 
L 2900 3500 
L 3475 3500 
L 3475 0 
L 2900 0 
L 2900 538 
Q 2691 219 2414 64 
Q 2138 -91 1772 -91 
Q 1169 -91 856 284 
Q 544 659 544 1381 
z
M 1991 3584 
L 1991 3584 
z
" transform="scale(0.015625)"/>
      <path id="DejaVuSans-5b" d="M 550 4863 
L 1875 4863 
L 1875 4416 
L 1125 4416 
L 1125 -397 
L 1875 -397 
L 1875 -844 
L 550 -844 
L 550 4863 
z
" transform="scale(0.015625)"/>
      <path id="DejaVuSans-2c" d="M 750 794 
L 1409 794 
L 1409 256 
L 897 -744 
L 494 -744 
L 750 256 
L 750 794 
z
" transform="scale(0.015625)"/>
      <path id="DejaVuSans-5d" d="M 1947 4863 
L 1947 -844 
L 622 -844 
L 622 -397 
L 1369 -397 
L 1369 4416 
L 622 4416 
L 622 4863 
L 1947 4863 
z
" transform="scale(0.015625)"/>
     </defs>
     <use xlink:href="#DejaVuSans-76"/>
     <use xlink:href="#DejaVuSans-61" transform="translate(59.179688 0)"/>
     <use xlink:href="#DejaVuSans-6c" transform="translate(120.458984 0)"/>
     <use xlink:href="#DejaVuSans-75" transform="translate(148.242188 0)"/>
     <use xlink:href="#DejaVuSans-65" transform="translate(211.621094 0)"/>
     <use xlink:href="#DejaVuSans-20" transform="translate(273.144531 0)"/>
     <use xlink:href="#DejaVuSans-3d" transform="translate(304.931641 0)"/>
     <use xlink:href="#DejaVuSans-20" transform="translate(388.720703 0)"/>
     <use xlink:href="#DejaVuSans-5b" transform="translate(420.507812 0)"/>
     <use xlink:href="#DejaVuSans-31" transform="translate(459.521484 0)"/>
     <use xlink:href="#DejaVuSans-2c" transform="translate(523.144531 0)"/>
     <use xlink:href="#DejaVuSans-20" transform="translate(554.931641 0)"/>
     <use xlink:href="#DejaVuSans-30" transform="translate(586.71875 0)"/>
     <use xlink:href="#DejaVuSans-5d" transform="translate(650.341797 0)"/>
    </g>
    <!-- class = B -->
    <g transform="translate(418.277867 1205.031094) scale(0.17545 -0.17545)">
     <defs>
      <path id="DejaVuSans-63" d="M 3122 3366 
L 3122 2828 
Q 2878 2963 2633 3030 
Q 2388 3097 2138 3097 
Q 1578 3097 1268 2742 
Q 959 2388 959 1747 
Q 959 1106 1268 751 
Q 1578 397 2138 397 
Q 2388 397 2633 464 
Q 2878 531 3122 666 
L 3122 134 
Q 2881 22 2623 -34 
Q 2366 -91 2075 -91 
Q 1284 -91 818 406 
Q 353 903 353 1747 
Q 353 2603 823 3093 
Q 1294 3584 2113 3584 
Q 2378 3584 2631 3529 
Q 2884 3475 3122 3366 
z
" transform="scale(0.015625)"/>
      <path id="DejaVuSans-42" d="M 1259 2228 
L 1259 519 
L 2272 519 
Q 2781 519 3026 730 
Q 3272 941 3272 1375 
Q 3272 1813 3026 2020 
Q 2781 2228 2272 2228 
L 1259 2228 
z
M 1259 4147 
L 1259 2741 
L 2194 2741 
Q 2656 2741 2882 2914 
Q 3109 3088 3109 3444 
Q 3109 3797 2882 3972 
Q 2656 4147 2194 4147 
L 1259 4147 
z
M 628 4666 
L 2241 4666 
Q 2963 4666 3353 4366 
Q 3744 4066 3744 3513 
Q 3744 3084 3544 2831 
Q 3344 2578 2956 2516 
Q 3422 2416 3680 2098 
Q 3938 1781 3938 1306 
Q 3938 681 3513 340 
Q 3088 0 2303 0 
L 628 0 
L 628 4666 
z
" transform="scale(0.015625)"/>
     </defs>
     <use xlink:href="#DejaVuSans-63"/>
     <use xlink:href="#DejaVuSans-6c" transform="translate(54.980469 0)"/>
     <use xlink:href="#DejaVuSans-61" transform="translate(82.763672 0)"/>
     <use xlink:href="#DejaVuSans-73" transform="translate(144.042969 0)"/>
     <use xlink:href="#DejaVuSans-73" transform="translate(196.142578 0)"/>
     <use xlink:href="#DejaVuSans-20" transform="translate(248.242188 0)"/>
     <use xlink:href="#DejaVuSans-3d" transform="translate(280.029297 0)"/>
     <use xlink:href="#DejaVuSans-20" transform="translate(363.818359 0)"/>
     <use xlink:href="#DejaVuSans-42" transform="translate(395.605469 0)"/>
    </g>
   </g>
   <g id="patch_4">
    <path d="M 707.734081 1122.606951 
Q 653.946785 1037.102502 599.564173 950.651692 
" style="fill: none; stroke: #000000; stroke-linecap: round"/>
    <path d="M 706.967424 1114.79815 
L 707.734081 1122.606951 
L 701.027046 1118.534995 
" style="fill: none; stroke: #000000; stroke-linecap: round"/>
   </g>
   <g id="text_2">
    <g id="patch_5">
     <path d="M 670.508092 1215.697883 
L 805.491908 1215.697883 
L 805.491908 1125.742117 
L 670.508092 1125.742117 
z
" style="fill: #399de5; stroke: #000000; stroke-linejoin: miter"/>
    </g>
    <!-- gini = 0.0 -->
    <g transform="translate(695.119014 1146.091532) scale(0.17545 -0.17545)">
     <use xlink:href="#DejaVuSans-67"/>
     <use xlink:href="#DejaVuSans-69" transform="translate(63.476562 0)"/>
     <use xlink:href="#DejaVuSans-6e" transform="translate(91.259766 0)"/>
     <use xlink:href="#DejaVuSans-69" transform="translate(154.638672 0)"/>
     <use xlink:href="#DejaVuSans-20" transform="translate(182.421875 0)"/>
     <use xlink:href="#DejaVuSans-3d" transform="translate(214.208984 0)"/>
     <use xlink:href="#DejaVuSans-20" transform="translate(297.998047 0)"/>
     <use xlink:href="#DejaVuSans-30" transform="translate(329.785156 0)"/>
     <use xlink:href="#DejaVuSans-2e" transform="translate(393.408203 0)"/>
     <use xlink:href="#DejaVuSans-30" transform="translate(425.195312 0)"/>
    </g>
    <!-- samples = 1 -->
    <g transform="translate(683.026697 1165.738053) scale(0.17545 -0.17545)">
     <use xlink:href="#DejaVuSans-73"/>
     <use xlink:href="#DejaVuSans-61" transform="translate(52.099609 0)"/>
     <use xlink:href="#DejaVuSans-6d" transform="translate(113.378906 0)"/>
     <use xlink:href="#DejaVuSans-70" transform="translate(210.791016 0)"/>
     <use xlink:href="#DejaVuSans-6c" transform="translate(274.267578 0)"/>
     <use xlink:href="#DejaVuSans-65" transform="translate(302.050781 0)"/>
     <use xlink:href="#DejaVuSans-73" transform="translate(363.574219 0)"/>
     <use xlink:href="#DejaVuSans-20" transform="translate(415.673828 0)"/>
     <use xlink:href="#DejaVuSans-3d" transform="translate(447.460938 0)"/>
     <use xlink:href="#DejaVuSans-20" transform="translate(531.25 0)"/>
     <use xlink:href="#DejaVuSans-31" transform="translate(563.037109 0)"/>
    </g>
    <!-- value = [0, 1] -->
    <g transform="translate(677.526077 1185.384573) scale(0.17545 -0.17545)">
     <use xlink:href="#DejaVuSans-76"/>
     <use xlink:href="#DejaVuSans-61" transform="translate(59.179688 0)"/>
     <use xlink:href="#DejaVuSans-6c" transform="translate(120.458984 0)"/>
     <use xlink:href="#DejaVuSans-75" transform="translate(148.242188 0)"/>
     <use xlink:href="#DejaVuSans-65" transform="translate(211.621094 0)"/>
     <use xlink:href="#DejaVuSans-20" transform="translate(273.144531 0)"/>
     <use xlink:href="#DejaVuSans-3d" transform="translate(304.931641 0)"/>
     <use xlink:href="#DejaVuSans-20" transform="translate(388.720703 0)"/>
     <use xlink:href="#DejaVuSans-5b" transform="translate(420.507812 0)"/>
     <use xlink:href="#DejaVuSans-30" transform="translate(459.521484 0)"/>
     <use xlink:href="#DejaVuSans-2c" transform="translate(523.144531 0)"/>
     <use xlink:href="#DejaVuSans-20" transform="translate(554.931641 0)"/>
     <use xlink:href="#DejaVuSans-31" transform="translate(586.71875 0)"/>
     <use xlink:href="#DejaVuSans-5d" transform="translate(650.341797 0)"/>
    </g>
    <!-- class = M -->
    <g transform="translate(695.727605 1205.031094) scale(0.17545 -0.17545)">
     <defs>
      <path id="DejaVuSans-4d" d="M 628 4666 
L 1569 4666 
L 2759 1491 
L 3956 4666 
L 4897 4666 
L 4897 0 
L 4281 0 
L 4281 4097 
L 3078 897 
L 2444 897 
L 1241 4097 
L 1241 0 
L 628 0 
L 628 4666 
z
" transform="scale(0.015625)"/>
     </defs>
     <use xlink:href="#DejaVuSans-63"/>
     <use xlink:href="#DejaVuSans-6c" transform="translate(54.980469 0)"/>
     <use xlink:href="#DejaVuSans-61" transform="translate(82.763672 0)"/>
     <use xlink:href="#DejaVuSans-73" transform="translate(144.042969 0)"/>
     <use xlink:href="#DejaVuSans-73" transform="translate(196.142578 0)"/>
     <use xlink:href="#DejaVuSans-20" transform="translate(248.242188 0)"/>
     <use xlink:href="#DejaVuSans-3d" transform="translate(280.029297 0)"/>
     <use xlink:href="#DejaVuSans-20" transform="translate(363.818359 0)"/>
     <use xlink:href="#DejaVuSans-4d" transform="translate(395.605469 0)"/>
    </g>
   </g>
   <g id="patch_6">
    <path d="M 349.765919 900.846951 
Q 403.553215 815.342502 457.935827 728.891692 
" style="fill: none; stroke: #000000; stroke-linecap: round"/>
    <path d="M 356.472954 896.774995 
L 349.765919 900.846951 
L 350.532576 893.03815 
" style="fill: none; stroke: #000000; stroke-linecap: round"/>
   </g>
   <g id="text_3">
    <g id="patch_7">
     <path d="M 246.4266 993.937883 
L 392.5734 993.937883 
L 392.5734 903.982117 
L 246.4266 903.982117 
z
" style="fill: #e58139; stroke: #000000; stroke-linejoin: miter"/>
    </g>
    <!-- gini = 0.0 -->
    <g transform="translate(276.619014 924.331532) scale(0.17545 -0.17545)">
     <use xlink:href="#DejaVuSans-67"/>
     <use xlink:href="#DejaVuSans-69" transform="translate(63.476562 0)"/>
     <use xlink:href="#DejaVuSans-6e" transform="translate(91.259766 0)"/>
     <use xlink:href="#DejaVuSans-69" transform="translate(154.638672 0)"/>
     <use xlink:href="#DejaVuSans-20" transform="translate(182.421875 0)"/>
     <use xlink:href="#DejaVuSans-3d" transform="translate(214.208984 0)"/>
     <use xlink:href="#DejaVuSans-20" transform="translate(297.998047 0)"/>
     <use xlink:href="#DejaVuSans-30" transform="translate(329.785156 0)"/>
     <use xlink:href="#DejaVuSans-2e" transform="translate(393.408203 0)"/>
     <use xlink:href="#DejaVuSans-30" transform="translate(425.195312 0)"/>
    </g>
    <!-- samples = 38 -->
    <g transform="translate(258.945205 943.978053) scale(0.17545 -0.17545)">
     <defs>
      <path id="DejaVuSans-33" d="M 2597 2516 
Q 3050 2419 3304 2112 
Q 3559 1806 3559 1356 
Q 3559 666 3084 287 
Q 2609 -91 1734 -91 
Q 1441 -91 1130 -33 
Q 819 25 488 141 
L 488 750 
Q 750 597 1062 519 
Q 1375 441 1716 441 
Q 2309 441 2620 675 
Q 2931 909 2931 1356 
Q 2931 1769 2642 2001 
Q 2353 2234 1838 2234 
L 1294 2234 
L 1294 2753 
L 1863 2753 
Q 2328 2753 2575 2939 
Q 2822 3125 2822 3475 
Q 2822 3834 2567 4026 
Q 2313 4219 1838 4219 
Q 1578 4219 1281 4162 
Q 984 4106 628 3988 
L 628 4550 
Q 988 4650 1302 4700 
Q 1616 4750 1894 4750 
Q 2613 4750 3031 4423 
Q 3450 4097 3450 3541 
Q 3450 3153 3228 2886 
Q 3006 2619 2597 2516 
z
" transform="scale(0.015625)"/>
      <path id="DejaVuSans-38" d="M 2034 2216 
Q 1584 2216 1326 1975 
Q 1069 1734 1069 1313 
Q 1069 891 1326 650 
Q 1584 409 2034 409 
Q 2484 409 2743 651 
Q 3003 894 3003 1313 
Q 3003 1734 2745 1975 
Q 2488 2216 2034 2216 
z
M 1403 2484 
Q 997 2584 770 2862 
Q 544 3141 544 3541 
Q 544 4100 942 4425 
Q 1341 4750 2034 4750 
Q 2731 4750 3128 4425 
Q 3525 4100 3525 3541 
Q 3525 3141 3298 2862 
Q 3072 2584 2669 2484 
Q 3125 2378 3379 2068 
Q 3634 1759 3634 1313 
Q 3634 634 3220 271 
Q 2806 -91 2034 -91 
Q 1263 -91 848 271 
Q 434 634 434 1313 
Q 434 1759 690 2068 
Q 947 2378 1403 2484 
z
M 1172 3481 
Q 1172 3119 1398 2916 
Q 1625 2713 2034 2713 
Q 2441 2713 2670 2916 
Q 2900 3119 2900 3481 
Q 2900 3844 2670 4047 
Q 2441 4250 2034 4250 
Q 1625 4250 1398 4047 
Q 1172 3844 1172 3481 
z
" transform="scale(0.015625)"/>
     </defs>
     <use xlink:href="#DejaVuSans-73"/>
     <use xlink:href="#DejaVuSans-61" transform="translate(52.099609 0)"/>
     <use xlink:href="#DejaVuSans-6d" transform="translate(113.378906 0)"/>
     <use xlink:href="#DejaVuSans-70" transform="translate(210.791016 0)"/>
     <use xlink:href="#DejaVuSans-6c" transform="translate(274.267578 0)"/>
     <use xlink:href="#DejaVuSans-65" transform="translate(302.050781 0)"/>
     <use xlink:href="#DejaVuSans-73" transform="translate(363.574219 0)"/>
     <use xlink:href="#DejaVuSans-20" transform="translate(415.673828 0)"/>
     <use xlink:href="#DejaVuSans-3d" transform="translate(447.460938 0)"/>
     <use xlink:href="#DejaVuSans-20" transform="translate(531.25 0)"/>
     <use xlink:href="#DejaVuSans-33" transform="translate(563.037109 0)"/>
     <use xlink:href="#DejaVuSans-38" transform="translate(626.660156 0)"/>
    </g>
    <!-- value = [51, 0] -->
    <g transform="translate(253.444585 963.624573) scale(0.17545 -0.17545)">
     <defs>
      <path id="DejaVuSans-35" d="M 691 4666 
L 3169 4666 
L 3169 4134 
L 1269 4134 
L 1269 2991 
Q 1406 3038 1543 3061 
Q 1681 3084 1819 3084 
Q 2600 3084 3056 2656 
Q 3513 2228 3513 1497 
Q 3513 744 3044 326 
Q 2575 -91 1722 -91 
Q 1428 -91 1123 -41 
Q 819 9 494 109 
L 494 744 
Q 775 591 1075 516 
Q 1375 441 1709 441 
Q 2250 441 2565 725 
Q 2881 1009 2881 1497 
Q 2881 1984 2565 2268 
Q 2250 2553 1709 2553 
Q 1456 2553 1204 2497 
Q 953 2441 691 2322 
L 691 4666 
z
" transform="scale(0.015625)"/>
     </defs>
     <use xlink:href="#DejaVuSans-76"/>
     <use xlink:href="#DejaVuSans-61" transform="translate(59.179688 0)"/>
     <use xlink:href="#DejaVuSans-6c" transform="translate(120.458984 0)"/>
     <use xlink:href="#DejaVuSans-75" transform="translate(148.242188 0)"/>
     <use xlink:href="#DejaVuSans-65" transform="translate(211.621094 0)"/>
     <use xlink:href="#DejaVuSans-20" transform="translate(273.144531 0)"/>
     <use xlink:href="#DejaVuSans-3d" transform="translate(304.931641 0)"/>
     <use xlink:href="#DejaVuSans-20" transform="translate(388.720703 0)"/>
     <use xlink:href="#DejaVuSans-5b" transform="translate(420.507812 0)"/>
     <use xlink:href="#DejaVuSans-35" transform="translate(459.521484 0)"/>
     <use xlink:href="#DejaVuSans-31" transform="translate(523.144531 0)"/>
     <use xlink:href="#DejaVuSans-2c" transform="translate(586.767578 0)"/>
     <use xlink:href="#DejaVuSans-20" transform="translate(618.554688 0)"/>
     <use xlink:href="#DejaVuSans-30" transform="translate(650.341797 0)"/>
     <use xlink:href="#DejaVuSans-5d" transform="translate(713.964844 0)"/>
    </g>
    <!-- class = B -->
    <g transform="translate(278.777867 983.271094) scale(0.17545 -0.17545)">
     <use xlink:href="#DejaVuSans-63"/>
     <use xlink:href="#DejaVuSans-6c" transform="translate(54.980469 0)"/>
     <use xlink:href="#DejaVuSans-61" transform="translate(82.763672 0)"/>
     <use xlink:href="#DejaVuSans-73" transform="translate(144.042969 0)"/>
     <use xlink:href="#DejaVuSans-73" transform="translate(196.142578 0)"/>
     <use xlink:href="#DejaVuSans-20" transform="translate(248.242188 0)"/>
     <use xlink:href="#DejaVuSans-3d" transform="translate(280.029297 0)"/>
     <use xlink:href="#DejaVuSans-20" transform="translate(363.818359 0)"/>
     <use xlink:href="#DejaVuSans-42" transform="translate(395.605469 0)"/>
    </g>
   </g>
   <g id="patch_8">
    <path d="M 561.689872 890.44377 
Q 511.174496 810.140619 460.063805 728.891106 
" style="fill: none; stroke: #000000; stroke-linecap: round"/>
    <path d="M 560.923216 882.634969 
L 561.689872 890.44377 
L 554.982837 886.371814 
" style="fill: none; stroke: #000000; stroke-linecap: round"/>
   </g>
   <g id="text_4">
    <g id="patch_9">
     <path d="M 485.144462 1003.850239 
L 711.855538 1003.850239 
L 711.855538 893.581792 
L 485.144462 893.581792 
z
" style="fill: #ffffff; stroke: #000000; stroke-linejoin: miter"/>
    </g>
    <!-- texture_mean &lt;= 77.16 -->
    <g transform="translate(492.162447 914.109398) scale(0.17545 -0.17545)">
     <defs>
      <path id="DejaVuSans-74" d="M 1172 4494 
L 1172 3500 
L 2356 3500 
L 2356 3053 
L 1172 3053 
L 1172 1153 
Q 1172 725 1289 603 
Q 1406 481 1766 481 
L 2356 481 
L 2356 0 
L 1766 0 
Q 1100 0 847 248 
Q 594 497 594 1153 
L 594 3053 
L 172 3053 
L 172 3500 
L 594 3500 
L 594 4494 
L 1172 4494 
z
" transform="scale(0.015625)"/>
      <path id="DejaVuSans-78" d="M 3513 3500 
L 2247 1797 
L 3578 0 
L 2900 0 
L 1881 1375 
L 863 0 
L 184 0 
L 1544 1831 
L 300 3500 
L 978 3500 
L 1906 2253 
L 2834 3500 
L 3513 3500 
z
" transform="scale(0.015625)"/>
      <path id="DejaVuSans-72" d="M 2631 2963 
Q 2534 3019 2420 3045 
Q 2306 3072 2169 3072 
Q 1681 3072 1420 2755 
Q 1159 2438 1159 1844 
L 1159 0 
L 581 0 
L 581 3500 
L 1159 3500 
L 1159 2956 
Q 1341 3275 1631 3429 
Q 1922 3584 2338 3584 
Q 2397 3584 2469 3576 
Q 2541 3569 2628 3553 
L 2631 2963 
z
" transform="scale(0.015625)"/>
      <path id="DejaVuSans-5f" d="M 3263 -1063 
L 3263 -1509 
L -63 -1509 
L -63 -1063 
L 3263 -1063 
z
" transform="scale(0.015625)"/>
      <path id="DejaVuSans-3c" d="M 4684 3150 
L 1459 2003 
L 4684 863 
L 4684 294 
L 678 1747 
L 678 2266 
L 4684 3719 
L 4684 3150 
z
" transform="scale(0.015625)"/>
      <path id="DejaVuSans-37" d="M 525 4666 
L 3525 4666 
L 3525 4397 
L 1831 0 
L 1172 0 
L 2766 4134 
L 525 4134 
L 525 4666 
z
" transform="scale(0.015625)"/>
      <path id="DejaVuSans-36" d="M 2113 2584 
Q 1688 2584 1439 2293 
Q 1191 2003 1191 1497 
Q 1191 994 1439 701 
Q 1688 409 2113 409 
Q 2538 409 2786 701 
Q 3034 994 3034 1497 
Q 3034 2003 2786 2293 
Q 2538 2584 2113 2584 
z
M 3366 4563 
L 3366 3988 
Q 3128 4100 2886 4159 
Q 2644 4219 2406 4219 
Q 1781 4219 1451 3797 
Q 1122 3375 1075 2522 
Q 1259 2794 1537 2939 
Q 1816 3084 2150 3084 
Q 2853 3084 3261 2657 
Q 3669 2231 3669 1497 
Q 3669 778 3244 343 
Q 2819 -91 2113 -91 
Q 1303 -91 875 529 
Q 447 1150 447 2328 
Q 447 3434 972 4092 
Q 1497 4750 2381 4750 
Q 2619 4750 2861 4703 
Q 3103 4656 3366 4563 
z
" transform="scale(0.015625)"/>
     </defs>
     <use xlink:href="#DejaVuSans-74"/>
     <use xlink:href="#DejaVuSans-65" transform="translate(39.208984 0)"/>
     <use xlink:href="#DejaVuSans-78" transform="translate(98.982422 0)"/>
     <use xlink:href="#DejaVuSans-74" transform="translate(158.162109 0)"/>
     <use xlink:href="#DejaVuSans-75" transform="translate(197.371094 0)"/>
     <use xlink:href="#DejaVuSans-72" transform="translate(260.75 0)"/>
     <use xlink:href="#DejaVuSans-65" transform="translate(299.613281 0)"/>
     <use xlink:href="#DejaVuSans-5f" transform="translate(361.136719 0)"/>
     <use xlink:href="#DejaVuSans-6d" transform="translate(411.136719 0)"/>
     <use xlink:href="#DejaVuSans-65" transform="translate(508.548828 0)"/>
     <use xlink:href="#DejaVuSans-61" transform="translate(570.072266 0)"/>
     <use xlink:href="#DejaVuSans-6e" transform="translate(631.351562 0)"/>
     <use xlink:href="#DejaVuSans-20" transform="translate(694.730469 0)"/>
     <use xlink:href="#DejaVuSans-3c" transform="translate(726.517578 0)"/>
     <use xlink:href="#DejaVuSans-3d" transform="translate(810.306641 0)"/>
     <use xlink:href="#DejaVuSans-20" transform="translate(894.095703 0)"/>
     <use xlink:href="#DejaVuSans-37" transform="translate(925.882812 0)"/>
     <use xlink:href="#DejaVuSans-37" transform="translate(989.505859 0)"/>
     <use xlink:href="#DejaVuSans-2e" transform="translate(1053.128906 0)"/>
     <use xlink:href="#DejaVuSans-31" transform="translate(1084.916016 0)"/>
     <use xlink:href="#DejaVuSans-36" transform="translate(1148.539062 0)"/>
    </g>
    <!-- gini = 0.5 -->
    <g transform="translate(555.619014 934.243888) scale(0.17545 -0.17545)">
     <use xlink:href="#DejaVuSans-67"/>
     <use xlink:href="#DejaVuSans-69" transform="translate(63.476562 0)"/>
     <use xlink:href="#DejaVuSans-6e" transform="translate(91.259766 0)"/>
     <use xlink:href="#DejaVuSans-69" transform="translate(154.638672 0)"/>
     <use xlink:href="#DejaVuSans-20" transform="translate(182.421875 0)"/>
     <use xlink:href="#DejaVuSans-3d" transform="translate(214.208984 0)"/>
     <use xlink:href="#DejaVuSans-20" transform="translate(297.998047 0)"/>
     <use xlink:href="#DejaVuSans-30" transform="translate(329.785156 0)"/>
     <use xlink:href="#DejaVuSans-2e" transform="translate(393.408203 0)"/>
     <use xlink:href="#DejaVuSans-35" transform="translate(425.195312 0)"/>
    </g>
    <!-- samples = 2 -->
    <g transform="translate(543.526697 953.890409) scale(0.17545 -0.17545)">
     <defs>
      <path id="DejaVuSans-32" d="M 1228 531 
L 3431 531 
L 3431 0 
L 469 0 
L 469 531 
Q 828 903 1448 1529 
Q 2069 2156 2228 2338 
Q 2531 2678 2651 2914 
Q 2772 3150 2772 3378 
Q 2772 3750 2511 3984 
Q 2250 4219 1831 4219 
Q 1534 4219 1204 4116 
Q 875 4013 500 3803 
L 500 4441 
Q 881 4594 1212 4672 
Q 1544 4750 1819 4750 
Q 2544 4750 2975 4387 
Q 3406 4025 3406 3419 
Q 3406 3131 3298 2873 
Q 3191 2616 2906 2266 
Q 2828 2175 2409 1742 
Q 1991 1309 1228 531 
z
" transform="scale(0.015625)"/>
     </defs>
     <use xlink:href="#DejaVuSans-73"/>
     <use xlink:href="#DejaVuSans-61" transform="translate(52.099609 0)"/>
     <use xlink:href="#DejaVuSans-6d" transform="translate(113.378906 0)"/>
     <use xlink:href="#DejaVuSans-70" transform="translate(210.791016 0)"/>
     <use xlink:href="#DejaVuSans-6c" transform="translate(274.267578 0)"/>
     <use xlink:href="#DejaVuSans-65" transform="translate(302.050781 0)"/>
     <use xlink:href="#DejaVuSans-73" transform="translate(363.574219 0)"/>
     <use xlink:href="#DejaVuSans-20" transform="translate(415.673828 0)"/>
     <use xlink:href="#DejaVuSans-3d" transform="translate(447.460938 0)"/>
     <use xlink:href="#DejaVuSans-20" transform="translate(531.25 0)"/>
     <use xlink:href="#DejaVuSans-32" transform="translate(563.037109 0)"/>
    </g>
    <!-- value = [1, 1] -->
    <g transform="translate(538.026077 973.536929) scale(0.17545 -0.17545)">
     <use xlink:href="#DejaVuSans-76"/>
     <use xlink:href="#DejaVuSans-61" transform="translate(59.179688 0)"/>
     <use xlink:href="#DejaVuSans-6c" transform="translate(120.458984 0)"/>
     <use xlink:href="#DejaVuSans-75" transform="translate(148.242188 0)"/>
     <use xlink:href="#DejaVuSans-65" transform="translate(211.621094 0)"/>
     <use xlink:href="#DejaVuSans-20" transform="translate(273.144531 0)"/>
     <use xlink:href="#DejaVuSans-3d" transform="translate(304.931641 0)"/>
     <use xlink:href="#DejaVuSans-20" transform="translate(388.720703 0)"/>
     <use xlink:href="#DejaVuSans-5b" transform="translate(420.507812 0)"/>
     <use xlink:href="#DejaVuSans-31" transform="translate(459.521484 0)"/>
     <use xlink:href="#DejaVuSans-2c" transform="translate(523.144531 0)"/>
     <use xlink:href="#DejaVuSans-20" transform="translate(554.931641 0)"/>
     <use xlink:href="#DejaVuSans-31" transform="translate(586.71875 0)"/>
     <use xlink:href="#DejaVuSans-5d" transform="translate(650.341797 0)"/>
    </g>
    <!-- class = B -->
    <g transform="translate(557.777867 993.18345) scale(0.17545 -0.17545)">
     <use xlink:href="#DejaVuSans-63"/>
     <use xlink:href="#DejaVuSans-6c" transform="translate(54.980469 0)"/>
     <use xlink:href="#DejaVuSans-61" transform="translate(82.763672 0)"/>
     <use xlink:href="#DejaVuSans-73" transform="translate(144.042969 0)"/>
     <use xlink:href="#DejaVuSans-73" transform="translate(196.142578 0)"/>
     <use xlink:href="#DejaVuSans-20" transform="translate(248.242188 0)"/>
     <use xlink:href="#DejaVuSans-3d" transform="translate(280.029297 0)"/>
     <use xlink:href="#DejaVuSans-20" transform="translate(363.818359 0)"/>
     <use xlink:href="#DejaVuSans-42" transform="translate(395.605469 0)"/>
    </g>
   </g>
   <g id="patch_10">
    <path d="M 907.765919 900.846951 
Q 961.553215 815.342502 1015.935827 728.891692 
" style="fill: none; stroke: #000000; stroke-linecap: round"/>
    <path d="M 914.472954 896.774995 
L 907.765919 900.846951 
L 908.532576 893.03815 
" style="fill: none; stroke: #000000; stroke-linecap: round"/>
   </g>
   <g id="text_5">
    <g id="patch_11">
     <path d="M 810.008092 993.937883 
L 944.991908 993.937883 
L 944.991908 903.982117 
L 810.008092 903.982117 
z
" style="fill: #e58139; stroke: #000000; stroke-linejoin: miter"/>
    </g>
    <!-- gini = 0.0 -->
    <g transform="translate(834.619014 924.331532) scale(0.17545 -0.17545)">
     <use xlink:href="#DejaVuSans-67"/>
     <use xlink:href="#DejaVuSans-69" transform="translate(63.476562 0)"/>
     <use xlink:href="#DejaVuSans-6e" transform="translate(91.259766 0)"/>
     <use xlink:href="#DejaVuSans-69" transform="translate(154.638672 0)"/>
     <use xlink:href="#DejaVuSans-20" transform="translate(182.421875 0)"/>
     <use xlink:href="#DejaVuSans-3d" transform="translate(214.208984 0)"/>
     <use xlink:href="#DejaVuSans-20" transform="translate(297.998047 0)"/>
     <use xlink:href="#DejaVuSans-30" transform="translate(329.785156 0)"/>
     <use xlink:href="#DejaVuSans-2e" transform="translate(393.408203 0)"/>
     <use xlink:href="#DejaVuSans-30" transform="translate(425.195312 0)"/>
    </g>
    <!-- samples = 4 -->
    <g transform="translate(822.526697 943.978053) scale(0.17545 -0.17545)">
     <defs>
      <path id="DejaVuSans-34" d="M 2419 4116 
L 825 1625 
L 2419 1625 
L 2419 4116 
z
M 2253 4666 
L 3047 4666 
L 3047 1625 
L 3713 1625 
L 3713 1100 
L 3047 1100 
L 3047 0 
L 2419 0 
L 2419 1100 
L 313 1100 
L 313 1709 
L 2253 4666 
z
" transform="scale(0.015625)"/>
     </defs>
     <use xlink:href="#DejaVuSans-73"/>
     <use xlink:href="#DejaVuSans-61" transform="translate(52.099609 0)"/>
     <use xlink:href="#DejaVuSans-6d" transform="translate(113.378906 0)"/>
     <use xlink:href="#DejaVuSans-70" transform="translate(210.791016 0)"/>
     <use xlink:href="#DejaVuSans-6c" transform="translate(274.267578 0)"/>
     <use xlink:href="#DejaVuSans-65" transform="translate(302.050781 0)"/>
     <use xlink:href="#DejaVuSans-73" transform="translate(363.574219 0)"/>
     <use xlink:href="#DejaVuSans-20" transform="translate(415.673828 0)"/>
     <use xlink:href="#DejaVuSans-3d" transform="translate(447.460938 0)"/>
     <use xlink:href="#DejaVuSans-20" transform="translate(531.25 0)"/>
     <use xlink:href="#DejaVuSans-34" transform="translate(563.037109 0)"/>
    </g>
    <!-- value = [7, 0] -->
    <g transform="translate(817.026077 963.624573) scale(0.17545 -0.17545)">
     <use xlink:href="#DejaVuSans-76"/>
     <use xlink:href="#DejaVuSans-61" transform="translate(59.179688 0)"/>
     <use xlink:href="#DejaVuSans-6c" transform="translate(120.458984 0)"/>
     <use xlink:href="#DejaVuSans-75" transform="translate(148.242188 0)"/>
     <use xlink:href="#DejaVuSans-65" transform="translate(211.621094 0)"/>
     <use xlink:href="#DejaVuSans-20" transform="translate(273.144531 0)"/>
     <use xlink:href="#DejaVuSans-3d" transform="translate(304.931641 0)"/>
     <use xlink:href="#DejaVuSans-20" transform="translate(388.720703 0)"/>
     <use xlink:href="#DejaVuSans-5b" transform="translate(420.507812 0)"/>
     <use xlink:href="#DejaVuSans-37" transform="translate(459.521484 0)"/>
     <use xlink:href="#DejaVuSans-2c" transform="translate(523.144531 0)"/>
     <use xlink:href="#DejaVuSans-20" transform="translate(554.931641 0)"/>
     <use xlink:href="#DejaVuSans-30" transform="translate(586.71875 0)"/>
     <use xlink:href="#DejaVuSans-5d" transform="translate(650.341797 0)"/>
    </g>
    <!-- class = B -->
    <g transform="translate(836.777867 983.271094) scale(0.17545 -0.17545)">
     <use xlink:href="#DejaVuSans-63"/>
     <use xlink:href="#DejaVuSans-6c" transform="translate(54.980469 0)"/>
     <use xlink:href="#DejaVuSans-61" transform="translate(82.763672 0)"/>
     <use xlink:href="#DejaVuSans-73" transform="translate(144.042969 0)"/>
     <use xlink:href="#DejaVuSans-73" transform="translate(196.142578 0)"/>
     <use xlink:href="#DejaVuSans-20" transform="translate(248.242188 0)"/>
     <use xlink:href="#DejaVuSans-3d" transform="translate(280.029297 0)"/>
     <use xlink:href="#DejaVuSans-20" transform="translate(363.818359 0)"/>
     <use xlink:href="#DejaVuSans-42" transform="translate(395.605469 0)"/>
    </g>
   </g>
   <g id="patch_12">
    <path d="M 1126.234081 900.846951 
Q 1072.446785 815.342502 1018.064173 728.891692 
" style="fill: none; stroke: #000000; stroke-linecap: round"/>
    <path d="M 1125.467424 893.03815 
L 1126.234081 900.846951 
L 1119.527046 896.774995 
" style="fill: none; stroke: #000000; stroke-linecap: round"/>
   </g>
   <g id="text_6">
    <g id="patch_13">
     <path d="M 1089.008092 993.937883 
L 1223.991908 993.937883 
L 1223.991908 903.982117 
L 1089.008092 903.982117 
z
" style="fill: #399de5; stroke: #000000; stroke-linejoin: miter"/>
    </g>
    <!-- gini = 0.0 -->
    <g transform="translate(1113.619014 924.331532) scale(0.17545 -0.17545)">
     <use xlink:href="#DejaVuSans-67"/>
     <use xlink:href="#DejaVuSans-69" transform="translate(63.476562 0)"/>
     <use xlink:href="#DejaVuSans-6e" transform="translate(91.259766 0)"/>
     <use xlink:href="#DejaVuSans-69" transform="translate(154.638672 0)"/>
     <use xlink:href="#DejaVuSans-20" transform="translate(182.421875 0)"/>
     <use xlink:href="#DejaVuSans-3d" transform="translate(214.208984 0)"/>
     <use xlink:href="#DejaVuSans-20" transform="translate(297.998047 0)"/>
     <use xlink:href="#DejaVuSans-30" transform="translate(329.785156 0)"/>
     <use xlink:href="#DejaVuSans-2e" transform="translate(393.408203 0)"/>
     <use xlink:href="#DejaVuSans-30" transform="translate(425.195312 0)"/>
    </g>
    <!-- samples = 4 -->
    <g transform="translate(1101.526697 943.978053) scale(0.17545 -0.17545)">
     <use xlink:href="#DejaVuSans-73"/>
     <use xlink:href="#DejaVuSans-61" transform="translate(52.099609 0)"/>
     <use xlink:href="#DejaVuSans-6d" transform="translate(113.378906 0)"/>
     <use xlink:href="#DejaVuSans-70" transform="translate(210.791016 0)"/>
     <use xlink:href="#DejaVuSans-6c" transform="translate(274.267578 0)"/>
     <use xlink:href="#DejaVuSans-65" transform="translate(302.050781 0)"/>
     <use xlink:href="#DejaVuSans-73" transform="translate(363.574219 0)"/>
     <use xlink:href="#DejaVuSans-20" transform="translate(415.673828 0)"/>
     <use xlink:href="#DejaVuSans-3d" transform="translate(447.460938 0)"/>
     <use xlink:href="#DejaVuSans-20" transform="translate(531.25 0)"/>
     <use xlink:href="#DejaVuSans-34" transform="translate(563.037109 0)"/>
    </g>
    <!-- value = [0, 6] -->
    <g transform="translate(1096.026077 963.624573) scale(0.17545 -0.17545)">
     <use xlink:href="#DejaVuSans-76"/>
     <use xlink:href="#DejaVuSans-61" transform="translate(59.179688 0)"/>
     <use xlink:href="#DejaVuSans-6c" transform="translate(120.458984 0)"/>
     <use xlink:href="#DejaVuSans-75" transform="translate(148.242188 0)"/>
     <use xlink:href="#DejaVuSans-65" transform="translate(211.621094 0)"/>
     <use xlink:href="#DejaVuSans-20" transform="translate(273.144531 0)"/>
     <use xlink:href="#DejaVuSans-3d" transform="translate(304.931641 0)"/>
     <use xlink:href="#DejaVuSans-20" transform="translate(388.720703 0)"/>
     <use xlink:href="#DejaVuSans-5b" transform="translate(420.507812 0)"/>
     <use xlink:href="#DejaVuSans-30" transform="translate(459.521484 0)"/>
     <use xlink:href="#DejaVuSans-2c" transform="translate(523.144531 0)"/>
     <use xlink:href="#DejaVuSans-20" transform="translate(554.931641 0)"/>
     <use xlink:href="#DejaVuSans-36" transform="translate(586.71875 0)"/>
     <use xlink:href="#DejaVuSans-5d" transform="translate(650.341797 0)"/>
    </g>
    <!-- class = M -->
    <g transform="translate(1114.227605 983.271094) scale(0.17545 -0.17545)">
     <use xlink:href="#DejaVuSans-63"/>
     <use xlink:href="#DejaVuSans-6c" transform="translate(54.980469 0)"/>
     <use xlink:href="#DejaVuSans-61" transform="translate(82.763672 0)"/>
     <use xlink:href="#DejaVuSans-73" transform="translate(144.042969 0)"/>
     <use xlink:href="#DejaVuSans-73" transform="translate(196.142578 0)"/>
     <use xlink:href="#DejaVuSans-20" transform="translate(248.242188 0)"/>
     <use xlink:href="#DejaVuSans-3d" transform="translate(280.029297 0)"/>
     <use xlink:href="#DejaVuSans-20" transform="translate(363.818359 0)"/>
     <use xlink:href="#DejaVuSans-4d" transform="translate(395.605469 0)"/>
    </g>
   </g>
   <g id="patch_14">
    <path d="M 531.740129 669.38333 
Q 633.65019 588.381268 736.435488 506.683535 
" style="fill: none; stroke: #000000; stroke-linecap: round"/>
    <path d="M 539.417454 667.763506 
L 531.740129 669.38333 
L 535.050665 662.269576 
" style="fill: none; stroke: #000000; stroke-linecap: round"/>
   </g>
   <g id="text_7">
    <g id="patch_15">
     <path d="M 319.284526 782.090239 
L 598.715474 782.090239 
L 598.715474 671.821792 
L 319.284526 671.821792 
z
" style="fill: #e6833d; stroke: #000000; stroke-linejoin: miter"/>
    </g>
    <!-- compactness_mean &lt;= 0.117 -->
    <g transform="translate(326.302511 692.349398) scale(0.17545 -0.17545)">
     <defs>
      <path id="DejaVuSans-6f" d="M 1959 3097 
Q 1497 3097 1228 2736 
Q 959 2375 959 1747 
Q 959 1119 1226 758 
Q 1494 397 1959 397 
Q 2419 397 2687 759 
Q 2956 1122 2956 1747 
Q 2956 2369 2687 2733 
Q 2419 3097 1959 3097 
z
M 1959 3584 
Q 2709 3584 3137 3096 
Q 3566 2609 3566 1747 
Q 3566 888 3137 398 
Q 2709 -91 1959 -91 
Q 1206 -91 779 398 
Q 353 888 353 1747 
Q 353 2609 779 3096 
Q 1206 3584 1959 3584 
z
" transform="scale(0.015625)"/>
     </defs>
     <use xlink:href="#DejaVuSans-63"/>
     <use xlink:href="#DejaVuSans-6f" transform="translate(54.980469 0)"/>
     <use xlink:href="#DejaVuSans-6d" transform="translate(116.162109 0)"/>
     <use xlink:href="#DejaVuSans-70" transform="translate(213.574219 0)"/>
     <use xlink:href="#DejaVuSans-61" transform="translate(277.050781 0)"/>
     <use xlink:href="#DejaVuSans-63" transform="translate(338.330078 0)"/>
     <use xlink:href="#DejaVuSans-74" transform="translate(393.310547 0)"/>
     <use xlink:href="#DejaVuSans-6e" transform="translate(432.519531 0)"/>
     <use xlink:href="#DejaVuSans-65" transform="translate(495.898438 0)"/>
     <use xlink:href="#DejaVuSans-73" transform="translate(557.421875 0)"/>
     <use xlink:href="#DejaVuSans-73" transform="translate(609.521484 0)"/>
     <use xlink:href="#DejaVuSans-5f" transform="translate(661.621094 0)"/>
     <use xlink:href="#DejaVuSans-6d" transform="translate(711.621094 0)"/>
     <use xlink:href="#DejaVuSans-65" transform="translate(809.033203 0)"/>
     <use xlink:href="#DejaVuSans-61" transform="translate(870.556641 0)"/>
     <use xlink:href="#DejaVuSans-6e" transform="translate(931.835938 0)"/>
     <use xlink:href="#DejaVuSans-20" transform="translate(995.214844 0)"/>
     <use xlink:href="#DejaVuSans-3c" transform="translate(1027.001953 0)"/>
     <use xlink:href="#DejaVuSans-3d" transform="translate(1110.791016 0)"/>
     <use xlink:href="#DejaVuSans-20" transform="translate(1194.580078 0)"/>
     <use xlink:href="#DejaVuSans-30" transform="translate(1226.367188 0)"/>
     <use xlink:href="#DejaVuSans-2e" transform="translate(1289.990234 0)"/>
     <use xlink:href="#DejaVuSans-31" transform="translate(1321.777344 0)"/>
     <use xlink:href="#DejaVuSans-31" transform="translate(1385.400391 0)"/>
     <use xlink:href="#DejaVuSans-37" transform="translate(1449.023438 0)"/>
    </g>
    <!-- gini = 0.037 -->
    <g transform="translate(404.956031 712.483888) scale(0.17545 -0.17545)">
     <use xlink:href="#DejaVuSans-67"/>
     <use xlink:href="#DejaVuSans-69" transform="translate(63.476562 0)"/>
     <use xlink:href="#DejaVuSans-6e" transform="translate(91.259766 0)"/>
     <use xlink:href="#DejaVuSans-69" transform="translate(154.638672 0)"/>
     <use xlink:href="#DejaVuSans-20" transform="translate(182.421875 0)"/>
     <use xlink:href="#DejaVuSans-3d" transform="translate(214.208984 0)"/>
     <use xlink:href="#DejaVuSans-20" transform="translate(297.998047 0)"/>
     <use xlink:href="#DejaVuSans-30" transform="translate(329.785156 0)"/>
     <use xlink:href="#DejaVuSans-2e" transform="translate(393.408203 0)"/>
     <use xlink:href="#DejaVuSans-30" transform="translate(425.195312 0)"/>
     <use xlink:href="#DejaVuSans-33" transform="translate(488.818359 0)"/>
     <use xlink:href="#DejaVuSans-37" transform="translate(552.441406 0)"/>
    </g>
    <!-- samples = 40 -->
    <g transform="translate(398.445205 732.130409) scale(0.17545 -0.17545)">
     <use xlink:href="#DejaVuSans-73"/>
     <use xlink:href="#DejaVuSans-61" transform="translate(52.099609 0)"/>
     <use xlink:href="#DejaVuSans-6d" transform="translate(113.378906 0)"/>
     <use xlink:href="#DejaVuSans-70" transform="translate(210.791016 0)"/>
     <use xlink:href="#DejaVuSans-6c" transform="translate(274.267578 0)"/>
     <use xlink:href="#DejaVuSans-65" transform="translate(302.050781 0)"/>
     <use xlink:href="#DejaVuSans-73" transform="translate(363.574219 0)"/>
     <use xlink:href="#DejaVuSans-20" transform="translate(415.673828 0)"/>
     <use xlink:href="#DejaVuSans-3d" transform="translate(447.460938 0)"/>
     <use xlink:href="#DejaVuSans-20" transform="translate(531.25 0)"/>
     <use xlink:href="#DejaVuSans-34" transform="translate(563.037109 0)"/>
     <use xlink:href="#DejaVuSans-30" transform="translate(626.660156 0)"/>
    </g>
    <!-- value = [52, 1] -->
    <g transform="translate(392.944585 751.776929) scale(0.17545 -0.17545)">
     <use xlink:href="#DejaVuSans-76"/>
     <use xlink:href="#DejaVuSans-61" transform="translate(59.179688 0)"/>
     <use xlink:href="#DejaVuSans-6c" transform="translate(120.458984 0)"/>
     <use xlink:href="#DejaVuSans-75" transform="translate(148.242188 0)"/>
     <use xlink:href="#DejaVuSans-65" transform="translate(211.621094 0)"/>
     <use xlink:href="#DejaVuSans-20" transform="translate(273.144531 0)"/>
     <use xlink:href="#DejaVuSans-3d" transform="translate(304.931641 0)"/>
     <use xlink:href="#DejaVuSans-20" transform="translate(388.720703 0)"/>
     <use xlink:href="#DejaVuSans-5b" transform="translate(420.507812 0)"/>
     <use xlink:href="#DejaVuSans-35" transform="translate(459.521484 0)"/>
     <use xlink:href="#DejaVuSans-32" transform="translate(523.144531 0)"/>
     <use xlink:href="#DejaVuSans-2c" transform="translate(586.767578 0)"/>
     <use xlink:href="#DejaVuSans-20" transform="translate(618.554688 0)"/>
     <use xlink:href="#DejaVuSans-31" transform="translate(650.341797 0)"/>
     <use xlink:href="#DejaVuSans-5d" transform="translate(713.964844 0)"/>
    </g>
    <!-- class = B -->
    <g transform="translate(418.277867 771.42345) scale(0.17545 -0.17545)">
     <use xlink:href="#DejaVuSans-63"/>
     <use xlink:href="#DejaVuSans-6c" transform="translate(54.980469 0)"/>
     <use xlink:href="#DejaVuSans-61" transform="translate(82.763672 0)"/>
     <use xlink:href="#DejaVuSans-73" transform="translate(144.042969 0)"/>
     <use xlink:href="#DejaVuSans-73" transform="translate(196.142578 0)"/>
     <use xlink:href="#DejaVuSans-20" transform="translate(248.242188 0)"/>
     <use xlink:href="#DejaVuSans-3d" transform="translate(280.029297 0)"/>
     <use xlink:href="#DejaVuSans-20" transform="translate(363.818359 0)"/>
     <use xlink:href="#DejaVuSans-42" transform="translate(395.605469 0)"/>
    </g>
   </g>
   <g id="patch_16">
    <path d="M 944.259871 669.38333 
Q 842.34981 588.381268 739.564512 506.683535 
" style="fill: none; stroke: #000000; stroke-linecap: round"/>
    <path d="M 940.949335 662.269576 
L 944.259871 669.38333 
L 936.582546 667.763506 
" style="fill: none; stroke: #000000; stroke-linecap: round"/>
   </g>
   <g id="text_8">
    <g id="patch_17">
     <path d="M 877.284526 782.090239 
L 1156.715474 782.090239 
L 1156.715474 671.821792 
L 877.284526 671.821792 
z
" style="fill: #fbede3; stroke: #000000; stroke-linejoin: miter"/>
    </g>
    <!-- compactness_mean &lt;= 0.078 -->
    <g transform="translate(884.302511 692.349398) scale(0.17545 -0.17545)">
     <use xlink:href="#DejaVuSans-63"/>
     <use xlink:href="#DejaVuSans-6f" transform="translate(54.980469 0)"/>
     <use xlink:href="#DejaVuSans-6d" transform="translate(116.162109 0)"/>
     <use xlink:href="#DejaVuSans-70" transform="translate(213.574219 0)"/>
     <use xlink:href="#DejaVuSans-61" transform="translate(277.050781 0)"/>
     <use xlink:href="#DejaVuSans-63" transform="translate(338.330078 0)"/>
     <use xlink:href="#DejaVuSans-74" transform="translate(393.310547 0)"/>
     <use xlink:href="#DejaVuSans-6e" transform="translate(432.519531 0)"/>
     <use xlink:href="#DejaVuSans-65" transform="translate(495.898438 0)"/>
     <use xlink:href="#DejaVuSans-73" transform="translate(557.421875 0)"/>
     <use xlink:href="#DejaVuSans-73" transform="translate(609.521484 0)"/>
     <use xlink:href="#DejaVuSans-5f" transform="translate(661.621094 0)"/>
     <use xlink:href="#DejaVuSans-6d" transform="translate(711.621094 0)"/>
     <use xlink:href="#DejaVuSans-65" transform="translate(809.033203 0)"/>
     <use xlink:href="#DejaVuSans-61" transform="translate(870.556641 0)"/>
     <use xlink:href="#DejaVuSans-6e" transform="translate(931.835938 0)"/>
     <use xlink:href="#DejaVuSans-20" transform="translate(995.214844 0)"/>
     <use xlink:href="#DejaVuSans-3c" transform="translate(1027.001953 0)"/>
     <use xlink:href="#DejaVuSans-3d" transform="translate(1110.791016 0)"/>
     <use xlink:href="#DejaVuSans-20" transform="translate(1194.580078 0)"/>
     <use xlink:href="#DejaVuSans-30" transform="translate(1226.367188 0)"/>
     <use xlink:href="#DejaVuSans-2e" transform="translate(1289.990234 0)"/>
     <use xlink:href="#DejaVuSans-30" transform="translate(1321.777344 0)"/>
     <use xlink:href="#DejaVuSans-37" transform="translate(1385.400391 0)"/>
     <use xlink:href="#DejaVuSans-38" transform="translate(1449.023438 0)"/>
    </g>
    <!-- gini = 0.497 -->
    <g transform="translate(962.956031 712.483888) scale(0.17545 -0.17545)">
     <defs>
      <path id="DejaVuSans-39" d="M 703 97 
L 703 672 
Q 941 559 1184 500 
Q 1428 441 1663 441 
Q 2288 441 2617 861 
Q 2947 1281 2994 2138 
Q 2813 1869 2534 1725 
Q 2256 1581 1919 1581 
Q 1219 1581 811 2004 
Q 403 2428 403 3163 
Q 403 3881 828 4315 
Q 1253 4750 1959 4750 
Q 2769 4750 3195 4129 
Q 3622 3509 3622 2328 
Q 3622 1225 3098 567 
Q 2575 -91 1691 -91 
Q 1453 -91 1209 -44 
Q 966 3 703 97 
z
M 1959 2075 
Q 2384 2075 2632 2365 
Q 2881 2656 2881 3163 
Q 2881 3666 2632 3958 
Q 2384 4250 1959 4250 
Q 1534 4250 1286 3958 
Q 1038 3666 1038 3163 
Q 1038 2656 1286 2365 
Q 1534 2075 1959 2075 
z
" transform="scale(0.015625)"/>
     </defs>
     <use xlink:href="#DejaVuSans-67"/>
     <use xlink:href="#DejaVuSans-69" transform="translate(63.476562 0)"/>
     <use xlink:href="#DejaVuSans-6e" transform="translate(91.259766 0)"/>
     <use xlink:href="#DejaVuSans-69" transform="translate(154.638672 0)"/>
     <use xlink:href="#DejaVuSans-20" transform="translate(182.421875 0)"/>
     <use xlink:href="#DejaVuSans-3d" transform="translate(214.208984 0)"/>
     <use xlink:href="#DejaVuSans-20" transform="translate(297.998047 0)"/>
     <use xlink:href="#DejaVuSans-30" transform="translate(329.785156 0)"/>
     <use xlink:href="#DejaVuSans-2e" transform="translate(393.408203 0)"/>
     <use xlink:href="#DejaVuSans-34" transform="translate(425.195312 0)"/>
     <use xlink:href="#DejaVuSans-39" transform="translate(488.818359 0)"/>
     <use xlink:href="#DejaVuSans-37" transform="translate(552.441406 0)"/>
    </g>
    <!-- samples = 8 -->
    <g transform="translate(962.026697 732.130409) scale(0.17545 -0.17545)">
     <use xlink:href="#DejaVuSans-73"/>
     <use xlink:href="#DejaVuSans-61" transform="translate(52.099609 0)"/>
     <use xlink:href="#DejaVuSans-6d" transform="translate(113.378906 0)"/>
     <use xlink:href="#DejaVuSans-70" transform="translate(210.791016 0)"/>
     <use xlink:href="#DejaVuSans-6c" transform="translate(274.267578 0)"/>
     <use xlink:href="#DejaVuSans-65" transform="translate(302.050781 0)"/>
     <use xlink:href="#DejaVuSans-73" transform="translate(363.574219 0)"/>
     <use xlink:href="#DejaVuSans-20" transform="translate(415.673828 0)"/>
     <use xlink:href="#DejaVuSans-3d" transform="translate(447.460938 0)"/>
     <use xlink:href="#DejaVuSans-20" transform="translate(531.25 0)"/>
     <use xlink:href="#DejaVuSans-38" transform="translate(563.037109 0)"/>
    </g>
    <!-- value = [7, 6] -->
    <g transform="translate(956.526077 751.776929) scale(0.17545 -0.17545)">
     <use xlink:href="#DejaVuSans-76"/>
     <use xlink:href="#DejaVuSans-61" transform="translate(59.179688 0)"/>
     <use xlink:href="#DejaVuSans-6c" transform="translate(120.458984 0)"/>
     <use xlink:href="#DejaVuSans-75" transform="translate(148.242188 0)"/>
     <use xlink:href="#DejaVuSans-65" transform="translate(211.621094 0)"/>
     <use xlink:href="#DejaVuSans-20" transform="translate(273.144531 0)"/>
     <use xlink:href="#DejaVuSans-3d" transform="translate(304.931641 0)"/>
     <use xlink:href="#DejaVuSans-20" transform="translate(388.720703 0)"/>
     <use xlink:href="#DejaVuSans-5b" transform="translate(420.507812 0)"/>
     <use xlink:href="#DejaVuSans-37" transform="translate(459.521484 0)"/>
     <use xlink:href="#DejaVuSans-2c" transform="translate(523.144531 0)"/>
     <use xlink:href="#DejaVuSans-20" transform="translate(554.931641 0)"/>
     <use xlink:href="#DejaVuSans-36" transform="translate(586.71875 0)"/>
     <use xlink:href="#DejaVuSans-5d" transform="translate(650.341797 0)"/>
    </g>
    <!-- class = B -->
    <g transform="translate(976.277867 771.42345) scale(0.17545 -0.17545)">
     <use xlink:href="#DejaVuSans-63"/>
     <use xlink:href="#DejaVuSans-6c" transform="translate(54.980469 0)"/>
     <use xlink:href="#DejaVuSans-61" transform="translate(82.763672 0)"/>
     <use xlink:href="#DejaVuSans-73" transform="translate(144.042969 0)"/>
     <use xlink:href="#DejaVuSans-73" transform="translate(196.142578 0)"/>
     <use xlink:href="#DejaVuSans-20" transform="translate(248.242188 0)"/>
     <use xlink:href="#DejaVuSans-3d" transform="translate(280.029297 0)"/>
     <use xlink:href="#DejaVuSans-20" transform="translate(363.818359 0)"/>
     <use xlink:href="#DejaVuSans-42" transform="translate(395.605469 0)"/>
    </g>
   </g>
   <g id="patch_18">
    <path d="M 774.907044 446.769705 
Q 825.372886 366.545296 876.434044 285.374525 
" style="fill: none; stroke: #000000; stroke-linecap: round"/>
    <path d="M 781.614079 442.697749 
L 774.907044 446.769705 
L 775.6737 438.960903 
" style="fill: none; stroke: #000000; stroke-linecap: round"/>
   </g>
   <g id="text_9">
    <g id="patch_19">
     <path d="M 629.207523 560.485128 
L 846.792477 560.485128 
L 846.792477 449.906903 
L 629.207523 449.906903 
z
" style="fill: #e89050; stroke: #000000; stroke-linejoin: miter"/>
    </g>
    <!-- radius_mean &lt;= 22.83 -->
    <g transform="translate(636.225508 470.744288) scale(0.17545 -0.17545)">
     <defs>
      <path id="DejaVuSans-64" d="M 2906 2969 
L 2906 4863 
L 3481 4863 
L 3481 0 
L 2906 0 
L 2906 525 
Q 2725 213 2448 61 
Q 2172 -91 1784 -91 
Q 1150 -91 751 415 
Q 353 922 353 1747 
Q 353 2572 751 3078 
Q 1150 3584 1784 3584 
Q 2172 3584 2448 3432 
Q 2725 3281 2906 2969 
z
M 947 1747 
Q 947 1113 1208 752 
Q 1469 391 1925 391 
Q 2381 391 2643 752 
Q 2906 1113 2906 1747 
Q 2906 2381 2643 2742 
Q 2381 3103 1925 3103 
Q 1469 3103 1208 2742 
Q 947 2381 947 1747 
z
" transform="scale(0.015625)"/>
     </defs>
     <use xlink:href="#DejaVuSans-72"/>
     <use xlink:href="#DejaVuSans-61" transform="translate(41.113281 0)"/>
     <use xlink:href="#DejaVuSans-64" transform="translate(102.392578 0)"/>
     <use xlink:href="#DejaVuSans-69" transform="translate(165.869141 0)"/>
     <use xlink:href="#DejaVuSans-75" transform="translate(193.652344 0)"/>
     <use xlink:href="#DejaVuSans-73" transform="translate(257.03125 0)"/>
     <use xlink:href="#DejaVuSans-5f" transform="translate(309.130859 0)"/>
     <use xlink:href="#DejaVuSans-6d" transform="translate(359.130859 0)"/>
     <use xlink:href="#DejaVuSans-65" transform="translate(456.542969 0)"/>
     <use xlink:href="#DejaVuSans-61" transform="translate(518.066406 0)"/>
     <use xlink:href="#DejaVuSans-6e" transform="translate(579.345703 0)"/>
     <use xlink:href="#DejaVuSans-20" transform="translate(642.724609 0)"/>
     <use xlink:href="#DejaVuSans-3c" transform="translate(674.511719 0)"/>
     <use xlink:href="#DejaVuSans-3d" transform="translate(758.300781 0)"/>
     <use xlink:href="#DejaVuSans-20" transform="translate(842.089844 0)"/>
     <use xlink:href="#DejaVuSans-32" transform="translate(873.876953 0)"/>
     <use xlink:href="#DejaVuSans-32" transform="translate(937.5 0)"/>
     <use xlink:href="#DejaVuSans-2e" transform="translate(1001.123047 0)"/>
     <use xlink:href="#DejaVuSans-38" transform="translate(1032.910156 0)"/>
     <use xlink:href="#DejaVuSans-33" transform="translate(1096.533203 0)"/>
    </g>
    <!-- gini = 0.19 -->
    <g transform="translate(689.537523 490.878777) scale(0.17545 -0.17545)">
     <use xlink:href="#DejaVuSans-67"/>
     <use xlink:href="#DejaVuSans-69" transform="translate(63.476562 0)"/>
     <use xlink:href="#DejaVuSans-6e" transform="translate(91.259766 0)"/>
     <use xlink:href="#DejaVuSans-69" transform="translate(154.638672 0)"/>
     <use xlink:href="#DejaVuSans-20" transform="translate(182.421875 0)"/>
     <use xlink:href="#DejaVuSans-3d" transform="translate(214.208984 0)"/>
     <use xlink:href="#DejaVuSans-20" transform="translate(297.998047 0)"/>
     <use xlink:href="#DejaVuSans-30" transform="translate(329.785156 0)"/>
     <use xlink:href="#DejaVuSans-2e" transform="translate(393.408203 0)"/>
     <use xlink:href="#DejaVuSans-31" transform="translate(425.195312 0)"/>
     <use xlink:href="#DejaVuSans-39" transform="translate(488.818359 0)"/>
    </g>
    <!-- samples = 48 -->
    <g transform="translate(677.445205 510.525298) scale(0.17545 -0.17545)">
     <use xlink:href="#DejaVuSans-73"/>
     <use xlink:href="#DejaVuSans-61" transform="translate(52.099609 0)"/>
     <use xlink:href="#DejaVuSans-6d" transform="translate(113.378906 0)"/>
     <use xlink:href="#DejaVuSans-70" transform="translate(210.791016 0)"/>
     <use xlink:href="#DejaVuSans-6c" transform="translate(274.267578 0)"/>
     <use xlink:href="#DejaVuSans-65" transform="translate(302.050781 0)"/>
     <use xlink:href="#DejaVuSans-73" transform="translate(363.574219 0)"/>
     <use xlink:href="#DejaVuSans-20" transform="translate(415.673828 0)"/>
     <use xlink:href="#DejaVuSans-3d" transform="translate(447.460938 0)"/>
     <use xlink:href="#DejaVuSans-20" transform="translate(531.25 0)"/>
     <use xlink:href="#DejaVuSans-34" transform="translate(563.037109 0)"/>
     <use xlink:href="#DejaVuSans-38" transform="translate(626.660156 0)"/>
    </g>
    <!-- value = [59, 7] -->
    <g transform="translate(671.944585 530.171818) scale(0.17545 -0.17545)">
     <use xlink:href="#DejaVuSans-76"/>
     <use xlink:href="#DejaVuSans-61" transform="translate(59.179688 0)"/>
     <use xlink:href="#DejaVuSans-6c" transform="translate(120.458984 0)"/>
     <use xlink:href="#DejaVuSans-75" transform="translate(148.242188 0)"/>
     <use xlink:href="#DejaVuSans-65" transform="translate(211.621094 0)"/>
     <use xlink:href="#DejaVuSans-20" transform="translate(273.144531 0)"/>
     <use xlink:href="#DejaVuSans-3d" transform="translate(304.931641 0)"/>
     <use xlink:href="#DejaVuSans-20" transform="translate(388.720703 0)"/>
     <use xlink:href="#DejaVuSans-5b" transform="translate(420.507812 0)"/>
     <use xlink:href="#DejaVuSans-35" transform="translate(459.521484 0)"/>
     <use xlink:href="#DejaVuSans-39" transform="translate(523.144531 0)"/>
     <use xlink:href="#DejaVuSans-2c" transform="translate(586.767578 0)"/>
     <use xlink:href="#DejaVuSans-20" transform="translate(618.554688 0)"/>
     <use xlink:href="#DejaVuSans-37" transform="translate(650.341797 0)"/>
     <use xlink:href="#DejaVuSans-5d" transform="translate(713.964844 0)"/>
    </g>
    <!-- class = B -->
    <g transform="translate(697.277867 549.818339) scale(0.17545 -0.17545)">
     <use xlink:href="#DejaVuSans-63"/>
     <use xlink:href="#DejaVuSans-6c" transform="translate(54.980469 0)"/>
     <use xlink:href="#DejaVuSans-61" transform="translate(82.763672 0)"/>
     <use xlink:href="#DejaVuSans-73" transform="translate(144.042969 0)"/>
     <use xlink:href="#DejaVuSans-73" transform="translate(196.142578 0)"/>
     <use xlink:href="#DejaVuSans-20" transform="translate(248.242188 0)"/>
     <use xlink:href="#DejaVuSans-3d" transform="translate(280.029297 0)"/>
     <use xlink:href="#DejaVuSans-20" transform="translate(363.818359 0)"/>
     <use xlink:href="#DejaVuSans-42" transform="translate(395.605469 0)"/>
    </g>
   </g>
   <g id="text_10">
    <!-- True   -->
    <g transform="translate(759.342351 394.56) scale(0.17545 -0.17545)">
     <defs>
      <path id="DejaVuSans-54" d="M -19 4666 
L 3928 4666 
L 3928 4134 
L 2272 4134 
L 2272 0 
L 1638 0 
L 1638 4134 
L -19 4134 
L -19 4666 
z
" transform="scale(0.015625)"/>
     </defs>
     <use xlink:href="#DejaVuSans-54"/>
     <use xlink:href="#DejaVuSans-72" transform="translate(46.333984 0)"/>
     <use xlink:href="#DejaVuSans-75" transform="translate(87.447266 0)"/>
     <use xlink:href="#DejaVuSans-65" transform="translate(150.826172 0)"/>
     <use xlink:href="#DejaVuSans-20" transform="translate(212.349609 0)"/>
     <use xlink:href="#DejaVuSans-20" transform="translate(244.136719 0)"/>
    </g>
   </g>
   <g id="patch_20">
    <path d="M 986.734081 457.326951 
Q 932.946785 371.822502 878.564173 285.371692 
" style="fill: none; stroke: #000000; stroke-linecap: round"/>
    <path d="M 985.967424 449.51815 
L 986.734081 457.326951 
L 980.027046 453.254995 
" style="fill: none; stroke: #000000; stroke-linecap: round"/>
   </g>
   <g id="text_11">
    <g id="patch_21">
     <path d="M 943.9266 550.417883 
L 1090.0734 550.417883 
L 1090.0734 460.462117 
L 943.9266 460.462117 
z
" style="fill: #399de5; stroke: #000000; stroke-linejoin: miter"/>
    </g>
    <!-- gini = 0.0 -->
    <g transform="translate(974.119014 480.811532) scale(0.17545 -0.17545)">
     <use xlink:href="#DejaVuSans-67"/>
     <use xlink:href="#DejaVuSans-69" transform="translate(63.476562 0)"/>
     <use xlink:href="#DejaVuSans-6e" transform="translate(91.259766 0)"/>
     <use xlink:href="#DejaVuSans-69" transform="translate(154.638672 0)"/>
     <use xlink:href="#DejaVuSans-20" transform="translate(182.421875 0)"/>
     <use xlink:href="#DejaVuSans-3d" transform="translate(214.208984 0)"/>
     <use xlink:href="#DejaVuSans-20" transform="translate(297.998047 0)"/>
     <use xlink:href="#DejaVuSans-30" transform="translate(329.785156 0)"/>
     <use xlink:href="#DejaVuSans-2e" transform="translate(393.408203 0)"/>
     <use xlink:href="#DejaVuSans-30" transform="translate(425.195312 0)"/>
    </g>
    <!-- samples = 12 -->
    <g transform="translate(956.445205 500.458053) scale(0.17545 -0.17545)">
     <use xlink:href="#DejaVuSans-73"/>
     <use xlink:href="#DejaVuSans-61" transform="translate(52.099609 0)"/>
     <use xlink:href="#DejaVuSans-6d" transform="translate(113.378906 0)"/>
     <use xlink:href="#DejaVuSans-70" transform="translate(210.791016 0)"/>
     <use xlink:href="#DejaVuSans-6c" transform="translate(274.267578 0)"/>
     <use xlink:href="#DejaVuSans-65" transform="translate(302.050781 0)"/>
     <use xlink:href="#DejaVuSans-73" transform="translate(363.574219 0)"/>
     <use xlink:href="#DejaVuSans-20" transform="translate(415.673828 0)"/>
     <use xlink:href="#DejaVuSans-3d" transform="translate(447.460938 0)"/>
     <use xlink:href="#DejaVuSans-20" transform="translate(531.25 0)"/>
     <use xlink:href="#DejaVuSans-31" transform="translate(563.037109 0)"/>
     <use xlink:href="#DejaVuSans-32" transform="translate(626.660156 0)"/>
    </g>
    <!-- value = [0, 26] -->
    <g transform="translate(950.944585 520.104573) scale(0.17545 -0.17545)">
     <use xlink:href="#DejaVuSans-76"/>
     <use xlink:href="#DejaVuSans-61" transform="translate(59.179688 0)"/>
     <use xlink:href="#DejaVuSans-6c" transform="translate(120.458984 0)"/>
     <use xlink:href="#DejaVuSans-75" transform="translate(148.242188 0)"/>
     <use xlink:href="#DejaVuSans-65" transform="translate(211.621094 0)"/>
     <use xlink:href="#DejaVuSans-20" transform="translate(273.144531 0)"/>
     <use xlink:href="#DejaVuSans-3d" transform="translate(304.931641 0)"/>
     <use xlink:href="#DejaVuSans-20" transform="translate(388.720703 0)"/>
     <use xlink:href="#DejaVuSans-5b" transform="translate(420.507812 0)"/>
     <use xlink:href="#DejaVuSans-30" transform="translate(459.521484 0)"/>
     <use xlink:href="#DejaVuSans-2c" transform="translate(523.144531 0)"/>
     <use xlink:href="#DejaVuSans-20" transform="translate(554.931641 0)"/>
     <use xlink:href="#DejaVuSans-32" transform="translate(586.71875 0)"/>
     <use xlink:href="#DejaVuSans-36" transform="translate(650.341797 0)"/>
     <use xlink:href="#DejaVuSans-5d" transform="translate(713.964844 0)"/>
    </g>
    <!-- class = M -->
    <g transform="translate(974.727605 539.751094) scale(0.17545 -0.17545)">
     <use xlink:href="#DejaVuSans-63"/>
     <use xlink:href="#DejaVuSans-6c" transform="translate(54.980469 0)"/>
     <use xlink:href="#DejaVuSans-61" transform="translate(82.763672 0)"/>
     <use xlink:href="#DejaVuSans-73" transform="translate(144.042969 0)"/>
     <use xlink:href="#DejaVuSans-73" transform="translate(196.142578 0)"/>
     <use xlink:href="#DejaVuSans-20" transform="translate(248.242188 0)"/>
     <use xlink:href="#DejaVuSans-3d" transform="translate(280.029297 0)"/>
     <use xlink:href="#DejaVuSans-20" transform="translate(363.818359 0)"/>
     <use xlink:href="#DejaVuSans-4d" transform="translate(395.605469 0)"/>
    </g>
   </g>
   <g id="text_12">
    <!--   False -->
    <g transform="translate(947.25 394.56) scale(0.17545 -0.17545)">
     <defs>
      <path id="DejaVuSans-46" d="M 628 4666 
L 3309 4666 
L 3309 4134 
L 1259 4134 
L 1259 2759 
L 3109 2759 
L 3109 2228 
L 1259 2228 
L 1259 0 
L 628 0 
L 628 4666 
z
" transform="scale(0.015625)"/>
     </defs>
     <use xlink:href="#DejaVuSans-20"/>
     <use xlink:href="#DejaVuSans-20" transform="translate(31.787109 0)"/>
     <use xlink:href="#DejaVuSans-46" transform="translate(63.574219 0)"/>
     <use xlink:href="#DejaVuSans-61" transform="translate(111.96875 0)"/>
     <use xlink:href="#DejaVuSans-6c" transform="translate(173.248047 0)"/>
     <use xlink:href="#DejaVuSans-73" transform="translate(201.03125 0)"/>
     <use xlink:href="#DejaVuSans-65" transform="translate(253.130859 0)"/>
    </g>
   </g>
   <g id="patch_22">
    <path d="M 877.5 283.68 
Q 877.5 283.68 877.5 283.68 
" style="fill: none; stroke: #000000; stroke-linecap: round"/>
   </g>
   <g id="text_13">
    <g id="patch_23">
     <path d="M 746.847596 338.725128 
L 1008.152404 338.725128 
L 1008.152404 228.146903 
L 746.847596 228.146903 
z
" style="fill: #f4c7a8; stroke: #000000; stroke-linejoin: miter"/>
    </g>
    <!-- perimeter_mean &lt;= 692.55 -->
    <g transform="translate(753.865581 248.984288) scale(0.17545 -0.17545)">
     <use xlink:href="#DejaVuSans-70"/>
     <use xlink:href="#DejaVuSans-65" transform="translate(63.476562 0)"/>
     <use xlink:href="#DejaVuSans-72" transform="translate(125 0)"/>
     <use xlink:href="#DejaVuSans-69" transform="translate(166.113281 0)"/>
     <use xlink:href="#DejaVuSans-6d" transform="translate(193.896484 0)"/>
     <use xlink:href="#DejaVuSans-65" transform="translate(291.308594 0)"/>
     <use xlink:href="#DejaVuSans-74" transform="translate(352.832031 0)"/>
     <use xlink:href="#DejaVuSans-65" transform="translate(392.041016 0)"/>
     <use xlink:href="#DejaVuSans-72" transform="translate(453.564453 0)"/>
     <use xlink:href="#DejaVuSans-5f" transform="translate(494.677734 0)"/>
     <use xlink:href="#DejaVuSans-6d" transform="translate(544.677734 0)"/>
     <use xlink:href="#DejaVuSans-65" transform="translate(642.089844 0)"/>
     <use xlink:href="#DejaVuSans-61" transform="translate(703.613281 0)"/>
     <use xlink:href="#DejaVuSans-6e" transform="translate(764.892578 0)"/>
     <use xlink:href="#DejaVuSans-20" transform="translate(828.271484 0)"/>
     <use xlink:href="#DejaVuSans-3c" transform="translate(860.058594 0)"/>
     <use xlink:href="#DejaVuSans-3d" transform="translate(943.847656 0)"/>
     <use xlink:href="#DejaVuSans-20" transform="translate(1027.636719 0)"/>
     <use xlink:href="#DejaVuSans-36" transform="translate(1059.423828 0)"/>
     <use xlink:href="#DejaVuSans-39" transform="translate(1123.046875 0)"/>
     <use xlink:href="#DejaVuSans-32" transform="translate(1186.669922 0)"/>
     <use xlink:href="#DejaVuSans-2e" transform="translate(1250.292969 0)"/>
     <use xlink:href="#DejaVuSans-35" transform="translate(1282.080078 0)"/>
     <use xlink:href="#DejaVuSans-35" transform="translate(1345.703125 0)"/>
    </g>
    <!-- gini = 0.46 -->
    <g transform="translate(829.037523 269.118777) scale(0.17545 -0.17545)">
     <use xlink:href="#DejaVuSans-67"/>
     <use xlink:href="#DejaVuSans-69" transform="translate(63.476562 0)"/>
     <use xlink:href="#DejaVuSans-6e" transform="translate(91.259766 0)"/>
     <use xlink:href="#DejaVuSans-69" transform="translate(154.638672 0)"/>
     <use xlink:href="#DejaVuSans-20" transform="translate(182.421875 0)"/>
     <use xlink:href="#DejaVuSans-3d" transform="translate(214.208984 0)"/>
     <use xlink:href="#DejaVuSans-20" transform="translate(297.998047 0)"/>
     <use xlink:href="#DejaVuSans-30" transform="translate(329.785156 0)"/>
     <use xlink:href="#DejaVuSans-2e" transform="translate(393.408203 0)"/>
     <use xlink:href="#DejaVuSans-34" transform="translate(425.195312 0)"/>
     <use xlink:href="#DejaVuSans-36" transform="translate(488.818359 0)"/>
    </g>
    <!-- samples = 60 -->
    <g transform="translate(816.945205 288.765298) scale(0.17545 -0.17545)">
     <use xlink:href="#DejaVuSans-73"/>
     <use xlink:href="#DejaVuSans-61" transform="translate(52.099609 0)"/>
     <use xlink:href="#DejaVuSans-6d" transform="translate(113.378906 0)"/>
     <use xlink:href="#DejaVuSans-70" transform="translate(210.791016 0)"/>
     <use xlink:href="#DejaVuSans-6c" transform="translate(274.267578 0)"/>
     <use xlink:href="#DejaVuSans-65" transform="translate(302.050781 0)"/>
     <use xlink:href="#DejaVuSans-73" transform="translate(363.574219 0)"/>
     <use xlink:href="#DejaVuSans-20" transform="translate(415.673828 0)"/>
     <use xlink:href="#DejaVuSans-3d" transform="translate(447.460938 0)"/>
     <use xlink:href="#DejaVuSans-20" transform="translate(531.25 0)"/>
     <use xlink:href="#DejaVuSans-36" transform="translate(563.037109 0)"/>
     <use xlink:href="#DejaVuSans-30" transform="translate(626.660156 0)"/>
    </g>
    <!-- value = [59, 33] -->
    <g transform="translate(805.863094 308.411818) scale(0.17545 -0.17545)">
     <use xlink:href="#DejaVuSans-76"/>
     <use xlink:href="#DejaVuSans-61" transform="translate(59.179688 0)"/>
     <use xlink:href="#DejaVuSans-6c" transform="translate(120.458984 0)"/>
     <use xlink:href="#DejaVuSans-75" transform="translate(148.242188 0)"/>
     <use xlink:href="#DejaVuSans-65" transform="translate(211.621094 0)"/>
     <use xlink:href="#DejaVuSans-20" transform="translate(273.144531 0)"/>
     <use xlink:href="#DejaVuSans-3d" transform="translate(304.931641 0)"/>
     <use xlink:href="#DejaVuSans-20" transform="translate(388.720703 0)"/>
     <use xlink:href="#DejaVuSans-5b" transform="translate(420.507812 0)"/>
     <use xlink:href="#DejaVuSans-35" transform="translate(459.521484 0)"/>
     <use xlink:href="#DejaVuSans-39" transform="translate(523.144531 0)"/>
     <use xlink:href="#DejaVuSans-2c" transform="translate(586.767578 0)"/>
     <use xlink:href="#DejaVuSans-20" transform="translate(618.554688 0)"/>
     <use xlink:href="#DejaVuSans-33" transform="translate(650.341797 0)"/>
     <use xlink:href="#DejaVuSans-33" transform="translate(713.964844 0)"/>
     <use xlink:href="#DejaVuSans-5d" transform="translate(777.587891 0)"/>
    </g>
    <!-- class = B -->
    <g transform="translate(836.777867 328.058339) scale(0.17545 -0.17545)">
     <use xlink:href="#DejaVuSans-63"/>
     <use xlink:href="#DejaVuSans-6c" transform="translate(54.980469 0)"/>
     <use xlink:href="#DejaVuSans-61" transform="translate(82.763672 0)"/>
     <use xlink:href="#DejaVuSans-73" transform="translate(144.042969 0)"/>
     <use xlink:href="#DejaVuSans-73" transform="translate(196.142578 0)"/>
     <use xlink:href="#DejaVuSans-20" transform="translate(248.242188 0)"/>
     <use xlink:href="#DejaVuSans-3d" transform="translate(280.029297 0)"/>
     <use xlink:href="#DejaVuSans-20" transform="translate(363.818359 0)"/>
     <use xlink:href="#DejaVuSans-42" transform="translate(395.605469 0)"/>
    </g>
   </g>
  </g>
 </g>
</svg>
