<?xml version="1.0" encoding="utf-8" standalone="no"?>
<!DOCTYPE svg PUBLIC "-//W3C//DTD SVG 1.1//EN"
  "http://www.w3.org/Graphics/SVG/1.1/DTD/svg11.dtd">
<svg xmlns:xlink="http://www.w3.org/1999/xlink" width="1440pt" height="1440pt" viewBox="0 0 1440 1440" xmlns="http://www.w3.org/2000/svg" version="1.1">
 <metadata>
  <rdf:RDF xmlns:dc="http://purl.org/dc/elements/1.1/" xmlns:cc="http://creativecommons.org/ns#" xmlns:rdf="http://www.w3.org/1999/02/22-rdf-syntax-ns#">
   <cc:Work>
    <dc:type rdf:resource="http://purl.org/dc/dcmitype/StillImage"/>
    <dc:date>2025-03-08T01:46:19.645466</dc:date>
    <dc:format>image/svg+xml</dc:format>
    <dc:creator>
     <cc:Agent>
      <dc:title>Matplotlib v3.10.1, https://matplotlib.org/</dc:title>
     </cc:Agent>
    </dc:creator>
   </cc:Work>
  </rdf:RDF>
 </metadata>
 <defs>
  <style type="text/css">*{stroke-linejoin: round; stroke-linecap: butt}</style>
 </defs>
 <g id="figure_1">
  <g id="patch_1">
   <path d="M 0 1440 
L 1440 1440 
L 1440 0 
L 0 0 
z
" style="fill: #ffffff"/>
  </g>
  <g id="axes_1">
   <g id="patch_2">
    <path d="M 293.548125 1109.957219 
Q 337.693438 989.340833 382.22302 867.674524 
" style="fill: none; stroke: #000000; stroke-linecap: round"/>
    <path d="M 297.305485 1106.412443 
L 293.548125 1109.957219 
L 292.96672 1104.824465 
" style="fill: none; stroke: #000000; stroke-linecap: round"/>
   </g>
   <g id="text_1">
    <g id="patch_3">
     <path d="M 233.34727 1172.610822 
L 329.561821 1172.610822 
L 329.561821 1113.389178 
L 233.34727 1113.389178 
z
" style="fill: #e58139; stroke: #000000; stroke-linejoin: miter"/>
    </g>
    <!-- gini = 0.0 -->
    <g transform="translate(253.224199 1126.78605) scale(0.115506 -0.115506)">
     <defs>
      <path id="DejaVuSans-67" d="M 2906 1791 
Q 2906 2416 2648 2759 
Q 2391 3103 1925 3103 
Q 1463 3103 1205 2759 
Q 947 2416 947 1791 
Q 947 1169 1205 825 
Q 1463 481 1925 481 
Q 2391 481 2648 825 
Q 2906 1169 2906 1791 
z
M 3481 434 
Q 3481 -459 3084 -895 
Q 2688 -1331 1869 -1331 
Q 1566 -1331 1297 -1286 
Q 1028 -1241 775 -1147 
L 775 -588 
Q 1028 -725 1275 -790 
Q 1522 -856 1778 -856 
Q 2344 -856 2625 -561 
Q 2906 -266 2906 331 
L 2906 616 
Q 2728 306 2450 153 
Q 2172 0 1784 0 
Q 1141 0 747 490 
Q 353 981 353 1791 
Q 353 2603 747 3093 
Q 1141 3584 1784 3584 
Q 2172 3584 2450 3431 
Q 2728 3278 2906 2969 
L 2906 3500 
L 3481 3500 
L 3481 434 
z
" transform="scale(0.015625)"/>
      <path id="DejaVuSans-69" d="M 603 3500 
L 1178 3500 
L 1178 0 
L 603 0 
L 603 3500 
z
M 603 4863 
L 1178 4863 
L 1178 4134 
L 603 4134 
L 603 4863 
z
" transform="scale(0.015625)"/>
      <path id="DejaVuSans-6e" d="M 3513 2113 
L 3513 0 
L 2938 0 
L 2938 2094 
Q 2938 2591 2744 2837 
Q 2550 3084 2163 3084 
Q 1697 3084 1428 2787 
Q 1159 2491 1159 1978 
L 1159 0 
L 581 0 
L 581 3500 
L 1159 3500 
L 1159 2956 
Q 1366 3272 1645 3428 
Q 1925 3584 2291 3584 
Q 2894 3584 3203 3211 
Q 3513 2838 3513 2113 
z
" transform="scale(0.015625)"/>
      <path id="DejaVuSans-20" transform="scale(0.015625)"/>
      <path id="DejaVuSans-3d" d="M 678 2906 
L 4684 2906 
L 4684 2381 
L 678 2381 
L 678 2906 
z
M 678 1631 
L 4684 1631 
L 4684 1100 
L 678 1100 
L 678 1631 
z
" transform="scale(0.015625)"/>
      <path id="DejaVuSans-30" d="M 2034 4250 
Q 1547 4250 1301 3770 
Q 1056 3291 1056 2328 
Q 1056 1369 1301 889 
Q 1547 409 2034 409 
Q 2525 409 2770 889 
Q 3016 1369 3016 2328 
Q 3016 3291 2770 3770 
Q 2525 4250 2034 4250 
z
M 2034 4750 
Q 2819 4750 3233 4129 
Q 3647 3509 3647 2328 
Q 3647 1150 3233 529 
Q 2819 -91 2034 -91 
Q 1250 -91 836 529 
Q 422 1150 422 2328 
Q 422 3509 836 4129 
Q 1250 4750 2034 4750 
z
" transform="scale(0.015625)"/>
      <path id="DejaVuSans-2e" d="M 684 794 
L 1344 794 
L 1344 0 
L 684 0 
L 684 794 
z
" transform="scale(0.015625)"/>
     </defs>
     <use xlink:href="#DejaVuSans-67"/>
     <use xlink:href="#DejaVuSans-69" transform="translate(63.476562 0)"/>
     <use xlink:href="#DejaVuSans-6e" transform="translate(91.259766 0)"/>
     <use xlink:href="#DejaVuSans-69" transform="translate(154.638672 0)"/>
     <use xlink:href="#DejaVuSans-20" transform="translate(182.421875 0)"/>
     <use xlink:href="#DejaVuSans-3d" transform="translate(214.208984 0)"/>
     <use xlink:href="#DejaVuSans-20" transform="translate(297.998047 0)"/>
     <use xlink:href="#DejaVuSans-30" transform="translate(329.785156 0)"/>
     <use xlink:href="#DejaVuSans-2e" transform="translate(393.408203 0)"/>
     <use xlink:href="#DejaVuSans-30" transform="translate(425.195312 0)"/>
    </g>
    <!-- samples = 35 -->
    <g transform="translate(241.588791 1139.720176) scale(0.115506 -0.115506)">
     <defs>
      <path id="DejaVuSans-73" d="M 2834 3397 
L 2834 2853 
Q 2591 2978 2328 3040 
Q 2066 3103 1784 3103 
Q 1356 3103 1142 2972 
Q 928 2841 928 2578 
Q 928 2378 1081 2264 
Q 1234 2150 1697 2047 
L 1894 2003 
Q 2506 1872 2764 1633 
Q 3022 1394 3022 966 
Q 3022 478 2636 193 
Q 2250 -91 1575 -91 
Q 1294 -91 989 -36 
Q 684 19 347 128 
L 347 722 
Q 666 556 975 473 
Q 1284 391 1588 391 
Q 1994 391 2212 530 
Q 2431 669 2431 922 
Q 2431 1156 2273 1281 
Q 2116 1406 1581 1522 
L 1381 1569 
Q 847 1681 609 1914 
Q 372 2147 372 2553 
Q 372 3047 722 3315 
Q 1072 3584 1716 3584 
Q 2034 3584 2315 3537 
Q 2597 3491 2834 3397 
z
" transform="scale(0.015625)"/>
      <path id="DejaVuSans-61" d="M 2194 1759 
Q 1497 1759 1228 1600 
Q 959 1441 959 1056 
Q 959 750 1161 570 
Q 1363 391 1709 391 
Q 2188 391 2477 730 
Q 2766 1069 2766 1631 
L 2766 1759 
L 2194 1759 
z
M 3341 1997 
L 3341 0 
L 2766 0 
L 2766 531 
Q 2569 213 2275 61 
Q 1981 -91 1556 -91 
Q 1019 -91 701 211 
Q 384 513 384 1019 
Q 384 1609 779 1909 
Q 1175 2209 1959 2209 
L 2766 2209 
L 2766 2266 
Q 2766 2663 2505 2880 
Q 2244 3097 1772 3097 
Q 1472 3097 1187 3025 
Q 903 2953 641 2809 
L 641 3341 
Q 956 3463 1253 3523 
Q 1550 3584 1831 3584 
Q 2591 3584 2966 3190 
Q 3341 2797 3341 1997 
z
" transform="scale(0.015625)"/>
      <path id="DejaVuSans-6d" d="M 3328 2828 
Q 3544 3216 3844 3400 
Q 4144 3584 4550 3584 
Q 5097 3584 5394 3201 
Q 5691 2819 5691 2113 
L 5691 0 
L 5113 0 
L 5113 2094 
Q 5113 2597 4934 2840 
Q 4756 3084 4391 3084 
Q 3944 3084 3684 2787 
Q 3425 2491 3425 1978 
L 3425 0 
L 2847 0 
L 2847 2094 
Q 2847 2600 2669 2842 
Q 2491 3084 2119 3084 
Q 1678 3084 1418 2786 
Q 1159 2488 1159 1978 
L 1159 0 
L 581 0 
L 581 3500 
L 1159 3500 
L 1159 2956 
Q 1356 3278 1631 3431 
Q 1906 3584 2284 3584 
Q 2666 3584 2933 3390 
Q 3200 3197 3328 2828 
z
" transform="scale(0.015625)"/>
      <path id="DejaVuSans-70" d="M 1159 525 
L 1159 -1331 
L 581 -1331 
L 581 3500 
L 1159 3500 
L 1159 2969 
Q 1341 3281 1617 3432 
Q 1894 3584 2278 3584 
Q 2916 3584 3314 3078 
Q 3713 2572 3713 1747 
Q 3713 922 3314 415 
Q 2916 -91 2278 -91 
Q 1894 -91 1617 61 
Q 1341 213 1159 525 
z
M 3116 1747 
Q 3116 2381 2855 2742 
Q 2594 3103 2138 3103 
Q 1681 3103 1420 2742 
Q 1159 2381 1159 1747 
Q 1159 1113 1420 752 
Q 1681 391 2138 391 
Q 2594 391 2855 752 
Q 3116 1113 3116 1747 
z
" transform="scale(0.015625)"/>
      <path id="DejaVuSans-6c" d="M 603 4863 
L 1178 4863 
L 1178 0 
L 603 0 
L 603 4863 
z
" transform="scale(0.015625)"/>
      <path id="DejaVuSans-65" d="M 3597 1894 
L 3597 1613 
L 953 1613 
Q 991 1019 1311 708 
Q 1631 397 2203 397 
Q 2534 397 2845 478 
Q 3156 559 3463 722 
L 3463 178 
Q 3153 47 2828 -22 
Q 2503 -91 2169 -91 
Q 1331 -91 842 396 
Q 353 884 353 1716 
Q 353 2575 817 3079 
Q 1281 3584 2069 3584 
Q 2775 3584 3186 3129 
Q 3597 2675 3597 1894 
z
M 3022 2063 
Q 3016 2534 2758 2815 
Q 2500 3097 2075 3097 
Q 1594 3097 1305 2825 
Q 1016 2553 972 2059 
L 3022 2063 
z
" transform="scale(0.015625)"/>
      <path id="DejaVuSans-33" d="M 2597 2516 
Q 3050 2419 3304 2112 
Q 3559 1806 3559 1356 
Q 3559 666 3084 287 
Q 2609 -91 1734 -91 
Q 1441 -91 1130 -33 
Q 819 25 488 141 
L 488 750 
Q 750 597 1062 519 
Q 1375 441 1716 441 
Q 2309 441 2620 675 
Q 2931 909 2931 1356 
Q 2931 1769 2642 2001 
Q 2353 2234 1838 2234 
L 1294 2234 
L 1294 2753 
L 1863 2753 
Q 2328 2753 2575 2939 
Q 2822 3125 2822 3475 
Q 2822 3834 2567 4026 
Q 2313 4219 1838 4219 
Q 1578 4219 1281 4162 
Q 984 4106 628 3988 
L 628 4550 
Q 988 4650 1302 4700 
Q 1616 4750 1894 4750 
Q 2613 4750 3031 4423 
Q 3450 4097 3450 3541 
Q 3450 3153 3228 2886 
Q 3006 2619 2597 2516 
z
" transform="scale(0.015625)"/>
      <path id="DejaVuSans-35" d="M 691 4666 
L 3169 4666 
L 3169 4134 
L 1269 4134 
L 1269 2991 
Q 1406 3038 1543 3061 
Q 1681 3084 1819 3084 
Q 2600 3084 3056 2656 
Q 3513 2228 3513 1497 
Q 3513 744 3044 326 
Q 2575 -91 1722 -91 
Q 1428 -91 1123 -41 
Q 819 9 494 109 
L 494 744 
Q 775 591 1075 516 
Q 1375 441 1709 441 
Q 2250 441 2565 725 
Q 2881 1009 2881 1497 
Q 2881 1984 2565 2268 
Q 2250 2553 1709 2553 
Q 1456 2553 1204 2497 
Q 953 2441 691 2322 
L 691 4666 
z
" transform="scale(0.015625)"/>
     </defs>
     <use xlink:href="#DejaVuSans-73"/>
     <use xlink:href="#DejaVuSans-61" transform="translate(52.099609 0)"/>
     <use xlink:href="#DejaVuSans-6d" transform="translate(113.378906 0)"/>
     <use xlink:href="#DejaVuSans-70" transform="translate(210.791016 0)"/>
     <use xlink:href="#DejaVuSans-6c" transform="translate(274.267578 0)"/>
     <use xlink:href="#DejaVuSans-65" transform="translate(302.050781 0)"/>
     <use xlink:href="#DejaVuSans-73" transform="translate(363.574219 0)"/>
     <use xlink:href="#DejaVuSans-20" transform="translate(415.673828 0)"/>
     <use xlink:href="#DejaVuSans-3d" transform="translate(447.460938 0)"/>
     <use xlink:href="#DejaVuSans-20" transform="translate(531.25 0)"/>
     <use xlink:href="#DejaVuSans-33" transform="translate(563.037109 0)"/>
     <use xlink:href="#DejaVuSans-35" transform="translate(626.660156 0)"/>
    </g>
    <!-- value = [49, 0] -->
    <g transform="translate(237.967503 1152.654302) scale(0.115506 -0.115506)">
     <defs>
      <path id="DejaVuSans-76" d="M 191 3500 
L 800 3500 
L 1894 563 
L 2988 3500 
L 3597 3500 
L 2284 0 
L 1503 0 
L 191 3500 
z
" transform="scale(0.015625)"/>
      <path id="DejaVuSans-75" d="M 544 1381 
L 544 3500 
L 1119 3500 
L 1119 1403 
Q 1119 906 1312 657 
Q 1506 409 1894 409 
Q 2359 409 2629 706 
Q 2900 1003 2900 1516 
L 2900 3500 
L 3475 3500 
L 3475 0 
L 2900 0 
L 2900 538 
Q 2691 219 2414 64 
Q 2138 -91 1772 -91 
Q 1169 -91 856 284 
Q 544 659 544 1381 
z
M 1991 3584 
L 1991 3584 
z
" transform="scale(0.015625)"/>
      <path id="DejaVuSans-5b" d="M 550 4863 
L 1875 4863 
L 1875 4416 
L 1125 4416 
L 1125 -397 
L 1875 -397 
L 1875 -844 
L 550 -844 
L 550 4863 
z
" transform="scale(0.015625)"/>
      <path id="DejaVuSans-34" d="M 2419 4116 
L 825 1625 
L 2419 1625 
L 2419 4116 
z
M 2253 4666 
L 3047 4666 
L 3047 1625 
L 3713 1625 
L 3713 1100 
L 3047 1100 
L 3047 0 
L 2419 0 
L 2419 1100 
L 313 1100 
L 313 1709 
L 2253 4666 
z
" transform="scale(0.015625)"/>
      <path id="DejaVuSans-39" d="M 703 97 
L 703 672 
Q 941 559 1184 500 
Q 1428 441 1663 441 
Q 2288 441 2617 861 
Q 2947 1281 2994 2138 
Q 2813 1869 2534 1725 
Q 2256 1581 1919 1581 
Q 1219 1581 811 2004 
Q 403 2428 403 3163 
Q 403 3881 828 4315 
Q 1253 4750 1959 4750 
Q 2769 4750 3195 4129 
Q 3622 3509 3622 2328 
Q 3622 1225 3098 567 
Q 2575 -91 1691 -91 
Q 1453 -91 1209 -44 
Q 966 3 703 97 
z
M 1959 2075 
Q 2384 2075 2632 2365 
Q 2881 2656 2881 3163 
Q 2881 3666 2632 3958 
Q 2384 4250 1959 4250 
Q 1534 4250 1286 3958 
Q 1038 3666 1038 3163 
Q 1038 2656 1286 2365 
Q 1534 2075 1959 2075 
z
" transform="scale(0.015625)"/>
      <path id="DejaVuSans-2c" d="M 750 794 
L 1409 794 
L 1409 256 
L 897 -744 
L 494 -744 
L 750 256 
L 750 794 
z
" transform="scale(0.015625)"/>
      <path id="DejaVuSans-5d" d="M 1947 4863 
L 1947 -844 
L 622 -844 
L 622 -397 
L 1369 -397 
L 1369 4416 
L 622 4416 
L 622 4863 
L 1947 4863 
z
" transform="scale(0.015625)"/>
     </defs>
     <use xlink:href="#DejaVuSans-76"/>
     <use xlink:href="#DejaVuSans-61" transform="translate(59.179688 0)"/>
     <use xlink:href="#DejaVuSans-6c" transform="translate(120.458984 0)"/>
     <use xlink:href="#DejaVuSans-75" transform="translate(148.242188 0)"/>
     <use xlink:href="#DejaVuSans-65" transform="translate(211.621094 0)"/>
     <use xlink:href="#DejaVuSans-20" transform="translate(273.144531 0)"/>
     <use xlink:href="#DejaVuSans-3d" transform="translate(304.931641 0)"/>
     <use xlink:href="#DejaVuSans-20" transform="translate(388.720703 0)"/>
     <use xlink:href="#DejaVuSans-5b" transform="translate(420.507812 0)"/>
     <use xlink:href="#DejaVuSans-34" transform="translate(459.521484 0)"/>
     <use xlink:href="#DejaVuSans-39" transform="translate(523.144531 0)"/>
     <use xlink:href="#DejaVuSans-2c" transform="translate(586.767578 0)"/>
     <use xlink:href="#DejaVuSans-20" transform="translate(618.554688 0)"/>
     <use xlink:href="#DejaVuSans-30" transform="translate(650.341797 0)"/>
     <use xlink:href="#DejaVuSans-5d" transform="translate(713.964844 0)"/>
    </g>
    <!-- class = B -->
    <g transform="translate(254.645462 1165.588428) scale(0.115506 -0.115506)">
     <defs>
      <path id="DejaVuSans-63" d="M 3122 3366 
L 3122 2828 
Q 2878 2963 2633 3030 
Q 2388 3097 2138 3097 
Q 1578 3097 1268 2742 
Q 959 2388 959 1747 
Q 959 1106 1268 751 
Q 1578 397 2138 397 
Q 2388 397 2633 464 
Q 2878 531 3122 666 
L 3122 134 
Q 2881 22 2623 -34 
Q 2366 -91 2075 -91 
Q 1284 -91 818 406 
Q 353 903 353 1747 
Q 353 2603 823 3093 
Q 1294 3584 2113 3584 
Q 2378 3584 2631 3529 
Q 2884 3475 3122 3366 
z
" transform="scale(0.015625)"/>
      <path id="DejaVuSans-42" d="M 1259 2228 
L 1259 519 
L 2272 519 
Q 2781 519 3026 730 
Q 3272 941 3272 1375 
Q 3272 1813 3026 2020 
Q 2781 2228 2272 2228 
L 1259 2228 
z
M 1259 4147 
L 1259 2741 
L 2194 2741 
Q 2656 2741 2882 2914 
Q 3109 3088 3109 3444 
Q 3109 3797 2882 3972 
Q 2656 4147 2194 4147 
L 1259 4147 
z
M 628 4666 
L 2241 4666 
Q 2963 4666 3353 4366 
Q 3744 4066 3744 3513 
Q 3744 3084 3544 2831 
Q 3344 2578 2956 2516 
Q 3422 2416 3680 2098 
Q 3938 1781 3938 1306 
Q 3938 681 3513 340 
Q 3088 0 2303 0 
L 628 0 
L 628 4666 
z
" transform="scale(0.015625)"/>
     </defs>
     <use xlink:href="#DejaVuSans-63"/>
     <use xlink:href="#DejaVuSans-6c" transform="translate(54.980469 0)"/>
     <use xlink:href="#DejaVuSans-61" transform="translate(82.763672 0)"/>
     <use xlink:href="#DejaVuSans-73" transform="translate(144.042969 0)"/>
     <use xlink:href="#DejaVuSans-73" transform="translate(196.142578 0)"/>
     <use xlink:href="#DejaVuSans-20" transform="translate(248.242188 0)"/>
     <use xlink:href="#DejaVuSans-3d" transform="translate(280.029297 0)"/>
     <use xlink:href="#DejaVuSans-20" transform="translate(363.818359 0)"/>
     <use xlink:href="#DejaVuSans-42" transform="translate(395.605469 0)"/>
    </g>
   </g>
   <g id="patch_4">
    <path d="M 472.270057 1109.957219 
Q 428.124744 989.340833 383.595162 867.674524 
" style="fill: none; stroke: #000000; stroke-linecap: round"/>
    <path d="M 472.851461 1104.824465 
L 472.270057 1109.957219 
L 468.512696 1106.412443 
" style="fill: none; stroke: #000000; stroke-linecap: round"/>
   </g>
   <g id="text_2">
    <g id="patch_5">
     <path d="M 439.93089 1172.610822 
L 528.796383 1172.610822 
L 528.796383 1113.389178 
L 439.93089 1113.389178 
z
" style="fill: #399de5; stroke: #000000; stroke-linejoin: miter"/>
    </g>
    <!-- gini = 0.0 -->
    <g transform="translate(456.13329 1126.78605) scale(0.115506 -0.115506)">
     <use xlink:href="#DejaVuSans-67"/>
     <use xlink:href="#DejaVuSans-69" transform="translate(63.476562 0)"/>
     <use xlink:href="#DejaVuSans-6e" transform="translate(91.259766 0)"/>
     <use xlink:href="#DejaVuSans-69" transform="translate(154.638672 0)"/>
     <use xlink:href="#DejaVuSans-20" transform="translate(182.421875 0)"/>
     <use xlink:href="#DejaVuSans-3d" transform="translate(214.208984 0)"/>
     <use xlink:href="#DejaVuSans-20" transform="translate(297.998047 0)"/>
     <use xlink:href="#DejaVuSans-30" transform="translate(329.785156 0)"/>
     <use xlink:href="#DejaVuSans-2e" transform="translate(393.408203 0)"/>
     <use xlink:href="#DejaVuSans-30" transform="translate(425.195312 0)"/>
    </g>
    <!-- samples = 1 -->
    <g transform="translate(448.172411 1139.720176) scale(0.115506 -0.115506)">
     <defs>
      <path id="DejaVuSans-31" d="M 794 531 
L 1825 531 
L 1825 4091 
L 703 3866 
L 703 4441 
L 1819 4666 
L 2450 4666 
L 2450 531 
L 3481 531 
L 3481 0 
L 794 0 
L 794 531 
z
" transform="scale(0.015625)"/>
     </defs>
     <use xlink:href="#DejaVuSans-73"/>
     <use xlink:href="#DejaVuSans-61" transform="translate(52.099609 0)"/>
     <use xlink:href="#DejaVuSans-6d" transform="translate(113.378906 0)"/>
     <use xlink:href="#DejaVuSans-70" transform="translate(210.791016 0)"/>
     <use xlink:href="#DejaVuSans-6c" transform="translate(274.267578 0)"/>
     <use xlink:href="#DejaVuSans-65" transform="translate(302.050781 0)"/>
     <use xlink:href="#DejaVuSans-73" transform="translate(363.574219 0)"/>
     <use xlink:href="#DejaVuSans-20" transform="translate(415.673828 0)"/>
     <use xlink:href="#DejaVuSans-3d" transform="translate(447.460938 0)"/>
     <use xlink:href="#DejaVuSans-20" transform="translate(531.25 0)"/>
     <use xlink:href="#DejaVuSans-31" transform="translate(563.037109 0)"/>
    </g>
    <!-- value = [0, 1] -->
    <g transform="translate(444.551123 1152.654302) scale(0.115506 -0.115506)">
     <use xlink:href="#DejaVuSans-76"/>
     <use xlink:href="#DejaVuSans-61" transform="translate(59.179688 0)"/>
     <use xlink:href="#DejaVuSans-6c" transform="translate(120.458984 0)"/>
     <use xlink:href="#DejaVuSans-75" transform="translate(148.242188 0)"/>
     <use xlink:href="#DejaVuSans-65" transform="translate(211.621094 0)"/>
     <use xlink:href="#DejaVuSans-20" transform="translate(273.144531 0)"/>
     <use xlink:href="#DejaVuSans-3d" transform="translate(304.931641 0)"/>
     <use xlink:href="#DejaVuSans-20" transform="translate(388.720703 0)"/>
     <use xlink:href="#DejaVuSans-5b" transform="translate(420.507812 0)"/>
     <use xlink:href="#DejaVuSans-30" transform="translate(459.521484 0)"/>
     <use xlink:href="#DejaVuSans-2c" transform="translate(523.144531 0)"/>
     <use xlink:href="#DejaVuSans-20" transform="translate(554.931641 0)"/>
     <use xlink:href="#DejaVuSans-31" transform="translate(586.71875 0)"/>
     <use xlink:href="#DejaVuSans-5d" transform="translate(650.341797 0)"/>
    </g>
    <!-- class = M -->
    <g transform="translate(456.533951 1165.588428) scale(0.115506 -0.115506)">
     <defs>
      <path id="DejaVuSans-4d" d="M 628 4666 
L 1569 4666 
L 2759 1491 
L 3956 4666 
L 4897 4666 
L 4897 0 
L 4281 0 
L 4281 4097 
L 3078 897 
L 2444 897 
L 1241 4097 
L 1241 0 
L 628 0 
L 628 4666 
z
" transform="scale(0.015625)"/>
     </defs>
     <use xlink:href="#DejaVuSans-63"/>
     <use xlink:href="#DejaVuSans-6c" transform="translate(54.980469 0)"/>
     <use xlink:href="#DejaVuSans-61" transform="translate(82.763672 0)"/>
     <use xlink:href="#DejaVuSans-73" transform="translate(144.042969 0)"/>
     <use xlink:href="#DejaVuSans-73" transform="translate(196.142578 0)"/>
     <use xlink:href="#DejaVuSans-20" transform="translate(248.242188 0)"/>
     <use xlink:href="#DejaVuSans-3d" transform="translate(280.029297 0)"/>
     <use xlink:href="#DejaVuSans-20" transform="translate(363.818359 0)"/>
     <use xlink:href="#DejaVuSans-4d" transform="translate(395.605469 0)"/>
    </g>
   </g>
   <g id="patch_6">
    <path d="M 699.366307 1109.957219 
Q 743.51162 989.340833 788.041202 867.674524 
" style="fill: none; stroke: #000000; stroke-linecap: round"/>
    <path d="M 703.123667 1106.412443 
L 699.366307 1109.957219 
L 698.784902 1104.824465 
" style="fill: none; stroke: #000000; stroke-linecap: round"/>
   </g>
   <g id="text_3">
    <g id="patch_7">
     <path d="M 642.839981 1172.610822 
L 731.705474 1172.610822 
L 731.705474 1113.389178 
L 642.839981 1113.389178 
z
" style="fill: #e58139; stroke: #000000; stroke-linejoin: miter"/>
    </g>
    <!-- gini = 0.0 -->
    <g transform="translate(659.042381 1126.78605) scale(0.115506 -0.115506)">
     <use xlink:href="#DejaVuSans-67"/>
     <use xlink:href="#DejaVuSans-69" transform="translate(63.476562 0)"/>
     <use xlink:href="#DejaVuSans-6e" transform="translate(91.259766 0)"/>
     <use xlink:href="#DejaVuSans-69" transform="translate(154.638672 0)"/>
     <use xlink:href="#DejaVuSans-20" transform="translate(182.421875 0)"/>
     <use xlink:href="#DejaVuSans-3d" transform="translate(214.208984 0)"/>
     <use xlink:href="#DejaVuSans-20" transform="translate(297.998047 0)"/>
     <use xlink:href="#DejaVuSans-30" transform="translate(329.785156 0)"/>
     <use xlink:href="#DejaVuSans-2e" transform="translate(393.408203 0)"/>
     <use xlink:href="#DejaVuSans-30" transform="translate(425.195312 0)"/>
    </g>
    <!-- samples = 1 -->
    <g transform="translate(651.081502 1139.720176) scale(0.115506 -0.115506)">
     <use xlink:href="#DejaVuSans-73"/>
     <use xlink:href="#DejaVuSans-61" transform="translate(52.099609 0)"/>
     <use xlink:href="#DejaVuSans-6d" transform="translate(113.378906 0)"/>
     <use xlink:href="#DejaVuSans-70" transform="translate(210.791016 0)"/>
     <use xlink:href="#DejaVuSans-6c" transform="translate(274.267578 0)"/>
     <use xlink:href="#DejaVuSans-65" transform="translate(302.050781 0)"/>
     <use xlink:href="#DejaVuSans-73" transform="translate(363.574219 0)"/>
     <use xlink:href="#DejaVuSans-20" transform="translate(415.673828 0)"/>
     <use xlink:href="#DejaVuSans-3d" transform="translate(447.460938 0)"/>
     <use xlink:href="#DejaVuSans-20" transform="translate(531.25 0)"/>
     <use xlink:href="#DejaVuSans-31" transform="translate(563.037109 0)"/>
    </g>
    <!-- value = [1, 0] -->
    <g transform="translate(647.460214 1152.654302) scale(0.115506 -0.115506)">
     <use xlink:href="#DejaVuSans-76"/>
     <use xlink:href="#DejaVuSans-61" transform="translate(59.179688 0)"/>
     <use xlink:href="#DejaVuSans-6c" transform="translate(120.458984 0)"/>
     <use xlink:href="#DejaVuSans-75" transform="translate(148.242188 0)"/>
     <use xlink:href="#DejaVuSans-65" transform="translate(211.621094 0)"/>
     <use xlink:href="#DejaVuSans-20" transform="translate(273.144531 0)"/>
     <use xlink:href="#DejaVuSans-3d" transform="translate(304.931641 0)"/>
     <use xlink:href="#DejaVuSans-20" transform="translate(388.720703 0)"/>
     <use xlink:href="#DejaVuSans-5b" transform="translate(420.507812 0)"/>
     <use xlink:href="#DejaVuSans-31" transform="translate(459.521484 0)"/>
     <use xlink:href="#DejaVuSans-2c" transform="translate(523.144531 0)"/>
     <use xlink:href="#DejaVuSans-20" transform="translate(554.931641 0)"/>
     <use xlink:href="#DejaVuSans-30" transform="translate(586.71875 0)"/>
     <use xlink:href="#DejaVuSans-5d" transform="translate(650.341797 0)"/>
    </g>
    <!-- class = B -->
    <g transform="translate(660.463644 1165.588428) scale(0.115506 -0.115506)">
     <use xlink:href="#DejaVuSans-63"/>
     <use xlink:href="#DejaVuSans-6c" transform="translate(54.980469 0)"/>
     <use xlink:href="#DejaVuSans-61" transform="translate(82.763672 0)"/>
     <use xlink:href="#DejaVuSans-73" transform="translate(144.042969 0)"/>
     <use xlink:href="#DejaVuSans-73" transform="translate(196.142578 0)"/>
     <use xlink:href="#DejaVuSans-20" transform="translate(248.242188 0)"/>
     <use xlink:href="#DejaVuSans-3d" transform="translate(280.029297 0)"/>
     <use xlink:href="#DejaVuSans-20" transform="translate(363.818359 0)"/>
     <use xlink:href="#DejaVuSans-42" transform="translate(395.605469 0)"/>
    </g>
   </g>
   <g id="patch_8">
    <path d="M 878.088238 1109.957219 
Q 833.942926 989.340833 789.413344 867.674524 
" style="fill: none; stroke: #000000; stroke-linecap: round"/>
    <path d="M 878.669643 1104.824465 
L 878.088238 1109.957219 
L 874.330878 1106.412443 
" style="fill: none; stroke: #000000; stroke-linecap: round"/>
   </g>
   <g id="text_4">
    <g id="patch_9">
     <path d="M 845.749072 1172.610822 
L 934.614565 1172.610822 
L 934.614565 1113.389178 
L 845.749072 1113.389178 
z
" style="fill: #399de5; stroke: #000000; stroke-linejoin: miter"/>
    </g>
    <!-- gini = 0.0 -->
    <g transform="translate(861.951472 1126.78605) scale(0.115506 -0.115506)">
     <use xlink:href="#DejaVuSans-67"/>
     <use xlink:href="#DejaVuSans-69" transform="translate(63.476562 0)"/>
     <use xlink:href="#DejaVuSans-6e" transform="translate(91.259766 0)"/>
     <use xlink:href="#DejaVuSans-69" transform="translate(154.638672 0)"/>
     <use xlink:href="#DejaVuSans-20" transform="translate(182.421875 0)"/>
     <use xlink:href="#DejaVuSans-3d" transform="translate(214.208984 0)"/>
     <use xlink:href="#DejaVuSans-20" transform="translate(297.998047 0)"/>
     <use xlink:href="#DejaVuSans-30" transform="translate(329.785156 0)"/>
     <use xlink:href="#DejaVuSans-2e" transform="translate(393.408203 0)"/>
     <use xlink:href="#DejaVuSans-30" transform="translate(425.195312 0)"/>
    </g>
    <!-- samples = 5 -->
    <g transform="translate(853.990593 1139.720176) scale(0.115506 -0.115506)">
     <use xlink:href="#DejaVuSans-73"/>
     <use xlink:href="#DejaVuSans-61" transform="translate(52.099609 0)"/>
     <use xlink:href="#DejaVuSans-6d" transform="translate(113.378906 0)"/>
     <use xlink:href="#DejaVuSans-70" transform="translate(210.791016 0)"/>
     <use xlink:href="#DejaVuSans-6c" transform="translate(274.267578 0)"/>
     <use xlink:href="#DejaVuSans-65" transform="translate(302.050781 0)"/>
     <use xlink:href="#DejaVuSans-73" transform="translate(363.574219 0)"/>
     <use xlink:href="#DejaVuSans-20" transform="translate(415.673828 0)"/>
     <use xlink:href="#DejaVuSans-3d" transform="translate(447.460938 0)"/>
     <use xlink:href="#DejaVuSans-20" transform="translate(531.25 0)"/>
     <use xlink:href="#DejaVuSans-35" transform="translate(563.037109 0)"/>
    </g>
    <!-- value = [0, 5] -->
    <g transform="translate(850.369305 1152.654302) scale(0.115506 -0.115506)">
     <use xlink:href="#DejaVuSans-76"/>
     <use xlink:href="#DejaVuSans-61" transform="translate(59.179688 0)"/>
     <use xlink:href="#DejaVuSans-6c" transform="translate(120.458984 0)"/>
     <use xlink:href="#DejaVuSans-75" transform="translate(148.242188 0)"/>
     <use xlink:href="#DejaVuSans-65" transform="translate(211.621094 0)"/>
     <use xlink:href="#DejaVuSans-20" transform="translate(273.144531 0)"/>
     <use xlink:href="#DejaVuSans-3d" transform="translate(304.931641 0)"/>
     <use xlink:href="#DejaVuSans-20" transform="translate(388.720703 0)"/>
     <use xlink:href="#DejaVuSans-5b" transform="translate(420.507812 0)"/>
     <use xlink:href="#DejaVuSans-30" transform="translate(459.521484 0)"/>
     <use xlink:href="#DejaVuSans-2c" transform="translate(523.144531 0)"/>
     <use xlink:href="#DejaVuSans-20" transform="translate(554.931641 0)"/>
     <use xlink:href="#DejaVuSans-35" transform="translate(586.71875 0)"/>
     <use xlink:href="#DejaVuSans-5d" transform="translate(650.341797 0)"/>
    </g>
    <!-- class = M -->
    <g transform="translate(862.352132 1165.588428) scale(0.115506 -0.115506)">
     <use xlink:href="#DejaVuSans-63"/>
     <use xlink:href="#DejaVuSans-6c" transform="translate(54.980469 0)"/>
     <use xlink:href="#DejaVuSans-61" transform="translate(82.763672 0)"/>
     <use xlink:href="#DejaVuSans-73" transform="translate(144.042969 0)"/>
     <use xlink:href="#DejaVuSans-73" transform="translate(196.142578 0)"/>
     <use xlink:href="#DejaVuSans-20" transform="translate(248.242188 0)"/>
     <use xlink:href="#DejaVuSans-3d" transform="translate(280.029297 0)"/>
     <use xlink:href="#DejaVuSans-20" transform="translate(363.818359 0)"/>
     <use xlink:href="#DejaVuSans-4d" transform="translate(395.605469 0)"/>
    </g>
   </g>
   <g id="patch_10">
    <path d="M 411.879223 826.223061 
Q 497.928398 708.668785 584.637953 590.212345 
" style="fill: none; stroke: #000000; stroke-linecap: round"/>
    <path d="M 416.472294 823.859401 
L 411.879223 826.223061 
L 412.744138 821.130408 
" style="fill: none; stroke: #000000; stroke-linecap: round"/>
   </g>
   <g id="text_5">
    <g id="patch_11">
     <path d="M 297.369805 902.03851 
L 468.448377 902.03851 
L 468.448377 829.240239 
L 297.369805 829.240239 
z
" style="fill: #e6843d; stroke: #000000; stroke-linejoin: miter"/>
    </g>
    <!-- perimeter_worst &lt;= 1058.4 -->
    <g transform="translate(301.990038 842.958361) scale(0.115506 -0.115506)">
     <defs>
      <path id="DejaVuSans-72" d="M 2631 2963 
Q 2534 3019 2420 3045 
Q 2306 3072 2169 3072 
Q 1681 3072 1420 2755 
Q 1159 2438 1159 1844 
L 1159 0 
L 581 0 
L 581 3500 
L 1159 3500 
L 1159 2956 
Q 1341 3275 1631 3429 
Q 1922 3584 2338 3584 
Q 2397 3584 2469 3576 
Q 2541 3569 2628 3553 
L 2631 2963 
z
" transform="scale(0.015625)"/>
      <path id="DejaVuSans-74" d="M 1172 4494 
L 1172 3500 
L 2356 3500 
L 2356 3053 
L 1172 3053 
L 1172 1153 
Q 1172 725 1289 603 
Q 1406 481 1766 481 
L 2356 481 
L 2356 0 
L 1766 0 
Q 1100 0 847 248 
Q 594 497 594 1153 
L 594 3053 
L 172 3053 
L 172 3500 
L 594 3500 
L 594 4494 
L 1172 4494 
z
" transform="scale(0.015625)"/>
      <path id="DejaVuSans-5f" d="M 3263 -1063 
L 3263 -1509 
L -63 -1509 
L -63 -1063 
L 3263 -1063 
z
" transform="scale(0.015625)"/>
      <path id="DejaVuSans-77" d="M 269 3500 
L 844 3500 
L 1563 769 
L 2278 3500 
L 2956 3500 
L 3675 769 
L 4391 3500 
L 4966 3500 
L 4050 0 
L 3372 0 
L 2619 2869 
L 1863 0 
L 1184 0 
L 269 3500 
z
" transform="scale(0.015625)"/>
      <path id="DejaVuSans-6f" d="M 1959 3097 
Q 1497 3097 1228 2736 
Q 959 2375 959 1747 
Q 959 1119 1226 758 
Q 1494 397 1959 397 
Q 2419 397 2687 759 
Q 2956 1122 2956 1747 
Q 2956 2369 2687 2733 
Q 2419 3097 1959 3097 
z
M 1959 3584 
Q 2709 3584 3137 3096 
Q 3566 2609 3566 1747 
Q 3566 888 3137 398 
Q 2709 -91 1959 -91 
Q 1206 -91 779 398 
Q 353 888 353 1747 
Q 353 2609 779 3096 
Q 1206 3584 1959 3584 
z
" transform="scale(0.015625)"/>
      <path id="DejaVuSans-3c" d="M 4684 3150 
L 1459 2003 
L 4684 863 
L 4684 294 
L 678 1747 
L 678 2266 
L 4684 3719 
L 4684 3150 
z
" transform="scale(0.015625)"/>
      <path id="DejaVuSans-38" d="M 2034 2216 
Q 1584 2216 1326 1975 
Q 1069 1734 1069 1313 
Q 1069 891 1326 650 
Q 1584 409 2034 409 
Q 2484 409 2743 651 
Q 3003 894 3003 1313 
Q 3003 1734 2745 1975 
Q 2488 2216 2034 2216 
z
M 1403 2484 
Q 997 2584 770 2862 
Q 544 3141 544 3541 
Q 544 4100 942 4425 
Q 1341 4750 2034 4750 
Q 2731 4750 3128 4425 
Q 3525 4100 3525 3541 
Q 3525 3141 3298 2862 
Q 3072 2584 2669 2484 
Q 3125 2378 3379 2068 
Q 3634 1759 3634 1313 
Q 3634 634 3220 271 
Q 2806 -91 2034 -91 
Q 1263 -91 848 271 
Q 434 634 434 1313 
Q 434 1759 690 2068 
Q 947 2378 1403 2484 
z
M 1172 3481 
Q 1172 3119 1398 2916 
Q 1625 2713 2034 2713 
Q 2441 2713 2670 2916 
Q 2900 3119 2900 3481 
Q 2900 3844 2670 4047 
Q 2441 4250 2034 4250 
Q 1625 4250 1398 4047 
Q 1172 3844 1172 3481 
z
" transform="scale(0.015625)"/>
     </defs>
     <use xlink:href="#DejaVuSans-70"/>
     <use xlink:href="#DejaVuSans-65" transform="translate(63.476562 0)"/>
     <use xlink:href="#DejaVuSans-72" transform="translate(125 0)"/>
     <use xlink:href="#DejaVuSans-69" transform="translate(166.113281 0)"/>
     <use xlink:href="#DejaVuSans-6d" transform="translate(193.896484 0)"/>
     <use xlink:href="#DejaVuSans-65" transform="translate(291.308594 0)"/>
     <use xlink:href="#DejaVuSans-74" transform="translate(352.832031 0)"/>
     <use xlink:href="#DejaVuSans-65" transform="translate(392.041016 0)"/>
     <use xlink:href="#DejaVuSans-72" transform="translate(453.564453 0)"/>
     <use xlink:href="#DejaVuSans-5f" transform="translate(494.677734 0)"/>
     <use xlink:href="#DejaVuSans-77" transform="translate(544.677734 0)"/>
     <use xlink:href="#DejaVuSans-6f" transform="translate(626.464844 0)"/>
     <use xlink:href="#DejaVuSans-72" transform="translate(687.646484 0)"/>
     <use xlink:href="#DejaVuSans-73" transform="translate(728.759766 0)"/>
     <use xlink:href="#DejaVuSans-74" transform="translate(780.859375 0)"/>
     <use xlink:href="#DejaVuSans-20" transform="translate(820.068359 0)"/>
     <use xlink:href="#DejaVuSans-3c" transform="translate(851.855469 0)"/>
     <use xlink:href="#DejaVuSans-3d" transform="translate(935.644531 0)"/>
     <use xlink:href="#DejaVuSans-20" transform="translate(1019.433594 0)"/>
     <use xlink:href="#DejaVuSans-31" transform="translate(1051.220703 0)"/>
     <use xlink:href="#DejaVuSans-30" transform="translate(1114.84375 0)"/>
     <use xlink:href="#DejaVuSans-35" transform="translate(1178.466797 0)"/>
     <use xlink:href="#DejaVuSans-38" transform="translate(1242.089844 0)"/>
     <use xlink:href="#DejaVuSans-2e" transform="translate(1305.712891 0)"/>
     <use xlink:href="#DejaVuSans-34" transform="translate(1337.5 0)"/>
    </g>
    <!-- gini = 0.039 -->
    <g transform="translate(347.329686 856.213738) scale(0.115506 -0.115506)">
     <use xlink:href="#DejaVuSans-67"/>
     <use xlink:href="#DejaVuSans-69" transform="translate(63.476562 0)"/>
     <use xlink:href="#DejaVuSans-6e" transform="translate(91.259766 0)"/>
     <use xlink:href="#DejaVuSans-69" transform="translate(154.638672 0)"/>
     <use xlink:href="#DejaVuSans-20" transform="translate(182.421875 0)"/>
     <use xlink:href="#DejaVuSans-3d" transform="translate(214.208984 0)"/>
     <use xlink:href="#DejaVuSans-20" transform="translate(297.998047 0)"/>
     <use xlink:href="#DejaVuSans-30" transform="translate(329.785156 0)"/>
     <use xlink:href="#DejaVuSans-2e" transform="translate(393.408203 0)"/>
     <use xlink:href="#DejaVuSans-30" transform="translate(425.195312 0)"/>
     <use xlink:href="#DejaVuSans-33" transform="translate(488.818359 0)"/>
     <use xlink:href="#DejaVuSans-39" transform="translate(552.441406 0)"/>
    </g>
    <!-- samples = 36 -->
    <g transform="translate(343.043337 869.147864) scale(0.115506 -0.115506)">
     <defs>
      <path id="DejaVuSans-36" d="M 2113 2584 
Q 1688 2584 1439 2293 
Q 1191 2003 1191 1497 
Q 1191 994 1439 701 
Q 1688 409 2113 409 
Q 2538 409 2786 701 
Q 3034 994 3034 1497 
Q 3034 2003 2786 2293 
Q 2538 2584 2113 2584 
z
M 3366 4563 
L 3366 3988 
Q 3128 4100 2886 4159 
Q 2644 4219 2406 4219 
Q 1781 4219 1451 3797 
Q 1122 3375 1075 2522 
Q 1259 2794 1537 2939 
Q 1816 3084 2150 3084 
Q 2853 3084 3261 2657 
Q 3669 2231 3669 1497 
Q 3669 778 3244 343 
Q 2819 -91 2113 -91 
Q 1303 -91 875 529 
Q 447 1150 447 2328 
Q 447 3434 972 4092 
Q 1497 4750 2381 4750 
Q 2619 4750 2861 4703 
Q 3103 4656 3366 4563 
z
" transform="scale(0.015625)"/>
     </defs>
     <use xlink:href="#DejaVuSans-73"/>
     <use xlink:href="#DejaVuSans-61" transform="translate(52.099609 0)"/>
     <use xlink:href="#DejaVuSans-6d" transform="translate(113.378906 0)"/>
     <use xlink:href="#DejaVuSans-70" transform="translate(210.791016 0)"/>
     <use xlink:href="#DejaVuSans-6c" transform="translate(274.267578 0)"/>
     <use xlink:href="#DejaVuSans-65" transform="translate(302.050781 0)"/>
     <use xlink:href="#DejaVuSans-73" transform="translate(363.574219 0)"/>
     <use xlink:href="#DejaVuSans-20" transform="translate(415.673828 0)"/>
     <use xlink:href="#DejaVuSans-3d" transform="translate(447.460938 0)"/>
     <use xlink:href="#DejaVuSans-20" transform="translate(531.25 0)"/>
     <use xlink:href="#DejaVuSans-33" transform="translate(563.037109 0)"/>
     <use xlink:href="#DejaVuSans-36" transform="translate(626.660156 0)"/>
    </g>
    <!-- value = [49, 1] -->
    <g transform="translate(339.422048 882.081991) scale(0.115506 -0.115506)">
     <use xlink:href="#DejaVuSans-76"/>
     <use xlink:href="#DejaVuSans-61" transform="translate(59.179688 0)"/>
     <use xlink:href="#DejaVuSans-6c" transform="translate(120.458984 0)"/>
     <use xlink:href="#DejaVuSans-75" transform="translate(148.242188 0)"/>
     <use xlink:href="#DejaVuSans-65" transform="translate(211.621094 0)"/>
     <use xlink:href="#DejaVuSans-20" transform="translate(273.144531 0)"/>
     <use xlink:href="#DejaVuSans-3d" transform="translate(304.931641 0)"/>
     <use xlink:href="#DejaVuSans-20" transform="translate(388.720703 0)"/>
     <use xlink:href="#DejaVuSans-5b" transform="translate(420.507812 0)"/>
     <use xlink:href="#DejaVuSans-34" transform="translate(459.521484 0)"/>
     <use xlink:href="#DejaVuSans-39" transform="translate(523.144531 0)"/>
     <use xlink:href="#DejaVuSans-2c" transform="translate(586.767578 0)"/>
     <use xlink:href="#DejaVuSans-20" transform="translate(618.554688 0)"/>
     <use xlink:href="#DejaVuSans-31" transform="translate(650.341797 0)"/>
     <use xlink:href="#DejaVuSans-5d" transform="translate(713.964844 0)"/>
    </g>
    <!-- class = B -->
    <g transform="translate(356.100007 895.016117) scale(0.115506 -0.115506)">
     <use xlink:href="#DejaVuSans-63"/>
     <use xlink:href="#DejaVuSans-6c" transform="translate(54.980469 0)"/>
     <use xlink:href="#DejaVuSans-61" transform="translate(82.763672 0)"/>
     <use xlink:href="#DejaVuSans-73" transform="translate(144.042969 0)"/>
     <use xlink:href="#DejaVuSans-73" transform="translate(196.142578 0)"/>
     <use xlink:href="#DejaVuSans-20" transform="translate(248.242188 0)"/>
     <use xlink:href="#DejaVuSans-3d" transform="translate(280.029297 0)"/>
     <use xlink:href="#DejaVuSans-20" transform="translate(363.818359 0)"/>
     <use xlink:href="#DejaVuSans-42" transform="translate(395.605469 0)"/>
    </g>
   </g>
   <g id="patch_12">
    <path d="M 759.830948 826.323892 
Q 673.745119 708.719541 586.99891 590.213027 
" style="fill: none; stroke: #000000; stroke-linecap: round"/>
    <path d="M 758.966033 821.231239 
L 759.830948 826.323892 
L 755.237877 823.960232 
" style="fill: none; stroke: #000000; stroke-linecap: round"/>
   </g>
   <g id="text_6">
    <g id="patch_13">
     <path d="M 696.746732 901.93654 
L 880.707813 901.93654 
L 880.707813 829.342209 
L 696.746732 829.342209 
z
" style="fill: #61b1ea; stroke: #000000; stroke-linejoin: miter"/>
    </g>
    <!-- compactness_mean &lt;= 0.052 -->
    <g transform="translate(701.366965 842.856391) scale(0.115506 -0.115506)">
     <defs>
      <path id="DejaVuSans-32" d="M 1228 531 
L 3431 531 
L 3431 0 
L 469 0 
L 469 531 
Q 828 903 1448 1529 
Q 2069 2156 2228 2338 
Q 2531 2678 2651 2914 
Q 2772 3150 2772 3378 
Q 2772 3750 2511 3984 
Q 2250 4219 1831 4219 
Q 1534 4219 1204 4116 
Q 875 4013 500 3803 
L 500 4441 
Q 881 4594 1212 4672 
Q 1544 4750 1819 4750 
Q 2544 4750 2975 4387 
Q 3406 4025 3406 3419 
Q 3406 3131 3298 2873 
Q 3191 2616 2906 2266 
Q 2828 2175 2409 1742 
Q 1991 1309 1228 531 
z
" transform="scale(0.015625)"/>
     </defs>
     <use xlink:href="#DejaVuSans-63"/>
     <use xlink:href="#DejaVuSans-6f" transform="translate(54.980469 0)"/>
     <use xlink:href="#DejaVuSans-6d" transform="translate(116.162109 0)"/>
     <use xlink:href="#DejaVuSans-70" transform="translate(213.574219 0)"/>
     <use xlink:href="#DejaVuSans-61" transform="translate(277.050781 0)"/>
     <use xlink:href="#DejaVuSans-63" transform="translate(338.330078 0)"/>
     <use xlink:href="#DejaVuSans-74" transform="translate(393.310547 0)"/>
     <use xlink:href="#DejaVuSans-6e" transform="translate(432.519531 0)"/>
     <use xlink:href="#DejaVuSans-65" transform="translate(495.898438 0)"/>
     <use xlink:href="#DejaVuSans-73" transform="translate(557.421875 0)"/>
     <use xlink:href="#DejaVuSans-73" transform="translate(609.521484 0)"/>
     <use xlink:href="#DejaVuSans-5f" transform="translate(661.621094 0)"/>
     <use xlink:href="#DejaVuSans-6d" transform="translate(711.621094 0)"/>
     <use xlink:href="#DejaVuSans-65" transform="translate(809.033203 0)"/>
     <use xlink:href="#DejaVuSans-61" transform="translate(870.556641 0)"/>
     <use xlink:href="#DejaVuSans-6e" transform="translate(931.835938 0)"/>
     <use xlink:href="#DejaVuSans-20" transform="translate(995.214844 0)"/>
     <use xlink:href="#DejaVuSans-3c" transform="translate(1027.001953 0)"/>
     <use xlink:href="#DejaVuSans-3d" transform="translate(1110.791016 0)"/>
     <use xlink:href="#DejaVuSans-20" transform="translate(1194.580078 0)"/>
     <use xlink:href="#DejaVuSans-30" transform="translate(1226.367188 0)"/>
     <use xlink:href="#DejaVuSans-2e" transform="translate(1289.990234 0)"/>
     <use xlink:href="#DejaVuSans-30" transform="translate(1321.777344 0)"/>
     <use xlink:href="#DejaVuSans-35" transform="translate(1385.400391 0)"/>
     <use xlink:href="#DejaVuSans-32" transform="translate(1449.023438 0)"/>
    </g>
    <!-- gini = 0.278 -->
    <g transform="translate(753.147868 856.111768) scale(0.115506 -0.115506)">
     <defs>
      <path id="DejaVuSans-37" d="M 525 4666 
L 3525 4666 
L 3525 4397 
L 1831 0 
L 1172 0 
L 2766 4134 
L 525 4134 
L 525 4666 
z
" transform="scale(0.015625)"/>
     </defs>
     <use xlink:href="#DejaVuSans-67"/>
     <use xlink:href="#DejaVuSans-69" transform="translate(63.476562 0)"/>
     <use xlink:href="#DejaVuSans-6e" transform="translate(91.259766 0)"/>
     <use xlink:href="#DejaVuSans-69" transform="translate(154.638672 0)"/>
     <use xlink:href="#DejaVuSans-20" transform="translate(182.421875 0)"/>
     <use xlink:href="#DejaVuSans-3d" transform="translate(214.208984 0)"/>
     <use xlink:href="#DejaVuSans-20" transform="translate(297.998047 0)"/>
     <use xlink:href="#DejaVuSans-30" transform="translate(329.785156 0)"/>
     <use xlink:href="#DejaVuSans-2e" transform="translate(393.408203 0)"/>
     <use xlink:href="#DejaVuSans-32" transform="translate(425.195312 0)"/>
     <use xlink:href="#DejaVuSans-37" transform="translate(488.818359 0)"/>
     <use xlink:href="#DejaVuSans-38" transform="translate(552.441406 0)"/>
    </g>
    <!-- samples = 6 -->
    <g transform="translate(752.536048 869.045894) scale(0.115506 -0.115506)">
     <use xlink:href="#DejaVuSans-73"/>
     <use xlink:href="#DejaVuSans-61" transform="translate(52.099609 0)"/>
     <use xlink:href="#DejaVuSans-6d" transform="translate(113.378906 0)"/>
     <use xlink:href="#DejaVuSans-70" transform="translate(210.791016 0)"/>
     <use xlink:href="#DejaVuSans-6c" transform="translate(274.267578 0)"/>
     <use xlink:href="#DejaVuSans-65" transform="translate(302.050781 0)"/>
     <use xlink:href="#DejaVuSans-73" transform="translate(363.574219 0)"/>
     <use xlink:href="#DejaVuSans-20" transform="translate(415.673828 0)"/>
     <use xlink:href="#DejaVuSans-3d" transform="translate(447.460938 0)"/>
     <use xlink:href="#DejaVuSans-20" transform="translate(531.25 0)"/>
     <use xlink:href="#DejaVuSans-36" transform="translate(563.037109 0)"/>
    </g>
    <!-- value = [1, 5] -->
    <g transform="translate(748.914759 881.980021) scale(0.115506 -0.115506)">
     <use xlink:href="#DejaVuSans-76"/>
     <use xlink:href="#DejaVuSans-61" transform="translate(59.179688 0)"/>
     <use xlink:href="#DejaVuSans-6c" transform="translate(120.458984 0)"/>
     <use xlink:href="#DejaVuSans-75" transform="translate(148.242188 0)"/>
     <use xlink:href="#DejaVuSans-65" transform="translate(211.621094 0)"/>
     <use xlink:href="#DejaVuSans-20" transform="translate(273.144531 0)"/>
     <use xlink:href="#DejaVuSans-3d" transform="translate(304.931641 0)"/>
     <use xlink:href="#DejaVuSans-20" transform="translate(388.720703 0)"/>
     <use xlink:href="#DejaVuSans-5b" transform="translate(420.507812 0)"/>
     <use xlink:href="#DejaVuSans-31" transform="translate(459.521484 0)"/>
     <use xlink:href="#DejaVuSans-2c" transform="translate(523.144531 0)"/>
     <use xlink:href="#DejaVuSans-20" transform="translate(554.931641 0)"/>
     <use xlink:href="#DejaVuSans-35" transform="translate(586.71875 0)"/>
     <use xlink:href="#DejaVuSans-5d" transform="translate(650.341797 0)"/>
    </g>
    <!-- class = M -->
    <g transform="translate(760.897587 894.914147) scale(0.115506 -0.115506)">
     <use xlink:href="#DejaVuSans-63"/>
     <use xlink:href="#DejaVuSans-6c" transform="translate(54.980469 0)"/>
     <use xlink:href="#DejaVuSans-61" transform="translate(82.763672 0)"/>
     <use xlink:href="#DejaVuSans-73" transform="translate(144.042969 0)"/>
     <use xlink:href="#DejaVuSans-73" transform="translate(196.142578 0)"/>
     <use xlink:href="#DejaVuSans-20" transform="translate(248.242188 0)"/>
     <use xlink:href="#DejaVuSans-3d" transform="translate(280.029297 0)"/>
     <use xlink:href="#DejaVuSans-20" transform="translate(363.818359 0)"/>
     <use xlink:href="#DejaVuSans-4d" transform="translate(395.605469 0)"/>
    </g>
   </g>
   <g id="patch_14">
    <path d="M 1003.729943 832.757219 
Q 1047.875256 712.140833 1092.404838 590.474524 
" style="fill: none; stroke: #000000; stroke-linecap: round"/>
    <path d="M 1007.487304 829.212443 
L 1003.729943 832.757219 
L 1003.148539 827.624465 
" style="fill: none; stroke: #000000; stroke-linecap: round"/>
   </g>
   <g id="text_7">
    <g id="patch_15">
     <path d="M 947.203617 895.410822 
L 1036.06911 895.410822 
L 1036.06911 836.189178 
L 947.203617 836.189178 
z
" style="fill: #e58139; stroke: #000000; stroke-linejoin: miter"/>
    </g>
    <!-- gini = 0.0 -->
    <g transform="translate(963.406017 849.58605) scale(0.115506 -0.115506)">
     <use xlink:href="#DejaVuSans-67"/>
     <use xlink:href="#DejaVuSans-69" transform="translate(63.476562 0)"/>
     <use xlink:href="#DejaVuSans-6e" transform="translate(91.259766 0)"/>
     <use xlink:href="#DejaVuSans-69" transform="translate(154.638672 0)"/>
     <use xlink:href="#DejaVuSans-20" transform="translate(182.421875 0)"/>
     <use xlink:href="#DejaVuSans-3d" transform="translate(214.208984 0)"/>
     <use xlink:href="#DejaVuSans-20" transform="translate(297.998047 0)"/>
     <use xlink:href="#DejaVuSans-30" transform="translate(329.785156 0)"/>
     <use xlink:href="#DejaVuSans-2e" transform="translate(393.408203 0)"/>
     <use xlink:href="#DejaVuSans-30" transform="translate(425.195312 0)"/>
    </g>
    <!-- samples = 2 -->
    <g transform="translate(955.445139 862.520176) scale(0.115506 -0.115506)">
     <use xlink:href="#DejaVuSans-73"/>
     <use xlink:href="#DejaVuSans-61" transform="translate(52.099609 0)"/>
     <use xlink:href="#DejaVuSans-6d" transform="translate(113.378906 0)"/>
     <use xlink:href="#DejaVuSans-70" transform="translate(210.791016 0)"/>
     <use xlink:href="#DejaVuSans-6c" transform="translate(274.267578 0)"/>
     <use xlink:href="#DejaVuSans-65" transform="translate(302.050781 0)"/>
     <use xlink:href="#DejaVuSans-73" transform="translate(363.574219 0)"/>
     <use xlink:href="#DejaVuSans-20" transform="translate(415.673828 0)"/>
     <use xlink:href="#DejaVuSans-3d" transform="translate(447.460938 0)"/>
     <use xlink:href="#DejaVuSans-20" transform="translate(531.25 0)"/>
     <use xlink:href="#DejaVuSans-32" transform="translate(563.037109 0)"/>
    </g>
    <!-- value = [3, 0] -->
    <g transform="translate(951.82385 875.454302) scale(0.115506 -0.115506)">
     <use xlink:href="#DejaVuSans-76"/>
     <use xlink:href="#DejaVuSans-61" transform="translate(59.179688 0)"/>
     <use xlink:href="#DejaVuSans-6c" transform="translate(120.458984 0)"/>
     <use xlink:href="#DejaVuSans-75" transform="translate(148.242188 0)"/>
     <use xlink:href="#DejaVuSans-65" transform="translate(211.621094 0)"/>
     <use xlink:href="#DejaVuSans-20" transform="translate(273.144531 0)"/>
     <use xlink:href="#DejaVuSans-3d" transform="translate(304.931641 0)"/>
     <use xlink:href="#DejaVuSans-20" transform="translate(388.720703 0)"/>
     <use xlink:href="#DejaVuSans-5b" transform="translate(420.507812 0)"/>
     <use xlink:href="#DejaVuSans-33" transform="translate(459.521484 0)"/>
     <use xlink:href="#DejaVuSans-2c" transform="translate(523.144531 0)"/>
     <use xlink:href="#DejaVuSans-20" transform="translate(554.931641 0)"/>
     <use xlink:href="#DejaVuSans-30" transform="translate(586.71875 0)"/>
     <use xlink:href="#DejaVuSans-5d" transform="translate(650.341797 0)"/>
    </g>
    <!-- class = B -->
    <g transform="translate(964.82728 888.388428) scale(0.115506 -0.115506)">
     <use xlink:href="#DejaVuSans-63"/>
     <use xlink:href="#DejaVuSans-6c" transform="translate(54.980469 0)"/>
     <use xlink:href="#DejaVuSans-61" transform="translate(82.763672 0)"/>
     <use xlink:href="#DejaVuSans-73" transform="translate(144.042969 0)"/>
     <use xlink:href="#DejaVuSans-73" transform="translate(196.142578 0)"/>
     <use xlink:href="#DejaVuSans-20" transform="translate(248.242188 0)"/>
     <use xlink:href="#DejaVuSans-3d" transform="translate(280.029297 0)"/>
     <use xlink:href="#DejaVuSans-20" transform="translate(363.818359 0)"/>
     <use xlink:href="#DejaVuSans-42" transform="translate(395.605469 0)"/>
    </g>
   </g>
   <g id="patch_16">
    <path d="M 1182.451875 832.757219 
Q 1138.306562 712.140833 1093.77698 590.474524 
" style="fill: none; stroke: #000000; stroke-linecap: round"/>
    <path d="M 1183.03328 827.624465 
L 1182.451875 832.757219 
L 1178.694515 829.212443 
" style="fill: none; stroke: #000000; stroke-linecap: round"/>
   </g>
   <g id="text_8">
    <g id="patch_17">
     <path d="M 1146.438179 895.410822 
L 1242.65273 895.410822 
L 1242.65273 836.189178 
L 1146.438179 836.189178 
z
" style="fill: #399de5; stroke: #000000; stroke-linejoin: miter"/>
    </g>
    <!-- gini = 0.0 -->
    <g transform="translate(1166.315108 849.58605) scale(0.115506 -0.115506)">
     <use xlink:href="#DejaVuSans-67"/>
     <use xlink:href="#DejaVuSans-69" transform="translate(63.476562 0)"/>
     <use xlink:href="#DejaVuSans-6e" transform="translate(91.259766 0)"/>
     <use xlink:href="#DejaVuSans-69" transform="translate(154.638672 0)"/>
     <use xlink:href="#DejaVuSans-20" transform="translate(182.421875 0)"/>
     <use xlink:href="#DejaVuSans-3d" transform="translate(214.208984 0)"/>
     <use xlink:href="#DejaVuSans-20" transform="translate(297.998047 0)"/>
     <use xlink:href="#DejaVuSans-30" transform="translate(329.785156 0)"/>
     <use xlink:href="#DejaVuSans-2e" transform="translate(393.408203 0)"/>
     <use xlink:href="#DejaVuSans-30" transform="translate(425.195312 0)"/>
    </g>
    <!-- samples = 17 -->
    <g transform="translate(1154.6797 862.520176) scale(0.115506 -0.115506)">
     <use xlink:href="#DejaVuSans-73"/>
     <use xlink:href="#DejaVuSans-61" transform="translate(52.099609 0)"/>
     <use xlink:href="#DejaVuSans-6d" transform="translate(113.378906 0)"/>
     <use xlink:href="#DejaVuSans-70" transform="translate(210.791016 0)"/>
     <use xlink:href="#DejaVuSans-6c" transform="translate(274.267578 0)"/>
     <use xlink:href="#DejaVuSans-65" transform="translate(302.050781 0)"/>
     <use xlink:href="#DejaVuSans-73" transform="translate(363.574219 0)"/>
     <use xlink:href="#DejaVuSans-20" transform="translate(415.673828 0)"/>
     <use xlink:href="#DejaVuSans-3d" transform="translate(447.460938 0)"/>
     <use xlink:href="#DejaVuSans-20" transform="translate(531.25 0)"/>
     <use xlink:href="#DejaVuSans-31" transform="translate(563.037109 0)"/>
     <use xlink:href="#DejaVuSans-37" transform="translate(626.660156 0)"/>
    </g>
    <!-- value = [0, 33] -->
    <g transform="translate(1151.058412 875.454302) scale(0.115506 -0.115506)">
     <use xlink:href="#DejaVuSans-76"/>
     <use xlink:href="#DejaVuSans-61" transform="translate(59.179688 0)"/>
     <use xlink:href="#DejaVuSans-6c" transform="translate(120.458984 0)"/>
     <use xlink:href="#DejaVuSans-75" transform="translate(148.242188 0)"/>
     <use xlink:href="#DejaVuSans-65" transform="translate(211.621094 0)"/>
     <use xlink:href="#DejaVuSans-20" transform="translate(273.144531 0)"/>
     <use xlink:href="#DejaVuSans-3d" transform="translate(304.931641 0)"/>
     <use xlink:href="#DejaVuSans-20" transform="translate(388.720703 0)"/>
     <use xlink:href="#DejaVuSans-5b" transform="translate(420.507812 0)"/>
     <use xlink:href="#DejaVuSans-30" transform="translate(459.521484 0)"/>
     <use xlink:href="#DejaVuSans-2c" transform="translate(523.144531 0)"/>
     <use xlink:href="#DejaVuSans-20" transform="translate(554.931641 0)"/>
     <use xlink:href="#DejaVuSans-33" transform="translate(586.71875 0)"/>
     <use xlink:href="#DejaVuSans-33" transform="translate(650.341797 0)"/>
     <use xlink:href="#DejaVuSans-5d" transform="translate(713.964844 0)"/>
    </g>
    <!-- class = M -->
    <g transform="translate(1166.715769 888.388428) scale(0.115506 -0.115506)">
     <use xlink:href="#DejaVuSans-63"/>
     <use xlink:href="#DejaVuSans-6c" transform="translate(54.980469 0)"/>
     <use xlink:href="#DejaVuSans-61" transform="translate(82.763672 0)"/>
     <use xlink:href="#DejaVuSans-73" transform="translate(144.042969 0)"/>
     <use xlink:href="#DejaVuSans-73" transform="translate(196.142578 0)"/>
     <use xlink:href="#DejaVuSans-20" transform="translate(248.242188 0)"/>
     <use xlink:href="#DejaVuSans-3d" transform="translate(280.029297 0)"/>
     <use xlink:href="#DejaVuSans-20" transform="translate(363.818359 0)"/>
     <use xlink:href="#DejaVuSans-4d" transform="translate(395.605469 0)"/>
    </g>
   </g>
   <g id="patch_18">
    <path d="M 621.740387 549.340506 
Q 729.545052 431.52044 838.104449 312.875524 
" style="fill: none; stroke: #000000; stroke-linecap: round"/>
    <path d="M 626.563624 547.491297 
L 621.740387 549.340506 
L 623.154962 544.372391 
" style="fill: none; stroke: #000000; stroke-linecap: round"/>
   </g>
   <g id="text_9">
    <g id="patch_19">
     <path d="M 506.909652 624.73654 
L 664.726711 624.73654 
L 664.726711 552.142209 
L 506.909652 552.142209 
z
" style="fill: #e89051; stroke: #000000; stroke-linejoin: miter"/>
    </g>
    <!-- symmetry_worst &lt;= 0.09 -->
    <g transform="translate(511.529886 565.656391) scale(0.115506 -0.115506)">
     <defs>
      <path id="DejaVuSans-79" d="M 2059 -325 
Q 1816 -950 1584 -1140 
Q 1353 -1331 966 -1331 
L 506 -1331 
L 506 -850 
L 844 -850 
Q 1081 -850 1212 -737 
Q 1344 -625 1503 -206 
L 1606 56 
L 191 3500 
L 800 3500 
L 1894 763 
L 2988 3500 
L 3597 3500 
L 2059 -325 
z
" transform="scale(0.015625)"/>
     </defs>
     <use xlink:href="#DejaVuSans-73"/>
     <use xlink:href="#DejaVuSans-79" transform="translate(52.099609 0)"/>
     <use xlink:href="#DejaVuSans-6d" transform="translate(111.279297 0)"/>
     <use xlink:href="#DejaVuSans-6d" transform="translate(208.691406 0)"/>
     <use xlink:href="#DejaVuSans-65" transform="translate(306.103516 0)"/>
     <use xlink:href="#DejaVuSans-74" transform="translate(367.626953 0)"/>
     <use xlink:href="#DejaVuSans-72" transform="translate(406.835938 0)"/>
     <use xlink:href="#DejaVuSans-79" transform="translate(447.949219 0)"/>
     <use xlink:href="#DejaVuSans-5f" transform="translate(507.128906 0)"/>
     <use xlink:href="#DejaVuSans-77" transform="translate(557.128906 0)"/>
     <use xlink:href="#DejaVuSans-6f" transform="translate(638.916016 0)"/>
     <use xlink:href="#DejaVuSans-72" transform="translate(700.097656 0)"/>
     <use xlink:href="#DejaVuSans-73" transform="translate(741.210938 0)"/>
     <use xlink:href="#DejaVuSans-74" transform="translate(793.310547 0)"/>
     <use xlink:href="#DejaVuSans-20" transform="translate(832.519531 0)"/>
     <use xlink:href="#DejaVuSans-3c" transform="translate(864.306641 0)"/>
     <use xlink:href="#DejaVuSans-3d" transform="translate(948.095703 0)"/>
     <use xlink:href="#DejaVuSans-20" transform="translate(1031.884766 0)"/>
     <use xlink:href="#DejaVuSans-30" transform="translate(1063.671875 0)"/>
     <use xlink:href="#DejaVuSans-2e" transform="translate(1127.294922 0)"/>
     <use xlink:href="#DejaVuSans-30" transform="translate(1159.082031 0)"/>
     <use xlink:href="#DejaVuSans-39" transform="translate(1222.705078 0)"/>
    </g>
    <!-- gini = 0.191 -->
    <g transform="translate(550.238777 578.911768) scale(0.115506 -0.115506)">
     <use xlink:href="#DejaVuSans-67"/>
     <use xlink:href="#DejaVuSans-69" transform="translate(63.476562 0)"/>
     <use xlink:href="#DejaVuSans-6e" transform="translate(91.259766 0)"/>
     <use xlink:href="#DejaVuSans-69" transform="translate(154.638672 0)"/>
     <use xlink:href="#DejaVuSans-20" transform="translate(182.421875 0)"/>
     <use xlink:href="#DejaVuSans-3d" transform="translate(214.208984 0)"/>
     <use xlink:href="#DejaVuSans-20" transform="translate(297.998047 0)"/>
     <use xlink:href="#DejaVuSans-30" transform="translate(329.785156 0)"/>
     <use xlink:href="#DejaVuSans-2e" transform="translate(393.408203 0)"/>
     <use xlink:href="#DejaVuSans-31" transform="translate(425.195312 0)"/>
     <use xlink:href="#DejaVuSans-39" transform="translate(488.818359 0)"/>
     <use xlink:href="#DejaVuSans-31" transform="translate(552.441406 0)"/>
    </g>
    <!-- samples = 42 -->
    <g transform="translate(545.952428 591.845894) scale(0.115506 -0.115506)">
     <use xlink:href="#DejaVuSans-73"/>
     <use xlink:href="#DejaVuSans-61" transform="translate(52.099609 0)"/>
     <use xlink:href="#DejaVuSans-6d" transform="translate(113.378906 0)"/>
     <use xlink:href="#DejaVuSans-70" transform="translate(210.791016 0)"/>
     <use xlink:href="#DejaVuSans-6c" transform="translate(274.267578 0)"/>
     <use xlink:href="#DejaVuSans-65" transform="translate(302.050781 0)"/>
     <use xlink:href="#DejaVuSans-73" transform="translate(363.574219 0)"/>
     <use xlink:href="#DejaVuSans-20" transform="translate(415.673828 0)"/>
     <use xlink:href="#DejaVuSans-3d" transform="translate(447.460938 0)"/>
     <use xlink:href="#DejaVuSans-20" transform="translate(531.25 0)"/>
     <use xlink:href="#DejaVuSans-34" transform="translate(563.037109 0)"/>
     <use xlink:href="#DejaVuSans-32" transform="translate(626.660156 0)"/>
    </g>
    <!-- value = [50, 6] -->
    <g transform="translate(542.331139 604.780021) scale(0.115506 -0.115506)">
     <use xlink:href="#DejaVuSans-76"/>
     <use xlink:href="#DejaVuSans-61" transform="translate(59.179688 0)"/>
     <use xlink:href="#DejaVuSans-6c" transform="translate(120.458984 0)"/>
     <use xlink:href="#DejaVuSans-75" transform="translate(148.242188 0)"/>
     <use xlink:href="#DejaVuSans-65" transform="translate(211.621094 0)"/>
     <use xlink:href="#DejaVuSans-20" transform="translate(273.144531 0)"/>
     <use xlink:href="#DejaVuSans-3d" transform="translate(304.931641 0)"/>
     <use xlink:href="#DejaVuSans-20" transform="translate(388.720703 0)"/>
     <use xlink:href="#DejaVuSans-5b" transform="translate(420.507812 0)"/>
     <use xlink:href="#DejaVuSans-35" transform="translate(459.521484 0)"/>
     <use xlink:href="#DejaVuSans-30" transform="translate(523.144531 0)"/>
     <use xlink:href="#DejaVuSans-2c" transform="translate(586.767578 0)"/>
     <use xlink:href="#DejaVuSans-20" transform="translate(618.554688 0)"/>
     <use xlink:href="#DejaVuSans-36" transform="translate(650.341797 0)"/>
     <use xlink:href="#DejaVuSans-5d" transform="translate(713.964844 0)"/>
    </g>
    <!-- class = B -->
    <g transform="translate(559.009098 617.714147) scale(0.115506 -0.115506)">
     <use xlink:href="#DejaVuSans-63"/>
     <use xlink:href="#DejaVuSans-6c" transform="translate(54.980469 0)"/>
     <use xlink:href="#DejaVuSans-61" transform="translate(82.763672 0)"/>
     <use xlink:href="#DejaVuSans-73" transform="translate(144.042969 0)"/>
     <use xlink:href="#DejaVuSans-73" transform="translate(196.142578 0)"/>
     <use xlink:href="#DejaVuSans-20" transform="translate(248.242188 0)"/>
     <use xlink:href="#DejaVuSans-3d" transform="translate(280.029297 0)"/>
     <use xlink:href="#DejaVuSans-20" transform="translate(363.818359 0)"/>
     <use xlink:href="#DejaVuSans-42" transform="translate(395.605469 0)"/>
    </g>
   </g>
   <g id="text_10">
    <!-- True   -->
    <g transform="translate(680.767583 450) scale(0.115506 -0.115506)">
     <defs>
      <path id="DejaVuSans-54" d="M -19 4666 
L 3928 4666 
L 3928 4134 
L 2272 4134 
L 2272 0 
L 1638 0 
L 1638 4134 
L -19 4134 
L -19 4666 
z
" transform="scale(0.015625)"/>
     </defs>
     <use xlink:href="#DejaVuSans-54"/>
     <use xlink:href="#DejaVuSans-72" transform="translate(46.333984 0)"/>
     <use xlink:href="#DejaVuSans-75" transform="translate(87.447266 0)"/>
     <use xlink:href="#DejaVuSans-65" transform="translate(150.826172 0)"/>
     <use xlink:href="#DejaVuSans-20" transform="translate(212.349609 0)"/>
     <use xlink:href="#DejaVuSans-20" transform="translate(244.136719 0)"/>
    </g>
   </g>
   <g id="patch_20">
    <path d="M 1057.076391 549.239617 
Q 949.317598 431.469684 840.804071 312.874901 
" style="fill: none; stroke: #000000; stroke-linecap: round"/>
    <path d="M 1055.661816 544.271501 
L 1057.076391 549.239617 
L 1052.253154 547.390407 
" style="fill: none; stroke: #000000; stroke-linecap: round"/>
   </g>
   <g id="text_11">
    <g id="patch_21">
     <path d="M 1012.006719 624.83851 
L 1174.175099 624.83851 
L 1174.175099 552.040239 
L 1012.006719 552.040239 
z
" style="fill: #4ba6e7; stroke: #000000; stroke-linejoin: miter"/>
    </g>
    <!-- concavity_worst &lt;= 0.103 -->
    <g transform="translate(1016.626952 565.758361) scale(0.115506 -0.115506)">
     <use xlink:href="#DejaVuSans-63"/>
     <use xlink:href="#DejaVuSans-6f" transform="translate(54.980469 0)"/>
     <use xlink:href="#DejaVuSans-6e" transform="translate(116.162109 0)"/>
     <use xlink:href="#DejaVuSans-63" transform="translate(179.541016 0)"/>
     <use xlink:href="#DejaVuSans-61" transform="translate(234.521484 0)"/>
     <use xlink:href="#DejaVuSans-76" transform="translate(295.800781 0)"/>
     <use xlink:href="#DejaVuSans-69" transform="translate(354.980469 0)"/>
     <use xlink:href="#DejaVuSans-74" transform="translate(382.763672 0)"/>
     <use xlink:href="#DejaVuSans-79" transform="translate(421.972656 0)"/>
     <use xlink:href="#DejaVuSans-5f" transform="translate(481.152344 0)"/>
     <use xlink:href="#DejaVuSans-77" transform="translate(531.152344 0)"/>
     <use xlink:href="#DejaVuSans-6f" transform="translate(612.939453 0)"/>
     <use xlink:href="#DejaVuSans-72" transform="translate(674.121094 0)"/>
     <use xlink:href="#DejaVuSans-73" transform="translate(715.234375 0)"/>
     <use xlink:href="#DejaVuSans-74" transform="translate(767.333984 0)"/>
     <use xlink:href="#DejaVuSans-20" transform="translate(806.542969 0)"/>
     <use xlink:href="#DejaVuSans-3c" transform="translate(838.330078 0)"/>
     <use xlink:href="#DejaVuSans-3d" transform="translate(922.119141 0)"/>
     <use xlink:href="#DejaVuSans-20" transform="translate(1005.908203 0)"/>
     <use xlink:href="#DejaVuSans-30" transform="translate(1037.695312 0)"/>
     <use xlink:href="#DejaVuSans-2e" transform="translate(1101.318359 0)"/>
     <use xlink:href="#DejaVuSans-31" transform="translate(1133.105469 0)"/>
     <use xlink:href="#DejaVuSans-30" transform="translate(1196.728516 0)"/>
     <use xlink:href="#DejaVuSans-33" transform="translate(1260.351562 0)"/>
    </g>
    <!-- gini = 0.153 -->
    <g transform="translate(1057.511504 579.013738) scale(0.115506 -0.115506)">
     <use xlink:href="#DejaVuSans-67"/>
     <use xlink:href="#DejaVuSans-69" transform="translate(63.476562 0)"/>
     <use xlink:href="#DejaVuSans-6e" transform="translate(91.259766 0)"/>
     <use xlink:href="#DejaVuSans-69" transform="translate(154.638672 0)"/>
     <use xlink:href="#DejaVuSans-20" transform="translate(182.421875 0)"/>
     <use xlink:href="#DejaVuSans-3d" transform="translate(214.208984 0)"/>
     <use xlink:href="#DejaVuSans-20" transform="translate(297.998047 0)"/>
     <use xlink:href="#DejaVuSans-30" transform="translate(329.785156 0)"/>
     <use xlink:href="#DejaVuSans-2e" transform="translate(393.408203 0)"/>
     <use xlink:href="#DejaVuSans-31" transform="translate(425.195312 0)"/>
     <use xlink:href="#DejaVuSans-35" transform="translate(488.818359 0)"/>
     <use xlink:href="#DejaVuSans-33" transform="translate(552.441406 0)"/>
    </g>
    <!-- samples = 19 -->
    <g transform="translate(1053.225155 591.947864) scale(0.115506 -0.115506)">
     <use xlink:href="#DejaVuSans-73"/>
     <use xlink:href="#DejaVuSans-61" transform="translate(52.099609 0)"/>
     <use xlink:href="#DejaVuSans-6d" transform="translate(113.378906 0)"/>
     <use xlink:href="#DejaVuSans-70" transform="translate(210.791016 0)"/>
     <use xlink:href="#DejaVuSans-6c" transform="translate(274.267578 0)"/>
     <use xlink:href="#DejaVuSans-65" transform="translate(302.050781 0)"/>
     <use xlink:href="#DejaVuSans-73" transform="translate(363.574219 0)"/>
     <use xlink:href="#DejaVuSans-20" transform="translate(415.673828 0)"/>
     <use xlink:href="#DejaVuSans-3d" transform="translate(447.460938 0)"/>
     <use xlink:href="#DejaVuSans-20" transform="translate(531.25 0)"/>
     <use xlink:href="#DejaVuSans-31" transform="translate(563.037109 0)"/>
     <use xlink:href="#DejaVuSans-39" transform="translate(626.660156 0)"/>
    </g>
    <!-- value = [3, 33] -->
    <g transform="translate(1049.603867 604.881991) scale(0.115506 -0.115506)">
     <use xlink:href="#DejaVuSans-76"/>
     <use xlink:href="#DejaVuSans-61" transform="translate(59.179688 0)"/>
     <use xlink:href="#DejaVuSans-6c" transform="translate(120.458984 0)"/>
     <use xlink:href="#DejaVuSans-75" transform="translate(148.242188 0)"/>
     <use xlink:href="#DejaVuSans-65" transform="translate(211.621094 0)"/>
     <use xlink:href="#DejaVuSans-20" transform="translate(273.144531 0)"/>
     <use xlink:href="#DejaVuSans-3d" transform="translate(304.931641 0)"/>
     <use xlink:href="#DejaVuSans-20" transform="translate(388.720703 0)"/>
     <use xlink:href="#DejaVuSans-5b" transform="translate(420.507812 0)"/>
     <use xlink:href="#DejaVuSans-33" transform="translate(459.521484 0)"/>
     <use xlink:href="#DejaVuSans-2c" transform="translate(523.144531 0)"/>
     <use xlink:href="#DejaVuSans-20" transform="translate(554.931641 0)"/>
     <use xlink:href="#DejaVuSans-33" transform="translate(586.71875 0)"/>
     <use xlink:href="#DejaVuSans-33" transform="translate(650.341797 0)"/>
     <use xlink:href="#DejaVuSans-5d" transform="translate(713.964844 0)"/>
    </g>
    <!-- class = M -->
    <g transform="translate(1065.261223 617.816117) scale(0.115506 -0.115506)">
     <use xlink:href="#DejaVuSans-63"/>
     <use xlink:href="#DejaVuSans-6c" transform="translate(54.980469 0)"/>
     <use xlink:href="#DejaVuSans-61" transform="translate(82.763672 0)"/>
     <use xlink:href="#DejaVuSans-73" transform="translate(144.042969 0)"/>
     <use xlink:href="#DejaVuSans-73" transform="translate(196.142578 0)"/>
     <use xlink:href="#DejaVuSans-20" transform="translate(248.242188 0)"/>
     <use xlink:href="#DejaVuSans-3d" transform="translate(280.029297 0)"/>
     <use xlink:href="#DejaVuSans-20" transform="translate(363.818359 0)"/>
     <use xlink:href="#DejaVuSans-4d" transform="translate(395.605469 0)"/>
    </g>
   </g>
   <g id="text_12">
    <!--   False -->
    <g transform="translate(966.272727 450) scale(0.115506 -0.115506)">
     <defs>
      <path id="DejaVuSans-46" d="M 628 4666 
L 3309 4666 
L 3309 4134 
L 1259 4134 
L 1259 2759 
L 3109 2759 
L 3109 2228 
L 1259 2228 
L 1259 0 
L 628 0 
L 628 4666 
z
" transform="scale(0.015625)"/>
     </defs>
     <use xlink:href="#DejaVuSans-20"/>
     <use xlink:href="#DejaVuSans-20" transform="translate(31.787109 0)"/>
     <use xlink:href="#DejaVuSans-46" transform="translate(63.574219 0)"/>
     <use xlink:href="#DejaVuSans-61" transform="translate(111.96875 0)"/>
     <use xlink:href="#DejaVuSans-6c" transform="translate(173.248047 0)"/>
     <use xlink:href="#DejaVuSans-73" transform="translate(201.03125 0)"/>
     <use xlink:href="#DejaVuSans-65" transform="translate(253.130859 0)"/>
    </g>
   </g>
   <g id="patch_22">
    <path d="M 839.454545 311.4 
Q 839.454545 311.4 839.454545 311.4 
" style="fill: none; stroke: #000000; stroke-linecap: round"/>
   </g>
   <g id="text_13">
    <g id="patch_23">
     <path d="M 738.025086 347.63851 
L 940.884004 347.63851 
L 940.884004 274.840239 
L 738.025086 274.840239 
z
" style="fill: #f8decb; stroke: #000000; stroke-linejoin: miter"/>
    </g>
    <!-- fractal_dimension_mean &lt;= 0.39 -->
    <g transform="translate(742.64532 288.558361) scale(0.115506 -0.115506)">
     <defs>
      <path id="DejaVuSans-66" d="M 2375 4863 
L 2375 4384 
L 1825 4384 
Q 1516 4384 1395 4259 
Q 1275 4134 1275 3809 
L 1275 3500 
L 2222 3500 
L 2222 3053 
L 1275 3053 
L 1275 0 
L 697 0 
L 697 3053 
L 147 3053 
L 147 3500 
L 697 3500 
L 697 3744 
Q 697 4328 969 4595 
Q 1241 4863 1831 4863 
L 2375 4863 
z
" transform="scale(0.015625)"/>
      <path id="DejaVuSans-64" d="M 2906 2969 
L 2906 4863 
L 3481 4863 
L 3481 0 
L 2906 0 
L 2906 525 
Q 2725 213 2448 61 
Q 2172 -91 1784 -91 
Q 1150 -91 751 415 
Q 353 922 353 1747 
Q 353 2572 751 3078 
Q 1150 3584 1784 3584 
Q 2172 3584 2448 3432 
Q 2725 3281 2906 2969 
z
M 947 1747 
Q 947 1113 1208 752 
Q 1469 391 1925 391 
Q 2381 391 2643 752 
Q 2906 1113 2906 1747 
Q 2906 2381 2643 2742 
Q 2381 3103 1925 3103 
Q 1469 3103 1208 2742 
Q 947 2381 947 1747 
z
" transform="scale(0.015625)"/>
     </defs>
     <use xlink:href="#DejaVuSans-66"/>
     <use xlink:href="#DejaVuSans-72" transform="translate(35.205078 0)"/>
     <use xlink:href="#DejaVuSans-61" transform="translate(76.318359 0)"/>
     <use xlink:href="#DejaVuSans-63" transform="translate(137.597656 0)"/>
     <use xlink:href="#DejaVuSans-74" transform="translate(192.578125 0)"/>
     <use xlink:href="#DejaVuSans-61" transform="translate(231.787109 0)"/>
     <use xlink:href="#DejaVuSans-6c" transform="translate(293.066406 0)"/>
     <use xlink:href="#DejaVuSans-5f" transform="translate(320.849609 0)"/>
     <use xlink:href="#DejaVuSans-64" transform="translate(370.849609 0)"/>
     <use xlink:href="#DejaVuSans-69" transform="translate(434.326172 0)"/>
     <use xlink:href="#DejaVuSans-6d" transform="translate(462.109375 0)"/>
     <use xlink:href="#DejaVuSans-65" transform="translate(559.521484 0)"/>
     <use xlink:href="#DejaVuSans-6e" transform="translate(621.044922 0)"/>
     <use xlink:href="#DejaVuSans-73" transform="translate(684.423828 0)"/>
     <use xlink:href="#DejaVuSans-69" transform="translate(736.523438 0)"/>
     <use xlink:href="#DejaVuSans-6f" transform="translate(764.306641 0)"/>
     <use xlink:href="#DejaVuSans-6e" transform="translate(825.488281 0)"/>
     <use xlink:href="#DejaVuSans-5f" transform="translate(888.867188 0)"/>
     <use xlink:href="#DejaVuSans-6d" transform="translate(938.867188 0)"/>
     <use xlink:href="#DejaVuSans-65" transform="translate(1036.279297 0)"/>
     <use xlink:href="#DejaVuSans-61" transform="translate(1097.802734 0)"/>
     <use xlink:href="#DejaVuSans-6e" transform="translate(1159.082031 0)"/>
     <use xlink:href="#DejaVuSans-20" transform="translate(1222.460938 0)"/>
     <use xlink:href="#DejaVuSans-3c" transform="translate(1254.248047 0)"/>
     <use xlink:href="#DejaVuSans-3d" transform="translate(1338.037109 0)"/>
     <use xlink:href="#DejaVuSans-20" transform="translate(1421.826172 0)"/>
     <use xlink:href="#DejaVuSans-30" transform="translate(1453.613281 0)"/>
     <use xlink:href="#DejaVuSans-2e" transform="translate(1517.236328 0)"/>
     <use xlink:href="#DejaVuSans-33" transform="translate(1549.023438 0)"/>
     <use xlink:href="#DejaVuSans-39" transform="translate(1612.646484 0)"/>
    </g>
    <!-- gini = 0.488 -->
    <g transform="translate(803.87514 301.813738) scale(0.115506 -0.115506)">
     <use xlink:href="#DejaVuSans-67"/>
     <use xlink:href="#DejaVuSans-69" transform="translate(63.476562 0)"/>
     <use xlink:href="#DejaVuSans-6e" transform="translate(91.259766 0)"/>
     <use xlink:href="#DejaVuSans-69" transform="translate(154.638672 0)"/>
     <use xlink:href="#DejaVuSans-20" transform="translate(182.421875 0)"/>
     <use xlink:href="#DejaVuSans-3d" transform="translate(214.208984 0)"/>
     <use xlink:href="#DejaVuSans-20" transform="translate(297.998047 0)"/>
     <use xlink:href="#DejaVuSans-30" transform="translate(329.785156 0)"/>
     <use xlink:href="#DejaVuSans-2e" transform="translate(393.408203 0)"/>
     <use xlink:href="#DejaVuSans-34" transform="translate(425.195312 0)"/>
     <use xlink:href="#DejaVuSans-38" transform="translate(488.818359 0)"/>
     <use xlink:href="#DejaVuSans-38" transform="translate(552.441406 0)"/>
    </g>
    <!-- samples = 61 -->
    <g transform="translate(799.588791 314.747864) scale(0.115506 -0.115506)">
     <use xlink:href="#DejaVuSans-73"/>
     <use xlink:href="#DejaVuSans-61" transform="translate(52.099609 0)"/>
     <use xlink:href="#DejaVuSans-6d" transform="translate(113.378906 0)"/>
     <use xlink:href="#DejaVuSans-70" transform="translate(210.791016 0)"/>
     <use xlink:href="#DejaVuSans-6c" transform="translate(274.267578 0)"/>
     <use xlink:href="#DejaVuSans-65" transform="translate(302.050781 0)"/>
     <use xlink:href="#DejaVuSans-73" transform="translate(363.574219 0)"/>
     <use xlink:href="#DejaVuSans-20" transform="translate(415.673828 0)"/>
     <use xlink:href="#DejaVuSans-3d" transform="translate(447.460938 0)"/>
     <use xlink:href="#DejaVuSans-20" transform="translate(531.25 0)"/>
     <use xlink:href="#DejaVuSans-36" transform="translate(563.037109 0)"/>
     <use xlink:href="#DejaVuSans-31" transform="translate(626.660156 0)"/>
    </g>
    <!-- value = [53, 39] -->
    <g transform="translate(792.292974 327.681991) scale(0.115506 -0.115506)">
     <use xlink:href="#DejaVuSans-76"/>
     <use xlink:href="#DejaVuSans-61" transform="translate(59.179688 0)"/>
     <use xlink:href="#DejaVuSans-6c" transform="translate(120.458984 0)"/>
     <use xlink:href="#DejaVuSans-75" transform="translate(148.242188 0)"/>
     <use xlink:href="#DejaVuSans-65" transform="translate(211.621094 0)"/>
     <use xlink:href="#DejaVuSans-20" transform="translate(273.144531 0)"/>
     <use xlink:href="#DejaVuSans-3d" transform="translate(304.931641 0)"/>
     <use xlink:href="#DejaVuSans-20" transform="translate(388.720703 0)"/>
     <use xlink:href="#DejaVuSans-5b" transform="translate(420.507812 0)"/>
     <use xlink:href="#DejaVuSans-35" transform="translate(459.521484 0)"/>
     <use xlink:href="#DejaVuSans-33" transform="translate(523.144531 0)"/>
     <use xlink:href="#DejaVuSans-2c" transform="translate(586.767578 0)"/>
     <use xlink:href="#DejaVuSans-20" transform="translate(618.554688 0)"/>
     <use xlink:href="#DejaVuSans-33" transform="translate(650.341797 0)"/>
     <use xlink:href="#DejaVuSans-39" transform="translate(713.964844 0)"/>
     <use xlink:href="#DejaVuSans-5d" transform="translate(777.587891 0)"/>
    </g>
    <!-- class = B -->
    <g transform="translate(812.645462 340.616117) scale(0.115506 -0.115506)">
     <use xlink:href="#DejaVuSans-63"/>
     <use xlink:href="#DejaVuSans-6c" transform="translate(54.980469 0)"/>
     <use xlink:href="#DejaVuSans-61" transform="translate(82.763672 0)"/>
     <use xlink:href="#DejaVuSans-73" transform="translate(144.042969 0)"/>
     <use xlink:href="#DejaVuSans-73" transform="translate(196.142578 0)"/>
     <use xlink:href="#DejaVuSans-20" transform="translate(248.242188 0)"/>
     <use xlink:href="#DejaVuSans-3d" transform="translate(280.029297 0)"/>
     <use xlink:href="#DejaVuSans-20" transform="translate(363.818359 0)"/>
     <use xlink:href="#DejaVuSans-42" transform="translate(395.605469 0)"/>
    </g>
   </g>
  </g>
 </g>
</svg>
